<svg xmlns="http://www.w3.org/2000/svg" xmlns:xlink="http://www.w3.org/1999/xlink" version="1.1" viewBox="0 0 1000 1000">
   <path 
d="M705 793q-43 -75 -92.5 -147.5t-97.5 -137.5t-89 -114q-29 -37 -52.5 -65t-41.5 -50t-33 -39.5t-28 -32.5h54q18 21 37.5 44.5t46 55t64.5 78.5q40 52 89.5 119t100 141t93.5 148h-51zM244 793l24 -170q9 -61 26 -108.5t47.5 -84t78.5 -61.5l20 31q-41 22 -66 54
t-39 73.5t-21 94.5l-24 171h-46zM581 545l-20 -30q41 -23 69.5 -54t44.5 -72.5t20 -93.5l7 -88h46l-7 86q-5 61 -24.5 108.5t-53.5 82.5t-82 61z" />
</svg>
