<svg xmlns="http://www.w3.org/2000/svg" xmlns:xlink="http://www.w3.org/1999/xlink" version="1.1" viewBox="0 0 1000 1000">
   <path 
d="M274 555q0 -89 14 -158t40.5 -118.5t64 -82t85 -48.5t102.5 -16q29 0 53.5 3.5t44.5 9.5v38q-18 -7 -43 -11t-56 -4q-78 0 -137 37t-93 116.5t-37 208.5h2q13 -28 39.5 -54t67.5 -43t96 -17q99 0 154 58t55 157q0 70 -25.5 123.5t-74.5 83.5t-118 30q-62 0 -107 -26.5
t-73 -70.5t-41 -100.5t-13 -115.5zM508 832q86 0 131.5 -53.5t45.5 -146.5q0 -84 -42.5 -132t-129.5 -48q-60 0 -103.5 23.5t-66.5 58t-23 67.5q0 29 8 68t28.5 76.5t57.5 62t94 24.5z" />
</svg>
