<svg xmlns="http://www.w3.org/2000/svg" xmlns:xlink="http://www.w3.org/1999/xlink" version="1.1" viewBox="0 0 1000 1000">
   <path 
d="M726 444q0 113 -22.5 194t-63.5 131.5t-97 74.5t-123 24q-28 0 -57.5 -3.5t-49.5 -8.5v-39q18 6 47 10.5t59 4.5q79 0 138.5 -37.5t93.5 -118t37 -208.5h-3q-13 28 -39.5 54.5t-67.5 44t-98 17.5q-98 0 -152 -59t-54 -158q0 -70 25.5 -123t74 -82.5t117.5 -29.5
q65 0 109 26t72 70t41 100t13 116zM492 168q-86 0 -131.5 53t-45.5 146q0 83 43 132t129 49q59 0 102 -24t67 -59t24 -68q0 -28 -8.5 -67t-28.5 -76t-57 -61.5t-94 -24.5z" />
</svg>
