<svg xmlns="http://www.w3.org/2000/svg" xmlns:xlink="http://www.w3.org/1999/xlink" version="1.1" viewBox="0 0 1000 1000">
   <path 
d="M434.5 663q0 -49 7 -79.5t25.5 -54.5t52.5 -48q36 -26 61.5 -49.5t39 -53t13.5 -72.5q0 -70 -42 -103t-108 -33q-37 0 -71.5 8.5t-71.5 27.5l-15 -36q45 -19 80.5 -27.5t78.5 -8.5q86 0 138 42.5t52 128.5q0 49 -16 84t-45.5 62.5t-69.5 55.5q-26 18 -42 38t-23.5 48
t-7.5 71v13h-36v-14zM422.5 830q0 -16 7.5 -26.5t24.5 -10.5q20 0 26.5 10.5t6.5 26.5t-6.5 26t-26.5 10q-17 0 -24.5 -10t-7.5 -26z" />
</svg>
