<svg xmlns="http://www.w3.org/2000/svg" xmlns:xlink="http://www.w3.org/1999/xlink" version="1.1" viewBox="0 0 1000 1000">
   <path 
d="M475 820.5q-59 -1 -107.5 -9.5t-80.5 -21.5v-57q34 15 84.5 25.5t103.5 11.5v-260q-58 -19 -100.5 -41.5t-66 -56t-23.5 -83.5q0 -51 24.5 -86.5t67 -56t98.5 -23.5v-71h44v71q47 1 89 10.5t80 26.5l-19 48q-37 -16 -75.5 -24.5t-74.5 -10.5v255q61 20 105 42t67.5 54
t23.5 84q0 77 -53.5 120.5t-142.5 50.5v90h-44v-88zM519 767.5q65 -5 102 -34t37 -84q0 -33 -15 -55t-45.5 -38t-78.5 -31v242zM475 213.5q-40 2 -70 15.5t-46.5 37t-16.5 57.5q0 36 16 60t46 40t71 29v-239z" />
</svg>
