<svg xmlns="http://www.w3.org/2000/svg" xmlns:xlink="http://www.w3.org/1999/xlink" version="1.1" viewBox="0 0 1000 1000">
   <path 
d="M721 671q0 64 -32 107.5t-88 66t-127 22.5q-43 0 -78.5 -4.5t-64.5 -11.5t-52 -16v-57q38 15 88.5 26t109.5 11q55 0 96.5 -15.5t65 -47t23.5 -77.5q0 -43 -19.5 -70t-60 -47.5t-103.5 -41.5q-45 -16 -80.5 -33t-60.5 -40t-38 -54.5t-13 -74.5q0 -59 30 -99t81.5 -61
t116.5 -21q53 0 99.5 9.5t88.5 28.5l-19 50q-42 -18 -85 -27t-86 -9q-49 0 -86.5 14.5t-59 43t-21.5 70.5q0 45 20 73t58.5 47t92.5 38q64 21 109.5 45.5t70 61t24.5 93.5z" />
</svg>
