<?xml version="1.0" encoding="UTF-8" standalone="no"?>
<svg
   viewBox="0 0 100 100"
   version="1.1"
   id="svg1"
   sodipodi:docname="squircle.svg"
   inkscape:export-filename="squircle-system.svg"
   inkscape:export-xdpi="96"
   inkscape:export-ydpi="96"
   width="100pt"
   height="100pt"
   inkscape:version="1.3.2 (091e20e, 2023-11-25)"
   xmlns:inkscape="http://www.inkscape.org/namespaces/inkscape"
   xmlns:sodipodi="http://sodipodi.sourceforge.net/DTD/sodipodi-0.dtd"
   xmlns="http://www.w3.org/2000/svg"
   xmlns:svg="http://www.w3.org/2000/svg">
  <defs
     id="defs1" />
  <sodipodi:namedview
     id="namedview1"
     pagecolor="#505050"
     bordercolor="#eeeeee"
     borderopacity="1"
     inkscape:showpageshadow="0"
     inkscape:pageopacity="0"
     inkscape:pagecheckerboard="0"
     inkscape:deskcolor="#d1d1d1"
     inkscape:document-units="pt"
     inkscape:zoom="3.5758147"
     inkscape:cx="61.384612"
     inkscape:cy="69.494652"
     inkscape:window-width="1440"
     inkscape:window-height="785"
     inkscape:window-x="0"
     inkscape:window-y="25"
     inkscape:window-maximized="1"
     inkscape:current-layer="svg1" />
  <path
     d="M 81.249999,18.75 C 106.25,43.75 106.25,56.249999 81.249997,81.249999 56.249998,106.25 43.75,106.25 18.750001,81.249999 -6.2499993,56.249999 -6.2500011,43.75 18.749999,18.75 c 25,-24.9999998 37.5,-24.9999998 62.5,0"
     id="path2"
     style="stroke:none;stroke-width:0;stroke-dasharray:none"
     inkscape:label="squircle" />
  <path
     d="m 81.25,18.749997 c -24.999974,-24.9999747 -37.500028,-24.9999747 -62.500002,0 l 31.250001,31.250002 z"
     style="fill:#2eff00;stroke-width:0;stroke-linecap:round;stroke-linejoin:round;paint-order:stroke fill markers"
     id="path6"
     inkscape:label="quad-up" />
  <path
     d="M 81.25,18.749997 49.999999,49.999999 81.25,81.25 c 24.99997,-24.999975 24.99997,-37.500028 0,-62.500003 z"
     style="fill:#2eff00;stroke-width:0;stroke-linecap:round;stroke-linejoin:round;paint-order:stroke fill markers"
     id="path5"
     inkscape:label="quad-right" />
  <path
     d="M 49.999999,49.999999 18.749998,18.749997 c -24.9999752,24.999975 -24.9999752,37.500028 0,62.500003 z"
     style="fill:#2eff00;stroke-width:0;stroke-linecap:round;stroke-linejoin:round;paint-order:stroke fill markers"
     id="path8"
     inkscape:label="quad-left" />
  <path
     d="M 49.999999,49.999999 18.749998,81.25 c 24.999974,24.99997 37.500028,24.99997 62.500002,0 z"
     style="fill:#2eff00;stroke-width:0;stroke-linecap:round;stroke-linejoin:round;paint-order:stroke fill markers"
     id="path7"
     inkscape:label="quad-bottom" />
</svg>
