<?xml version="1.0" encoding="UTF-8" standalone="no"?>
<svg
   viewBox="0 0 100 100"
   version="1.1"
   id="svg1"
   sodipodi:docname="straight.svg"
   inkscape:export-filename="squircle-system.svg"
   inkscape:export-xdpi="96"
   inkscape:export-ydpi="96"
   width="100pt"
   height="100pt"
   inkscape:version="1.3.2 (091e20e, 2023-11-25)"
   xmlns:inkscape="http://www.inkscape.org/namespaces/inkscape"
   xmlns:sodipodi="http://sodipodi.sourceforge.net/DTD/sodipodi-0.dtd"
   xmlns="http://www.w3.org/2000/svg"
   xmlns:svg="http://www.w3.org/2000/svg">
  <defs
     id="defs1" />
  <sodipodi:namedview
     id="namedview1"
     pagecolor="#505050"
     bordercolor="#eeeeee"
     borderopacity="1"
     inkscape:showpageshadow="0"
     inkscape:pageopacity="0"
     inkscape:pagecheckerboard="0"
     inkscape:deskcolor="#d1d1d1"
     inkscape:document-units="pt"
     inkscape:zoom="2.8786903"
     inkscape:cx="67.044378"
     inkscape:cy="85.281838"
     inkscape:window-width="1440"
     inkscape:window-height="785"
     inkscape:window-x="0"
     inkscape:window-y="25"
     inkscape:window-maximized="1"
     inkscape:current-layer="svg1" />
  <path
     d="M 100,50.000001 C 100,90.000002 90.000002,100 49.999997,100 9.9999952,100 -2.8999999e-6,90.000002 -1.1999999e-6,50.000001 -1.4999999e-6,9.9999991 9.9999972,-2.2e-6 49.999998,-2.1e-6 90,-2e-6 100,9.9999991 100,50.000001"
     id="path2"
     style="display:none;stroke:none;stroke-width:0;stroke-dasharray:none"
     inkscape:label="squircle" />
  <path
     d="M 49.999512,49.999512 10.000488,90 C 17.50048,97.499992 29.99953,100.00049 49.999512,100.00049 69.999493,100.00049 82.500007,97.499992 90,90 Z"
     style="fill:#ff0000;stroke-width:0;stroke-linecap:round;stroke-linejoin:round;paint-order:stroke fill markers"
     id="path9"
     inkscape:label="quad-down" />
  <path
     d="M 49.999512,49.999512 90,90 C 97.499993,82.500008 100.00049,69.999491 100.00049,49.999512 100.00049,29.999531 97.499993,17.500481 90,10.000488 Z"
     style="fill:#ff0000;stroke-width:0;stroke-linecap:round;stroke-linejoin:round;paint-order:stroke fill markers"
     id="path8"
     inkscape:label="quad-right" />
  <path
     d="M 10.000488,10.000488 C 2.5004961,17.500481 0,29.999531 0,49.999512 -9.9999903e-7,69.999491 2.5004962,82.500008 10.000488,90 L 49.999512,49.999512 Z"
     style="fill:#ff0000;stroke-width:0;stroke-linecap:round;stroke-linejoin:round;paint-order:stroke fill markers"
     id="path7"
     inkscape:label="quad-left" />
  <path
     d="M 10.000488,10.000488 49.999512,49.999512 90,10.000488 C 82.500008,2.5004953 69.999493,0 49.999512,0 29.999531,0 17.50048,2.5004953 10.000488,10.000488 Z"
     style="fill:#ff0000;stroke-width:0;stroke-linecap:round;stroke-linejoin:round;paint-order:stroke fill markers"
     id="path6"
     inkscape:label="quad-up" />
</svg>
