<svg xmlns="http://www.w3.org/2000/svg" xmlns:xlink="http://www.w3.org/1999/xlink" version="1.1" viewBox="0 0 1000 1000">
   <path 
d="M499 109q63 0 104 24t66 67h4l8 -81h46v549q0 69 -23.5 119t-74 77t-131.5 27q-60 0 -106.5 -10t-83.5 -26v-55q37 18 86 30t106 12q88 0 129.5 -46.5t41.5 -124.5v-31q0 -21 0.5 -42.5t1.5 -40.5h-3q-23 51 -68 77.5t-110 26.5q-103 0 -161 -70.5t-58 -201.5
q0 -129 58.5 -204.5t167.5 -75.5zM505 158q-58 0 -96 27.5t-57.5 79t-19.5 125.5q0 108 43 165t124 57q50 0 83 -15.5t52.5 -43.5t28 -66t8.5 -82v-35q0 -68 -16 -115t-52.5 -72t-97.5 -25z" />
</svg>
