<svg xmlns="http://www.w3.org/2000/svg" xmlns:xlink="http://www.w3.org/1999/xlink" version="1.1" viewBox="0 0 1000 1000">
   <path 
d="M637.5 29q-11 16 -28 35.5t-37 40.5t-40.5 40.5t-39.5 35.5h-40v-9q19 -20 41 -47t43 -55t33 -49h68v8zM821.5 611q0 82 -20 149t-60.5 116.5t-100.5 76t-140 26.5q-81 0 -141.5 -27t-100.5 -76t-60 -116.5t-20 -149.5q0 -109 36.5 -191.5t109 -128.5t179.5 -46
q103 0 174 44.5t107.5 126.5t36.5 196zM239.5 610q0 95 28 166.5t86.5 111t146.5 39.5q90 0 147.5 -39t85 -110.5t27.5 -166.5q0 -149 -64.5 -232t-192.5 -83q-89 0 -148 39t-87.5 110t-28.5 165z" />
</svg>
