<svg xmlns="http://www.w3.org/2000/svg" xmlns:xlink="http://www.w3.org/1999/xlink" version="1.1" viewBox="0 0 1000 1000">
   <path 
d="M479.5 112q13 21 33 49t43 55t41 47v9h-40q-18 -16 -39 -35.5t-41 -40.5t-37 -40.5t-28 -35.5v-8h68zM525.5 337q90 0 134 43.5t44 139.5v358h-43l-10 -90h-3q-19 30 -43.5 52.5t-59 35t-83.5 12.5q-51 0 -88 -17.5t-57 -50.5t-20 -81q0 -80 65 -121.5t189 -46.5l97 -5
v-37q0 -79 -31.5 -111.5t-92.5 -32.5q-41 0 -79 10.5t-76 29.5l-18 -46q38 -18 82.5 -30t92.5 -12zM557.5 613q-101 5 -151 35.5t-50 90.5q0 49 30.5 75t84.5 26q84 0 129.5 -47.5t46.5 -131.5v-52z" />
</svg>
