<svg xmlns="http://www.w3.org/2000/svg" xmlns:xlink="http://www.w3.org/1999/xlink" version="1.1" viewBox="0 0 1000 1000">
   <path 
d="M637.5 120q-11 16 -28 35.5t-37 40.5t-40.5 40.5t-39.5 35.5h-40v-9q19 -20 41 -47t43 -55t33 -49h68v8zM513.5 336q68 0 114 31.5t69 86.5t23 126v39h-380q1 106 50 162.5t141 56.5q49 0 86 -8.5t81 -27.5v52q-39 17 -78.5 25.5t-90.5 8.5q-80 0 -135.5 -33t-84 -94.5
t-28.5 -144.5q0 -81 27.5 -144.5t79.5 -99.5t126 -36zM512.5 384q-73 0 -118 48.5t-53 139.5h319q0 -56 -16 -98t-48.5 -66t-83.5 -24z" />
</svg>
