<svg xmlns="http://www.w3.org/2000/svg" xmlns:xlink="http://www.w3.org/1999/xlink" version="1.1" viewBox="0 0 1000 1000">
   <path 
d="M325.5 251q3 -28 10.5 -49t20.5 -35t30 -21.5t39 -7.5q23 0 42.5 10t37 23t34.5 23t35 10q22 0 38 -14.5t22 -52.5h37q-5 54 -31 84t-69 30q-23 0 -42 -10t-36.5 -23t-34.5 -23t-36 -10q-22 0 -37.5 14.5t-21.5 51.5h-38zM525.5 321q91 0 139 46.5t48 147.5v348h-56v-344
q0 -77 -35 -113t-102 -36q-88 0 -131.5 51t-43.5 152v290h-57v-532h46l8 92h4q15 -30 40 -53t60 -36t80 -13z" />
</svg>
