<svg xmlns="http://www.w3.org/2000/svg" xmlns:xlink="http://www.w3.org/1999/xlink" version="1.1" viewBox="0 0 1000 1000">
   <path 
d="M821.5 419.5q0 91 -25.5 165t-75.5 123t-126 68l156 172h-82l-137 -162q-8 1 -15.5 1.5t-15.5 0.5q-81 0 -141.5 -27t-100.5 -76t-60 -116.5t-20 -149.5q0 -109 36.5 -191.5t109 -128.5t179.5 -46q103 0 174 44.5t107.5 126.5t36.5 196zM239.5 418.5q0 95 28 166.5
t86.5 111t146.5 39.5q90 0 147.5 -39t85 -110.5t27.5 -166.5q0 -149 -64.5 -232t-192.5 -83q-89 0 -148 39t-87.5 110t-28.5 165z" />
</svg>
