<svg xmlns="http://www.w3.org/2000/svg" xmlns:xlink="http://www.w3.org/1999/xlink" version="1.1" viewBox="0 0 1000 1000">
   <path 
d="M85.4521 341.938q-5 -5 -5 -13t12 -23q23 -28 51 -56t57 -47t52 -19q25 0 41.5 11.5t28.5 27t23 27t24 11.5q18 0 30 -16t23.5 -37t27.5 -37t41 -16q28 0 48.5 18t36.5 46t27 57q21 54 52.5 119t70.5 134.5t83.5 136.5t91.5 124q15 18 17.5 32.5t-5.5 19.5q-7 5 -18.5 2
t-29.5 -25q-50 -62 -94.5 -133t-82.5 -142.5t-68 -136.5t-51 -116q-8 -21 -18 -45t-24 -40.5t-34 -16.5q-18 0 -30.5 16.5t-24.5 38.5t-29 38.5t-43 16.5q-19 0 -32.5 -12t-25 -27t-24.5 -27t-31 -12q-25 0 -57.5 31.5t-67.5 80.5q-11 16 -23 16t-20 -7z" />
</svg>
