<svg xmlns="http://www.w3.org/2000/svg" xmlns:xlink="http://www.w3.org/1999/xlink" version="1.1" viewBox="0 0 1000 1000">
   <path 
d="M458.5 157q-1 5 -3 14.5t-4 18.5q-6 29 -13 80t-12 112.5t-5 121.5q0 81 15.5 153t33.5 127l-37 12q-12 -38 -23 -85.5t-17.5 -101t-6.5 -105.5q0 -59 4.5 -120t11 -113t8.5 -83q2 -9 2.5 -18t-0.5 -13h46zM335.5 270q99 0 204 -9.5t197 -27.5l2 38q-46 7 -97.5 13.5
t-105 11t-104.5 7.5t-96 3q-15 0 -40 -1t-49.5 -2.5t-40.5 -2.5l-2 -40q15 2 41.5 4.5t52.5 4t38 1.5zM670.5 347l-2.5 7.5t-3 10t-3.5 10.5q-39 117 -97 205.5t-126 144.5q-41 32 -87.5 51.5t-81.5 19.5q-27 0 -47.5 -10.5t-32 -30.5t-11.5 -50q0 -60 33 -114.5t84.5 -96.5
t108.5 -64q42 -17 88 -26t82 -9q83 0 138 28.5t82 75t27 100.5q0 55 -28 105.5t-89 87t-159 51.5l-22 -35q69 -6 128 -32.5t95 -72t36 -107.5q0 -47 -24.5 -84.5t-70.5 -60t-111 -22.5q-48 0 -92 11t-78 26q-48 21 -92.5 58.5t-72 84t-27.5 94.5q0 30 17.5 43.5t42.5 13.5
q29 0 68.5 -18t79.5 -51q63 -53 115.5 -132t83.5 -190l2.5 -10t3 -12.5t1.5 -9.5z" />
</svg>
