<svg xmlns="http://www.w3.org/2000/svg" xmlns:xlink="http://www.w3.org/1999/xlink" version="1.1" viewBox="0 0 1000 1000">
   <path 
d="M762 527q0 -50 -25 -86.5t-68.5 -57t-98.5 -20.5q-60 0 -112 9t-94.5 21t-75.5 22q-25 7 -42 13.5t-33 12.5l-15 -52q17 -2 37 -5.5t41 -7.5q34 -8 81.5 -20t103 -21t111.5 -9q65 0 117 23t82.5 68t30.5 112q0 81 -33 144t-92.5 108.5t-138.5 74.5t-171 44l-25 -37
q90 -12 166 -38.5t133.5 -67.5t89 -99t31.5 -131zM320 100q40 9 95 17.5t113.5 15t111 10.5t86.5 5l-6 40q-40 -3 -92.5 -7.5t-109.5 -11t-110 -14t-95 -14.5z" />
</svg>
