<svg xmlns="http://www.w3.org/2000/svg" xmlns:xlink="http://www.w3.org/1999/xlink" version="1.1" viewBox="0 0 1000 1000">
   <path 
d="M226 213q0 4 -1 18.5t-2 29.5t-1 24q0 18 0.5 49t1.5 67t4 71.5t7 61.5q10 62 28.5 110t43.5 75t53 27q17 0 33 -14t31 -39t27.5 -57t22.5 -68l34 31q-35 101 -71 145t-76 44q-26 0 -51 -13.5t-46.5 -42.5t-38.5 -76.5t-27 -115.5q-4 -24 -6.5 -60t-4 -74.5t-2.5 -70.5
t-1 -49v-23.5t-0.5 -30t-2.5 -20.5zM673 242q32 39 57.5 91t44 108.5t29.5 110t15 93.5l-41 17q-3 -44 -14 -98t-29.5 -110.5t-44 -107.5t-56.5 -90z" />
</svg>
