<svg xmlns="http://www.w3.org/2000/svg" xmlns:xlink="http://www.w3.org/1999/xlink" version="1.1" viewBox="0 0 1000 1000">
   <path 
d="M445.5 90q-2 5 -4.5 17t-4.5 21q-8 38 -15.5 102.5t-12.5 141t-5 149.5q0 53 8 111t21.5 112.5t27.5 99.5l-39 12q-14 -45 -26.5 -102t-20 -118t-7.5 -116q0 -54 3 -110.5t8.5 -110t10 -98t7.5 -73.5q2 -13 2.5 -23t0.5 -16zM298.5 225q82 0 169.5 -6t169 -16t145.5 -24
l1 42q-57 9 -118.5 16.5t-125 13t-125 8.5t-116.5 3q-17 0 -45.5 -1t-57 -2.5t-46.5 -2.5l-1 -44q17 3 47 6t59.5 5t43.5 2zM703.5 319q-3 4 -4.5 10t-4 11.5t-4.5 11.5q-31 94 -73 172.5t-92 141t-107 106.5q-48 38 -100.5 60.5t-95.5 22.5q-30 0 -54.5 -12.5t-38 -37
t-13.5 -60.5q0 -50 22 -99t60 -92.5t86 -78.5t100 -56q50 -20 106 -31t98 -11q96 0 161.5 33.5t99.5 87.5t34 117q0 54 -19.5 102t-60 87t-101.5 66t-144 41l-24 -36q85 -9 155 -41.5t111.5 -88t41.5 -132.5q0 -54 -29 -99.5t-84.5 -74t-136.5 -28.5q-59 0 -112.5 14.5
t-92.5 31.5q-62 26 -114 72.5t-83.5 102t-31.5 111.5q0 36 18 53t48 17q38 0 85 -19t97 -61q77 -64 142.5 -159t102.5 -232q1 -5 2 -11t3 -12.5t2 -11.5z" />
</svg>
