<svg xmlns="http://www.w3.org/2000/svg" xmlns:xlink="http://www.w3.org/1999/xlink" version="1.1" viewBox="0 0 1000 1000">
   <path 
d="M171 159.5q-1 7 -2 20.5t-1.5 28.5t-1.5 28q-1 30 -0.5 72.5t2.5 90.5t6 93q9 92 32 161t55.5 106.5t71.5 37.5q20 0 39.5 -15.5t37.5 -44.5t34 -67t28 -81l33 31q-28 83 -57 131t-57.5 69.5t-58.5 21.5q-40 0 -80.5 -33.5t-71 -108.5t-44.5 -201q-4 -42 -6.5 -92.5
t-3.5 -97t-1 -73.5q0 -15 -0.5 -40.5t-4.5 -38.5zM708 190.5q26 35 49 77.5t43 90.5t36 99.5t27 105.5t17 109l-40 17q-7 -74 -22.5 -143t-38 -130.5t-50.5 -115t-59 -95.5z" />
</svg>
