<svg xmlns="http://www.w3.org/2000/svg" xmlns:xlink="http://www.w3.org/1999/xlink" version="1.1" viewBox="0 0 1000 1000">
   <path 
d="M705 91.9287q13 17 28 41t29.5 49.5t25.5 46.5l-33 17q-9 -21 -23.5 -46t-30.5 -50t-30 -43zM809 54.9287q13 18 29 43t31.5 50t25.5 45l-33 16q-17 -35 -40 -73t-46 -66zM473 208.929q-4 -16 -9.5 -34t-11.5 -34l47 -6q2 21 10.5 55.5t20.5 73t24 71.5q23 66 60 134.5
t75 119.5q8 11 17 22t19 20l-24 31q-16 -5 -43.5 -8.5t-59.5 -6.5t-63.5 -6t-55.5 -4l3 -35q31 2 65.5 5.5t66 6t50.5 5.5q-23 -34 -50.5 -80t-52.5 -96.5t-43 -99.5q-16 -44 -27 -78t-18 -56zM105 310.929q76 8 152 12t146.5 2.5t124.5 -6.5q36 -4 81 -11t91 -18.5
t84 -25.5l4 42q-37 11 -81.5 20t-87 16t-76.5 11q-92 10 -206 9.5t-230 -9.5zM223 612.929q-21 36 -34 69.5t-13 72.5q0 77 68 113.5t187 38.5q72 1 134.5 -5.5t115.5 -19.5l-1 43q-50 9 -111.5 15t-139.5 5q-89 -1 -154.5 -21.5t-101.5 -63t-36 -106.5q0 -38 13.5 -75
t31.5 -76z" />
</svg>
