<svg xmlns="http://www.w3.org/2000/svg" xmlns:xlink="http://www.w3.org/1999/xlink" version="1.1" viewBox="0 0 1000 1000">
   <path 
d="M735.5 117.5q-1 9 -1.5 20l-1 22t-0.5 20v63.5t-0.5 67.5t-1.5 59q-1 33 -2.5 76.5t-4 84t-8.5 67.5q-6 28 -22 39.5t-46 11.5q-19 0 -43 -2.5t-44 -6t-31 -5.5l1 -37q28 7 57.5 10.5t47.5 3.5q23 0 32.5 -6t12.5 -24q4 -20 6.5 -56t4.5 -77.5t2 -77.5q1 -29 1 -63.5v-68
v-58.5q0 -11 -0.5 -22l-1 -22t-2.5 -19h45zM339.5 150.5q-2 11 -2.5 29t-0.5 34q0 36 -0.5 88.5t-1 110.5t-0.5 111.5v95t1 59.5q2 43 5.5 74t20 51t55.5 30t111 10q58 0 115 -3t104.5 -8t76.5 -10l-1 43q-33 3 -82 7t-104.5 7t-108.5 3q-79 0 -124 -11t-67 -34t-29 -61.5
t-9 -94.5q0 -21 -0.5 -60.5t-0.5 -89.5v-102t0.5 -98t0.5 -77.5v-40.5q0 -15 -0.5 -29t-3.5 -34h45zM67.5 400.5q26 0 47.5 -1.5t40.5 -2.5q34 -3 96.5 -9t142 -14t164.5 -15.5t165.5 -14t145.5 -9.5q19 -1 34 -1.5t29 -1.5v44q-6 -1 -16.5 -1h-22.5h-24q-41 0 -100 3.5
t-127 9t-139 12t-136.5 13.5t-119.5 13t-89 10q-15 2 -29.5 3.5t-28.5 3.5l-28 4z" />
</svg>
