<svg xmlns="http://www.w3.org/2000/svg" xmlns:xlink="http://www.w3.org/1999/xlink" version="1.1" viewBox="0 0 1000 1000">
   <path 
d="M525.5 168.929q-4 -15 -9 -33.5t-11 -34.5l46 -6q3 21 11.5 56t20.5 73t23 71q23 67 60.5 135.5t75.5 119.5q8 11 17 21.5t19 20.5l-25 30q-15 -5 -42.5 -8.5t-60 -6.5t-63.5 -5.5t-55 -3.5l3 -35q31 2 65.5 5t65.5 5.5t51 5.5q-24 -33 -51 -79t-52.5 -97t-42.5 -99
q-16 -45 -27 -79t-19 -56zM158.5 270.929q76 9 152 13t146 2.5t125 -7.5q36 -4 81 -11t91 -18t84 -25l4 41q-37 11 -81.5 20t-87.5 16t-76 11q-92 10 -206.5 10t-229.5 -10zM275.5 572.929q-20 37 -33 70.5t-13 71.5q0 77 68 114t186 38q72 1 135 -5.5t115 -18.5v42
q-51 9 -112 15t-139 5q-89 0 -154.5 -21t-101.5 -63t-36 -106q0 -39 13.5 -76t31.5 -75z" />
</svg>
