<svg xmlns="http://www.w3.org/2000/svg" xmlns:xlink="http://www.w3.org/1999/xlink" version="1.1" viewBox="0 0 1000 1000">
   <path 
d="M162.5 230.5q53 7 119.5 10t137.5 3q48 0 93 -2t86 -5.5t75 -6.5v41q-33 2 -74.5 5t-87.5 5t-92 2q-72 0 -136 -3t-121 -8v-41zM167.5 617.5q-12 31 -18 62t-6 61q0 65 67 104.5t197 39.5q70 0 134 -4.5t116 -13.5t85 -21l1 42q-30 9 -81.5 17.5t-117 13.5t-137.5 5
q-91 0 -159 -20t-105.5 -59t-37.5 -97q0 -36 6.5 -69.5t13.5 -65.5zM703.5 112.5q13 17 28 41.5t30.5 50t25.5 46.5l-34 17q-14 -31 -38 -71.5t-45 -68.5zM807.5 76.5q14 18 30 43t31.5 50t25.5 44l-34 16q-17 -33 -40 -71.5t-46 -66.5z" />
</svg>
