<svg xmlns="http://www.w3.org/2000/svg" xmlns:xlink="http://www.w3.org/1999/xlink" version="1.1" viewBox="0 0 1000 1000">
   <path 
d="M593.5 91q0 4 -1 13t-1.5 18t-0.5 14q-1 19 -1 50.5v69.5t0.5 76.5t1 72.5t0.5 58l-38 -35v-36.5t-0.5 -63t-1 -74.5t-1 -69.5t-1.5 -48.5q0 -12 -2 -26.5t-3 -18.5h49zM89.5 242q38 -1 87.5 -3t106.5 -3.5t117 -3t119 -2.5t112 -1q51 0 96 0.5t80 0.5h61.5h41.5v40
q-38 -2 -103 -3.5t-176 -1.5q-61 0 -131.5 1t-143.5 3.5t-141 6.5t-124 9zM601.5 528q0 55 -19 92t-50 55.5t-68 18.5q-33 0 -61.5 -10t-50 -30.5t-33.5 -49t-12 -65.5q0 -44 21.5 -81t57.5 -59.5t78 -22.5q53 0 87 24t51.5 65.5t17.5 96.5q0 52 -13 102.5t-44 96.5
t-85.5 84t-138.5 64l-36 -33q72 -18 124.5 -46.5t86 -67.5t50 -88.5t16.5 -107.5q0 -84 -33.5 -119t-80.5 -35q-32 0 -59 16t-44 44.5t-17 66.5q0 57 35.5 88t85.5 31q37 0 62 -19.5t37.5 -55.5t10.5 -84z" />
</svg>
