<svg xmlns="http://www.w3.org/2000/svg" xmlns:xlink="http://www.w3.org/1999/xlink" version="1.1" viewBox="0 0 1000 1000">
   <path 
d="M413.5 102.5q-4 12 -8 32.5t-6 34.5q-7 37 -16.5 83.5t-20.5 96.5t-25 99q-13 54 -32 117t-40 126t-42 117.5t-40 93.5l-47 -15q23 -40 46 -94t45 -115.5t40.5 -122.5t32.5 -114q9 -34 18.5 -74.5t18 -80t14.5 -72t9 -49.5q2 -16 3.5 -35.5t0.5 -32.5zM218.5 282.5
q51 0 114.5 -5.5t130.5 -16t127 -26.5v41q-62 14 -129 24t-130 15.5t-114 5.5q-30 0 -57 -1t-56 -3l-1 -41q33 4 62 5.5t53 1.5zM536.5 407.5q38 -3 83 -5t92 -2q45 0 89.5 1.5t82.5 6.5l-3 41q-38 -5 -80 -8t-85 -3t-88.5 2.5t-90.5 7.5v-41zM530.5 644.5q-7 27 -11 50
t-4 46q0 18 7 36.5t27 34t58.5 25t102.5 9.5q48 0 96.5 -5t89.5 -14l-1 44q-40 6 -87.5 10t-98.5 4q-111 0 -171.5 -32.5t-60.5 -106.5q0 -24 3.5 -47.5t10.5 -57.5z" />
</svg>
