<svg xmlns="http://www.w3.org/2000/svg" xmlns:xlink="http://www.w3.org/1999/xlink" version="1.1" viewBox="0 0 1000 1000">
   <path 
d="M70 425q27 -5 49 -11.5t51 -15.5q34 -11 84.5 -28.5t108.5 -34.5t119 -28t115 -11q78 0 140.5 29t99.5 83t37 131q0 75 -28.5 131.5t-79 97.5t-117.5 68t-145 42t-159 20l-18 -43q96 -3 185.5 -21t162 -54.5t115 -96t42.5 -144.5q0 -57 -28 -103.5t-80.5 -74.5
t-126.5 -28q-53 0 -114.5 12.5t-123 30.5t-116 38t-94.5 36t-58 22zM739 138q13 18 28.5 42t30 49t25.5 48l-33 16q-14 -31 -39 -71.5t-45 -68.5zM842 102q14 18 30.5 42.5t32 49.5t25.5 45l-34 16q-16 -34 -39.5 -72t-45.5 -66z" />
</svg>
