<svg xmlns="http://www.w3.org/2000/svg" xmlns:xlink="http://www.w3.org/1999/xlink" version="1.1" viewBox="0 0 1000 1000">
   <path 
d="M353 136.315q-5 14 -8.5 34t-5.5 36q-4 24 -11.5 63t-18 86t-22 94.5t-23.5 88.5t-24 69q69 -56 145 -80t163 -24q79 0 132 24t79.5 65.5t26.5 95.5q0 74 -37 125t-104 80.5t-158 37.5t-200 -3l-9 -40q90 11 174 6t150.5 -28t105 -66.5t38.5 -109.5t-51 -108.5
t-150 -42.5q-91 0 -174 30.5t-137 92.5q-10 12 -17.5 23t-15.5 25l-40 -15q29 -57 53 -127.5t42 -142t29.5 -130.5t15.5 -94q2 -18 3.5 -34.5t0.5 -33.5zM72 272.315q33 5 82.5 9.5t93.5 4.5q64 0 146.5 -5t168.5 -16t162 -28v42q-57 10 -120 18.5t-126.5 14t-122.5 8.5
t-107 3q-47 0 -90.5 -3t-85.5 -7zM738 101.315q13 17 27.5 41t29.5 49.5t26 47.5l-33 16q-9 -20 -23.5 -45.5t-30.5 -50.5t-30 -43zM841 65.3154q14 18 30 42.5t31.5 49.5t25.5 45l-34 16q-17 -34 -39.5 -72t-45.5 -66z" />
</svg>
