<svg xmlns="http://www.w3.org/2000/svg" xmlns:xlink="http://www.w3.org/1999/xlink" version="1.1" viewBox="0 0 1000 1000">
   <path 
d="M379.5 102q-4 13 -8 33.5t-6 33.5q-7 38 -16.5 84t-20.5 96t-25 100q-13 53 -32 116t-40 126t-42 118t-40 94l-47 -16q23 -40 46 -94t45 -115t40.5 -122.5t32.5 -113.5q9 -35 18.5 -75.5t18 -80t14.5 -71.5t9 -50q2 -15 3.5 -34.5t0.5 -33.5zM184.5 283q51 0 114.5 -6
t130.5 -16.5t127 -26.5v42q-62 13 -129 23t-130 15.5t-114 5.5q-30 0 -57 -1t-56 -3l-1 -41q33 4 62 6t53 2zM502.5 408q38 -3 83 -5.5t92 -2.5q45 0 89.5 1.5t82.5 6.5l-3 42q-38 -5 -80 -8.5t-85 -3.5t-88.5 2.5t-90.5 7.5v-40zM496.5 644q-7 28 -11 51t-4 45q0 19 7 37.5
t27 34t58.5 25t102.5 9.5q48 0 96.5 -5t89.5 -14l-1 43q-40 6 -87.5 10t-98.5 4q-111 0 -171.5 -32.5t-60.5 -105.5q0 -24 3.5 -48t10.5 -57zM739.5 134q13 17 28.5 41t30 49.5t25.5 47.5l-33 16q-9 -20 -24 -45.5t-30.5 -50.5t-29.5 -43zM843.5 97q13 18 29.5 43t32 50
t25.5 45l-33 16q-17 -35 -40.5 -73t-45.5 -66z" />
</svg>
