<svg xmlns="http://www.w3.org/2000/svg" xmlns:xlink="http://www.w3.org/1999/xlink" version="1.1" viewBox="0 0 1000 1000">
   <path 
d="M771.5 267q-11 7 -26 15t-33 17q-26 15 -65.5 34.5t-84.5 43t-90 49.5t-84 52q-75 49 -115.5 103t-40.5 116q0 68 65 111t195 43q57 0 116.5 -4.5t112 -11.5t86.5 -16v46q-33 6 -83.5 11.5t-109.5 9t-119 3.5q-67 0 -122.5 -11t-96 -33.5t-62.5 -58.5t-22 -85
q0 -47 19 -90t58 -83.5t98 -79.5q40 -28 86.5 -54t91.5 -50t84 -44t64 -34q17 -9 30 -17.5t26 -18.5zM263.5 111q22 62 48 123.5t52.5 114.5t49.5 93l-32 21q-23 -38 -50.5 -93t-55.5 -118t-54 -122z" />
</svg>
