<svg xmlns="http://www.w3.org/2000/svg" xmlns:xlink="http://www.w3.org/1999/xlink" version="1.1" viewBox="0 0 1000 1000">
   <path 
d="M107.5 199q28 -1 48 -2.5t35 -2.5q18 -2 63.5 -7t107 -11t132.5 -12.5t140 -12.5q57 -5 103.5 -8.5t85 -5.5t70.5 -3v41q-30 -1 -67 0t-72 5t-59 12q-60 21 -106 61t-76.5 89t-46 100.5t-15.5 95.5q0 66 22.5 114t60 81t84.5 53t97.5 29.5t97.5 10.5l-14 40
q-50 -1 -103.5 -12.5t-104 -35t-91 -61t-64.5 -89.5t-24 -120q0 -83 31 -154.5t81 -125t105 -81.5q-35 4 -88.5 9t-114 11.5t-121 13.5t-110.5 13.5t-81 12.5z" />
</svg>
