<svg xmlns="http://www.w3.org/2000/svg" xmlns:xlink="http://www.w3.org/1999/xlink" version="1.1" viewBox="0 0 1000 1000">
   <path 
d="M542 159q-9 79 -24.5 163.5t-36.5 157.5q-31 104 -66 170t-72.5 97.5t-77.5 31.5q-35 0 -71.5 -28t-61.5 -83t-25 -137q0 -78 32.5 -147.5t90 -124t133.5 -86t164 -31.5q84 0 151 27.5t115 76t74 111.5t26 135q0 105 -45.5 182.5t-129 124t-196.5 59.5l-23 -39
q20 -1 42 -3.5t37 -6.5q48 -10 97 -34t89.5 -63t65 -94.5t24.5 -128.5q0 -61 -22 -117t-64 -99t-103 -68.5t-139 -25.5q-84 0 -154 31t-121 82.5t-78.5 113.5t-27.5 123q0 73 20 119t48.5 67.5t53.5 21.5q26 0 55 -25.5t59.5 -84.5t59.5 -157q23 -72 38 -152.5t22 -157.5z
" />
</svg>
