<svg xmlns="http://www.w3.org/2000/svg" xmlns:xlink="http://www.w3.org/1999/xlink" version="1.1" viewBox="0 0 1000 1000">
   <path 
d="M922.5 825.5q-48 -55 -94.5 -91.5t-96.5 -55.5t-110 -19q-29 0 -55.5 11t-43 30.5t-16.5 45.5q0 45 36 68t86 23q58 0 92.5 -26.5t53.5 -72.5t25.5 -107t6.5 -129q0 -70 -21 -121t-56.5 -78t-81.5 -27q-37 0 -84 19t-96 50t-94 69.5t-79 76.5l3 -54q32 -30 74 -64
t89.5 -64t97.5 -49.5t96 -19.5q64 0 106 37t63 99.5t21 137.5q0 86 -10.5 152.5t-35.5 112.5t-66 69.5t-101 23.5q-42 0 -78.5 -12t-59.5 -39.5t-23 -72.5q0 -37 20.5 -65t56 -43t78.5 -15q89 0 164.5 39t158.5 126zM302.5 302.5q-8 1 -32.5 4.5t-57 7.5t-67 9t-65.5 10
l-5 -46q13 1 25 0.5t24 -1.5q17 -1 45.5 -4t61 -7t61.5 -9t47 -11l21 21q-9 14 -19.5 30.5t-20.5 33.5t-18 32l-9 95q-18 29 -44 67t-55.5 80t-59.5 84t-56 79l-27 -34q18 -23 45 -59t56.5 -77t57.5 -81t49 -72t30 -49l5 -71zM295.5 157.5v-31t-2 -31l51 2q-3 16 -7.5 58.5
t-10.5 101.5t-10.5 125t-7.5 130t-3 117v83.5t0.5 67t2.5 75.5q1 13 1.5 25t1.5 24h-46q1 -7 2 -21.5t1 -26.5v-81.5v-67v-81.5q0 -22 2 -62.5t5 -90.5t6.5 -101.5t6.5 -97t5 -77t2 -40.5z" />
</svg>
