<svg xmlns="http://www.w3.org/2000/svg" xmlns:xlink="http://www.w3.org/1999/xlink" version="1.1" viewBox="0 0 1000 1000">
   <path 
d="M779 268q0 31 21 52.5t51 21.5q31 0 53 -21.5t22 -52.5q0 -30 -22 -52.5t-53 -22.5q-30 0 -51 22.5t-21 52.5zM743 268q0 -30 15 -54.5t39.5 -39t53.5 -14.5q30 0 55 14.5t39 39t14 54.5q0 31 -14 55t-39 38.5t-55 14.5q-29 0 -53.5 -14.5t-39.5 -38.5t-15 -55zM520 333
q22 -14 43 -29.5t33 -25.5q-22 -20 -60.5 -44.5t-82 -47.5t-82.5 -40l24 -30q36 16 81 40.5t88 50.5t69 49l10 30q-8 7 -19.5 15.5t-24.5 18.5l-26 20t-26 19zM309 824q36 10 74 16t94 6q21 0 47 -8t45.5 -29.5t19.5 -60.5q0 -28 -12 -58t-33 -60.5t-45.5 -61t-48.5 -58.5
q-14 -17 -33 -36t-37 -36l29 -28q15 17 32.5 37t33.5 38q42 45 77 89.5t56.5 89t21.5 88.5q0 43 -16.5 69t-41 39.5t-50 18.5t-43.5 5q-52 0 -92.5 -5t-71.5 -11zM904 830q-11 -35 -30 -76t-42 -83.5t-49 -80.5t-53 -65l32 -20q27 31 54 70.5t51 81t43 81t31 71.5zM322 631
q-30 30 -72.5 66.5t-90.5 72t-93 61.5l-25 -34q30 -16 66 -40t72 -51.5t67 -55t52 -49.5z" />
</svg>
