<svg xmlns="http://www.w3.org/2000/svg" xmlns:xlink="http://www.w3.org/1999/xlink" version="1.1" viewBox="0 0 1000 1000">
   <path 
d="M65.5 636.5q16 -12 30.5 -25.5t32.5 -31.5q22 -22 48.5 -53.5t54.5 -67.5t54.5 -69.5t47.5 -59.5q37 -45 71.5 -50.5t79.5 43.5q27 28 59.5 67t68 80t68.5 78q22 24 52 56t64.5 67t70 70t67.5 63l-32 36q-39 -38 -82.5 -83.5t-85.5 -92t-79 -86.5q-33 -37 -68.5 -79
t-67.5 -79.5t-55 -62.5q-24 -27 -40.5 -33.5t-31.5 3.5t-34 33q-20 24 -45.5 56.5t-53.5 67.5t-54.5 67.5t-47.5 57.5q-13 17 -29 34.5t-26 30.5zM684.5 208.5q11 17 29 45t36 58.5t30 55.5l-35 17q-10 -22 -26.5 -52t-34.5 -59t-34 -49zM809.5 160.5q12 16 30.5 44t37 58.5
t30.5 54.5l-34 17q-11 -22 -28 -51t-35 -58t-34 -49z" />
</svg>
