<svg xmlns="http://www.w3.org/2000/svg" xmlns:xlink="http://www.w3.org/1999/xlink" version="1.1" viewBox="0 0 1000 1000">
   <path 
d="M639.5 216v76.5v81v70.5q0 43 2 92t4.5 97.5t4.5 89.5t2 67q0 57 -40 85.5t-108 28.5q-52 0 -92.5 -14t-63 -42t-22.5 -69q0 -29 17.5 -57t57 -46.5t105.5 -18.5q59 0 111 12.5t96 33.5t82 48.5t71 56.5l-24 39q-47 -49 -101.5 -84t-113.5 -53.5t-122 -18.5
q-62 0 -102 24t-40 63q0 45 38.5 67.5t102.5 22.5q48 0 71 -14.5t31.5 -38.5t8.5 -53q0 -20 -2 -57t-4.5 -82t-4.5 -91t-2 -85v-74v-84.5v-72.5h37zM349.5 425q87 6 174.5 5.5t168.5 -6.5t146 -14v40q-62 6 -144 11.5t-171 7t-174 -3.5v-40zM365.5 195q72 5 147.5 4.5
t146 -5.5t125.5 -12v39q-54 5 -124.5 9.5t-146.5 5t-148 -2.5v-38zM165.5 146q-2 6 -4.5 14.5t-4.5 17t-4 17.5q-6 34 -13.5 74t-14 83t-11.5 86.5t-8 85t-3 77.5q0 54 3.5 99.5t10.5 99.5q9 -26 21 -60.5t24.5 -67t21.5 -56.5l25 21q-12 28 -26.5 68t-26.5 78t-18 60
q-2 10 -3.5 22t-0.5 22q1 7 2 15.5t2 13.5l-37 4q-15 -56 -25.5 -135t-10.5 -180q0 -54 5.5 -113t14 -115.5t16.5 -105t13 -80.5q2 -15 3 -27.5t1 -22.5zM772.5 111q9 17 21.5 42.5t24 52t19.5 47.5l-35 13q-7 -22 -18.5 -48.5t-22.5 -52t-21 -44.5zM871.5 80
q10 17 21.5 42.5t23.5 52t19 46.5l-34 13q-13 -33 -30 -74.5t-33 -67.5z" />
</svg>
