<svg xmlns="http://www.w3.org/2000/svg" xmlns:xlink="http://www.w3.org/1999/xlink" version="1.1" viewBox="0 0 1000 1000">
   <path 
d="M444 98q-3 14 -4.5 27t-4.5 28q-3 33 -8.5 77t-12.5 94.5t-13 102.5t-11.5 101.5t-8.5 90.5t-3 70q0 80 45 129.5t140 49.5q81 0 143 -22t96.5 -64.5t34.5 -101.5q0 -51 -26.5 -108t-87.5 -104l47 -10q52 52 79 106t27 119q0 73 -40 123t-110 75t-161 25q-59 0 -111 -20
t-83.5 -66.5t-31.5 -126.5q0 -33 4.5 -85t12 -113.5t15.5 -125.5t14.5 -120.5t10.5 -97.5q2 -19 2 -32.5t-2 -24.5zM153 238q41 12 90.5 20.5t98.5 13t88 4.5q57 0 108.5 -2.5t100.5 -9.5l-1 40q-51 4 -99.5 6.5t-107.5 2.5q-39 0 -88.5 -4.5t-100 -12.5t-92.5 -18zM127 487
q44 15 95 24.5t102 13.5t93 4q56 0 108 -2t107 -11l-1 42q-56 6 -106.5 8t-104.5 2q-67 0 -147.5 -9t-148.5 -31z" />
</svg>
