<svg xmlns="http://www.w3.org/2000/svg" xmlns:xlink="http://www.w3.org/1999/xlink" version="1.1" viewBox="0 0 1000 1000">
   <path 
d="M558.5 278q-21 -23 -50 -49.5t-58 -45.5l29 -24q13 9 32 25.5t39.5 34t35.5 34.5zM288.5 231q5 11 10 20t10 19q14 24 34 63t41.5 83t37.5 84q19 41 36 85t32 87.5t28.5 83t23.5 71.5l-42 14q-13 -45 -29.5 -99t-36.5 -112.5t-45 -113.5q-21 -46 -41.5 -90t-38 -78.5
t-29.5 -52.5q-6 -9 -16 -23t-19 -22zM152.5 468q18 -4 32 -9t25 -9q25 -9 67 -28.5t93 -42.5t105.5 -44t105.5 -34.5t90 -13.5q62 0 100.5 20t57.5 53.5t19 74.5q0 65 -44.5 108.5t-141.5 43.5q-34 0 -67.5 -8t-54.5 -17l3 -40q21 11 53 20t67 9q59 0 91 -17.5t45 -45
t13 -54.5q0 -24 -12 -49.5t-42.5 -43.5t-86.5 -18q-41 0 -93.5 15t-110 38t-112.5 50t-101.5 49.5t-75.5 35.5z" />
</svg>
