<svg xmlns="http://www.w3.org/2000/svg" xmlns:xlink="http://www.w3.org/1999/xlink" version="1.1" viewBox="0 0 1000 1000">
   <path 
d="M954.5 780.5q-44 46 -90.5 68t-89.5 22q-44 0 -72 -26.5t-28 -79.5q0 -43 6 -94.5t13.5 -106.5t13.5 -104.5t6 -88.5q0 -48 -24 -69t-66 -21q-35 0 -78 18.5t-89 50t-90.5 73t-84.5 87.5l3 -56q19 -20 48.5 -47.5t66 -56.5t76.5 -53t79.5 -38.5t73.5 -14.5q42 0 69.5 14
t42 41.5t14.5 67.5q0 36 -6.5 87t-14.5 106.5t-14 107t-6 88.5q0 30 15 52t48 22q42 0 84 -23.5t84 -67.5zM297.5 300.5q-8 1 -32.5 4.5t-57 8t-67 9.5t-65.5 10l-5 -46q13 1 25 0.5t24 -1.5q17 -1 45.5 -4t61 -6.5t61.5 -8.5t47 -11l20 20q-9 14 -19 30.5t-20 33.5t-18 32
l-9 96q-18 29 -44 67.5t-55 80.5t-59 84t-56 79l-29 -35q18 -23 45 -58.5t56.5 -76.5t58 -81t49.5 -72t30 -49l5 -72zM290.5 157.5q0 -14 -0.5 -31t-2.5 -31l52 2q-3 16 -8 58.5t-10.5 101.5t-10 125t-7.5 130t-3 117v83.5t0.5 67t2.5 75.5q1 13 1.5 25t1.5 24h-46
q2 -12 2.5 -24t0.5 -24v-81.5v-67v-81.5q0 -22 2 -62.5t5 -90.5t6.5 -101.5t6.5 -97t5 -77t2 -40.5z" />
</svg>
