<svg xmlns="http://www.w3.org/2000/svg" xmlns:xlink="http://www.w3.org/1999/xlink" version="1.1" viewBox="0 0 1000 1000">
   <path 
d="M258 203.5q-2 5 -4 13t-4 17q-5 24 -10.5 62t-10 81.5t-6 83.5t0.5 67q24 -79 78.5 -139t125.5 -94.5t147 -34.5q81 0 134 29.5t78.5 77.5t25.5 106q0 64 -25.5 117t-80 85t-143.5 32q-48 0 -90.5 -17.5t-75.5 -50.5t-56 -78l25 -30q29 66 80 102.5t121 36.5t116 -25.5
t69.5 -70t23.5 -98.5q0 -49 -20.5 -90t-64.5 -66t-116 -25q-67 0 -123 23.5t-99 62.5t-71 87t-40 96q-3 10 -5.5 26t-1.5 32q1 11 3 25.5t5 28t5 23.5l-35 6q-10 -34 -18.5 -89t-8.5 -113q0 -35 2.5 -76t6.5 -79.5t8 -69t6 -46.5q1 -10 1 -17.5t-1 -15.5zM549 160.5
q7 27 13 72t10.5 99t4.5 112q0 93 -16.5 169t-55 132.5t-101.5 94.5l-36 -25q47 -24 80 -59t53.5 -81.5t30 -104t9.5 -127.5q0 -99 -8 -156.5t-14 -83.5q-3 -11 -6.5 -22t-6.5 -18z" />
</svg>
