<svg xmlns="http://www.w3.org/2000/svg" xmlns:xlink="http://www.w3.org/1999/xlink" version="1.1" viewBox="0 0 1000 1000">
   <path 
d="M318.5 92.5q-10 35 -18.5 80t-15 92t-11 89.5t-6.5 73.5q13 -46 40.5 -95.5t66 -91t85.5 -67.5t99 -26q64 0 111.5 41.5t74.5 116t27 175.5q0 102 -31 176t-86.5 124.5t-130 81.5t-161.5 46l-25 -37q80 -12 151 -38t125.5 -71.5t85.5 -114.5t31 -165q0 -81 -18.5 -149
t-57.5 -108.5t-101 -40.5q-49 0 -95 30.5t-84.5 79t-63 103t-32.5 103.5q-5 36 -5 66.5t6 70.5l-42 3q-3 -28 -6 -66.5t-3 -85.5q0 -36 4 -82t9 -93t11 -87t9 -64q4 -18 5.5 -34t2.5 -37z" />
</svg>
