<svg xmlns="http://www.w3.org/2000/svg" xmlns:xlink="http://www.w3.org/1999/xlink" version="1.1" viewBox="0 0 1000 1000">
   <path 
d="M528.5 97q-1 7 -2.5 23t-2.5 33t-1 29q-1 33 -0.5 87.5t0.5 112.5q0 40 2 92.5t4 107.5t4 104t2 83q0 28 -10 52.5t-30 42.5t-49.5 28.5t-69.5 10.5q-67 0 -117.5 -14.5t-78 -45t-27.5 -78.5q0 -40 24 -73t76 -53t134 -20q71 0 137.5 16.5t126 43.5t109.5 60.5t88 68.5
l-25 40q-37 -38 -86 -72.5t-106.5 -61.5t-120 -42t-126.5 -15q-93 0 -142.5 29.5t-49.5 77.5q0 45 45.5 73t132.5 28q61 0 93.5 -28t32.5 -82q0 -28 -2 -74.5t-4 -100.5t-4 -106t-2 -92v-66.5v-75.5v-58q0 -13 -1 -30t-2 -33t-4 -22h52zM496.5 306q28 0 69 -0.5t87.5 -3
t93 -6.5t85.5 -9l1 40q-39 4 -85 7.5t-92.5 6t-88 4t-70.5 1.5v-40z" />
</svg>
