<svg xmlns="http://www.w3.org/2000/svg" xmlns:xlink="http://www.w3.org/1999/xlink" version="1.1" viewBox="0 0 1000 1000">
   <path 
d="M321 103.08q29 9 79 21t105.5 24t107 20.5t84.5 11.5l-10 39q-27 -4 -66 -10.5t-84 -15t-88.5 -17.5t-79.5 -17.5t-60 -14.5zM276 270.08q-5 29 -10.5 72.5t-11.5 90t-12 88t-11 67.5q76 -74 164 -109t187 -35q68 0 121.5 24.5t85 68.5t31.5 101q0 66 -32 117.5t-95 85.5
t-158 48t-222 3l-12 -42q165 17 270.5 -7.5t157 -79.5t51.5 -127q0 -45 -26 -80.5t-71 -55.5t-101 -20q-109 0 -194 39t-142 108q-9 11 -15 22.5t-9 21.5l-42 -10q6 -26 12.5 -65.5t12.5 -85.5t11.5 -92t9.5 -86.5t6 -66.5z" />
</svg>
