<svg xmlns="http://www.w3.org/2000/svg" xmlns:xlink="http://www.w3.org/1999/xlink" version="1.1" viewBox="0 0 1000 1000">
   <path 
d="M227 130q11 1 28 2t31 0q19 -1 56.5 -2t79 -3t70.5 -4q16 -2 27.5 -5t20.5 -7l35 23q-5 6 -10 15t-8 18q-11 38 -29 100t-41.5 135.5t-51.5 148.5q-20 56 -41.5 104t-43.5 83.5t-43 57.5q-21 24 -44 33.5t-53 9.5q-24 0 -45.5 -12t-34.5 -37.5t-13 -64.5q0 -59 24 -118
t67 -112t101 -94t127.5 -64.5t145.5 -23.5q96 0 163 40t102.5 106.5t35.5 147.5q0 53 -16 103.5t-50.5 91t-90 64t-134.5 23.5q-50 0 -86.5 -15t-55.5 -41.5t-19 -61.5q0 -33 17.5 -58t47 -38t63.5 -13q58 0 96 25t60.5 62t32.5 75l-34 20q-16 -64 -53.5 -106t-99.5 -42
q-39 0 -65.5 20.5t-26.5 52.5q0 40 35.5 62t85.5 22q79 0 136 -30.5t87 -86t30 -127.5q0 -70 -30 -129t-89 -95t-145 -36q-74 0 -138 23.5t-116.5 62.5t-91 87.5t-59.5 100t-21 97.5q0 38 18.5 58t39.5 20q17 0 34 -5.5t35 -23.5q18 -19 34.5 -45t32 -57.5t29.5 -65.5
t27 -67q24 -68 47.5 -139t42 -134t27.5 -105q-22 1 -57.5 3.5t-77.5 5t-82.5 5.5t-73.5 7z" />
</svg>
