<svg xmlns="http://www.w3.org/2000/svg" xmlns:xlink="http://www.w3.org/1999/xlink" version="1.1" viewBox="0 0 1000 1000">
   <path 
d="M640.5 108q-2 18 -3.5 34.5t-1.5 34.5q0 17 0.5 59t1.5 101t1.5 125.5t1.5 134t1.5 127.5t1.5 104q0 33 -19.5 48.5t-55.5 15.5q-32 0 -74 -2t-76 -4l-2 -45q37 7 76.5 10t70.5 3q23 0 31 -10t8 -29q0 -37 -0.5 -93t-1 -122.5l-1 -133t-1.5 -126.5t-1.5 -103t-1.5 -60
q-1 -26 -3 -41.5t-4 -27.5h52zM130.5 289q23 3 40 4t38 1h43h85.5h112h121h113.5h89.5h47.5q16 0 37 -1.5t34 -3.5v47q-13 -1 -33.5 -2t-37.5 -1h-47h-89h-113.5h-121.5h-112.5h-85.5h-43q-23 0 -39.5 0.5t-38.5 2.5v-47zM108.5 749q79 -39 154 -92.5t138.5 -112t112 -115
t76.5 -103.5l20 -1l1 36q-27 45 -74.5 100t-110.5 114t-136.5 113t-150.5 95z" />
</svg>
