<svg xmlns="http://www.w3.org/2000/svg" xmlns:xlink="http://www.w3.org/1999/xlink" version="1.1" viewBox="0 0 1000 1000">
   <path 
d="M610.5 175q-3 13 -3.5 26.5t-0.5 28.5q0 13 1 48.5t1.5 86t1 107l1 113t1.5 105t1 82.5q0 26 -16.5 39.5t-41.5 13.5q-15 0 -41 -1t-51.5 -2.5t-43.5 -2.5l-2 -41q31 5 67.5 7.5t60.5 2.5q14 0 21 -8t7 -20q0 -31 -0.5 -78t-1 -102t-1.5 -111t-1.5 -105.5t-1 -85
t-1.5 -48.5q0 -12 -1.5 -26.5t-4.5 -28.5h50zM184.5 324q17 3 31 3.5t30 0.5h36.5h74h96.5h105h98.5h77h40.5q12 0 29.5 -1t25.5 -3v45q-9 -1 -25.5 -2t-29.5 -1h-40.5h-77h-97.5h-105h-97.5h-74h-35.5q-19 0 -32.5 0.5t-29.5 2.5v-45zM171.5 702q60 -30 119.5 -72t113 -90
t94 -95t64.5 -89h21l1 32q-21 38 -60 84t-91 93.5t-111.5 91.5t-120.5 77z" />
</svg>
