<svg xmlns="http://www.w3.org/2000/svg" xmlns:xlink="http://www.w3.org/1999/xlink" version="1.1" viewBox="0 0 1000 1000">
   <path 
d="M501.5 106.5q-1 16 -2 36t-2 38q-5 157 -29.5 271t-66.5 196.5t-97.5 141t-121.5 104.5l-38 -32q18 -8 40 -24t39 -30q45 -38 86 -90.5t74 -126t52.5 -174t20.5 -234.5q0 -12 -0.5 -25t-1.5 -26.5t-3 -24.5h50zM855.5 308.5q-2 13 -3 24l-2 22q-1 26 -3 73.5t-6.5 105.5
t-11.5 116t-17 106.5t-24 75.5q-14 28 -35 38.5t-55 10.5q-33 0 -74 -2l-82 -4l-5 -43q43 4 82.5 6.5t72.5 2.5q20 0 35.5 -6t24.5 -24q13 -26 23 -72t16.5 -102.5t10.5 -113.5t5.5 -106.5t1.5 -81.5h-558q-33 0 -56 0.5t-46 2.5v-47q22 2 47 3.5t54 1.5h519q21 0 33 -1
t20 -3z" />
</svg>
