<svg xmlns="http://www.w3.org/2000/svg" xmlns:xlink="http://www.w3.org/1999/xlink" version="1.1" viewBox="0 0 1000 1000">
   <path 
d="M728.5 92q13 17 28 41t30 49t26 47l-34 16q-14 -30 -38 -70t-44 -68zM831.5 56q14 18 30 42.5t31 49t25 44.5l-33 16q-17 -34 -40 -71.5t-45 -65.5zM377.5 211q-3 -18 -7 -33.5t-9 -29.5l47 -9q1 13 4 30t6 32q1 6 8 42t17.5 91.5t24 121l27 131t25 122t19.5 94.5t9 45
q5 21 11.5 44t13.5 42l-50 10q-4 -23 -7.5 -44.5t-8.5 -43.5q-1 -8 -8.5 -46t-18.5 -94t-24.5 -122t-26.5 -130.5t-24.5 -119.5t-18.5 -91t-9 -42zM88.5 368q15 -1 33.5 -2.5t42.5 -3.5q24 -3 65 -8.5t93 -13.5t107.5 -17t107.5 -18t94.5 -16t67.5 -12q20 -4 33 -7t21 -6
l10 47q-7 1 -22.5 3t-32.5 5q-25 4 -68 11t-95 15.5t-107.5 17t-107.5 17t-94 15t-66 10.5q-18 3 -35 6.5t-37 7.5zM82.5 653q16 -1 37.5 -3t38.5 -4q27 -3 73 -10t104 -16.5t120.5 -19.5t121.5 -20.5t108.5 -19t80.5 -13.5q29 -5 46.5 -9t29.5 -8l9 46q-11 1 -30.5 4
t-47.5 8q-34 5 -84.5 13.5t-109.5 18t-119.5 19t-116.5 19t-101 16.5t-71 12t-44.5 9t-34.5 9z" />
</svg>
