<svg xmlns="http://www.w3.org/2000/svg" xmlns:xlink="http://www.w3.org/1999/xlink" version="1.1" viewBox="0 0 1000 1000">
   <path 
d="M410 169.5q-3 -18 -7 -33.5t-9 -29.5l48 -9q1 13 4 30t5 32q1 6 8 42t18 91.5t24 121t26.5 131t25 122t19.5 94.5t10 45q5 21 11 44t13 42l-50 10q-4 -23 -7.5 -44.5t-8.5 -43.5q-1 -8 -8.5 -46t-18.5 -94t-24.5 -122t-26 -130.5t-24 -119.5t-18.5 -91t-10 -42z
M121 326.5q15 -1 33.5 -2.5t42.5 -3.5q24 -3 65.5 -8.5t93.5 -13.5t107.5 -17t107.5 -18t94 -16t67 -12q20 -4 33 -7t22 -6l9 47q-7 1 -22 3t-33 5q-25 4 -67.5 10.5t-95 15t-108 17.5t-107.5 17t-93.5 15t-66.5 11q-18 3 -35 6.5t-37 7.5zM115 611.5q16 -1 37.5 -3t38.5 -4
q27 -3 73 -10t104.5 -16.5t120.5 -19.5t121.5 -20.5t108.5 -19t80 -13.5q29 -5 46.5 -9t30.5 -8l9 46q-12 1 -31 4t-47 8q-35 5 -85.5 13.5t-109 18t-119.5 19t-117 19t-101 16.5t-71 12q-26 4 -44.5 8.5t-34.5 9.5z" />
</svg>
