<svg xmlns="http://www.w3.org/2000/svg" xmlns:xlink="http://www.w3.org/1999/xlink" version="1.1" viewBox="0 0 1000 1000">
   <path 
d="M745.5 99q13 17 28 41t30 49t25 47l-33 16q-14 -30 -38 -70t-44 -68zM848.5 63q14 18 29.5 42.5l31 49t25.5 44.5l-33 16q-17 -34 -40 -71.5t-45 -65.5zM793.5 281q-5 8 -9 20.5t-6 18.5q-13 55 -39 116.5t-61.5 122.5t-79.5 114q-65 80 -159.5 147t-234.5 117l-36 -34
q84 -24 156 -62t133 -86.5t107 -104.5q44 -52 78 -112t59 -120t37 -112h-397l21 -39h46.5h82h92.5h80.5h43.5q17 0 28.5 -1.5t19.5 -5.5zM451.5 136q-9 14 -17 30.5t-14 29.5q-26 51 -67.5 113t-103 126t-148.5 121l-36 -27q64 -37 116 -83t91.5 -94.5t67 -93.5t42.5 -79
q4 -9 10.5 -27t8.5 -33z" />
</svg>
