<svg xmlns="http://www.w3.org/2000/svg" xmlns:xlink="http://www.w3.org/1999/xlink" version="1.1" viewBox="0 0 1000 1000">
   <path 
d="M747.5 108.5q13 17 28 41t30 49t26 47l-34 16q-14 -30 -38 -70t-44 -68zM850.5 72.5q14 18 30 42.5t31.5 49t24.5 44.5l-33 16q-17 -34 -40 -71.5t-44 -65.5zM361.5 136.5q-5 15 -10 30.5t-10 30.5q-6 20 -14.5 44t-19.5 50.5t-26 56.5q-19 38 -49 82.5t-63.5 84
t-63.5 62.5l-42 -25q27 -19 54.5 -47t51.5 -60t43.5 -62.5t31.5 -52.5q21 -40 34.5 -76.5t21.5 -65.5q4 -15 6.5 -30t3.5 -32zM261.5 320.5h43h79h100h106h98h75h38q18 0 41.5 -0.5t43.5 -3.5v46q-20 -1 -44 -1.5t-41 -0.5h-48h-96h-121h-123.5h-102.5h-58zM609.5 339.5
q-4 119 -27.5 211t-63.5 162t-93 122t-116 93l-45 -32q17 -5 35.5 -16t35.5 -24q35 -25 74.5 -66.5t74.5 -103t58 -147t26 -200.5z" />
</svg>
