<svg xmlns="http://www.w3.org/2000/svg" xmlns:xlink="http://www.w3.org/1999/xlink" version="1.1" viewBox="0 0 1000 1000">
   <path 
d="M781.5 113q9 16 21 41.5t23.5 52t19.5 46.5l-34 13q-7 -21 -18 -47.5t-22.5 -52t-21.5 -43.5zM878.5 84q10 17 22 41.5t23.5 50t19.5 47.5l-35 12q-13 -33 -30 -74t-33 -67zM679.5 410q0 106 -12 184.5t-42.5 137t-83.5 103t-135 81.5l-35 -34q65 -26 114.5 -59.5t84 -84
t52 -128t17.5 -192.5v-225q0 -29 -2 -50.5t-2 -22.5h48q0 1 -2 22.5t-2 50.5v217zM320.5 124q0 2 -1.5 18.5t-1.5 39.5v374q0 15 1 33.5t1.5 31.5t0.5 14h-48q0 -1 1 -14t2 -31t1 -34v-373q0 -12 -0.5 -29t-2.5 -30h47zM56.5 329q1 1 16.5 2t37.5 2t40 1h668q28 0 51 -2
t25 -2v47q-1 -1 -24.5 -2t-51.5 -1h-668q-19 0 -40 0.5t-36.5 1.5t-17.5 1v-48z" />
</svg>
