<svg xmlns="http://www.w3.org/2000/svg" xmlns:xlink="http://www.w3.org/1999/xlink" version="1.1" viewBox="0 0 1000 1000">
   <path 
d="M421 434.5q49 29 100.5 62t101.5 68.5t96.5 70t85.5 67.5l-30 34q-36 -32 -81.5 -68t-96.5 -72t-103 -70.5t-100 -64.5zM867 241.5q-4 8 -8 20.5t-7 18.5q-14 55 -40 116.5t-61.5 122.5t-79.5 114q-65 80 -166 153.5t-242 124.5l-36 -32q84 -25 160 -67t140 -94t111 -108
q43 -52 77.5 -112t59.5 -120t38 -112h-396l20 -39h345q17 0 28.5 -1.5t19.5 -5.5zM526 105.5q-8 14 -16.5 30.5t-15.5 28.5q-27 50 -70.5 114t-106.5 130.5t-149 126.5l-35 -27q85 -53 149.5 -119.5t108.5 -130.5t65 -111q5 -9 12 -26.5t10 -32.5z" />
</svg>
