<svg xmlns="http://www.w3.org/2000/svg" xmlns:xlink="http://www.w3.org/1999/xlink" version="1.1" viewBox="0 0 1000 1000">
   <path 
d="M235.5 906q104 -44 180.5 -103t130 -124.5t87.5 -132.5t53 -128.5t29 -109.5q2 -8 4.5 -24.5t2.5 -26.5l49 10q-4 11 -7.5 25.5t-5.5 20.5q-18 77 -49.5 162.5t-86 169.5t-139.5 160t-210 133zM139.5 230q16 22 38.5 59t47 78.5t45.5 78t34 60.5l-39 22
q-13 -29 -35 -68.5t-47 -80.5t-46.5 -76t-35.5 -54zM694.5 88q12 15 27 39t30 48.5t26 44.5l-34 16q-10 -20 -24 -45t-29.5 -49t-27.5 -40zM814.5 62q12 16 27 39t30.5 47.5t26.5 44.5l-34 16q-17 -31 -40 -69.5t-43 -63.5z" />
</svg>
