<svg xmlns="http://www.w3.org/2000/svg" xmlns:xlink="http://www.w3.org/1999/xlink" version="1.1" viewBox="0 0 1000 1000">
   <path 
d="M456.5 189q7 14 17.5 43.5t22.5 62.5t22 62.5t14 44.5l-38 15q-3 -16 -12.5 -45.5t-21.5 -63t-23.5 -62t-18.5 -43.5zM813.5 233q-3 8 -5.5 16t-4.5 14q-20 87 -54.5 168.5t-90.5 151.5q-69 85 -154 141t-165 87l-35 -35q60 -19 118 -50t109.5 -73t92.5 -92
q36 -45 66 -99.5t50 -116t30 -126.5zM223.5 238q7 13 18.5 42.5t25.5 64t26.5 66.5t19.5 50l-39 15q-6 -19 -18 -51.5t-25.5 -68t-26 -63.5t-18.5 -39z" />
</svg>
