<svg xmlns="http://www.w3.org/2000/svg" xmlns:xlink="http://www.w3.org/1999/xlink" version="1.1" viewBox="0 0 1000 1000">
   <path 
d="M176.5 183q37 2 95 1t121 -5.5t116 -10.5q31 -4 69 -10t75.5 -14t68.5 -16t49 -15l29 37q-9 2 -19 5l-20 6q-28 6 -68 15t-86 17t-87 13q-56 7 -115 11t-115.5 5.5t-101.5 2.5zM243.5 858q82 -39 138.5 -94.5t86 -135t29.5 -190.5v-33v-88v-122l40 -7v53v66v64v48.5v18.5
q0 111 -26 193t-82.5 144t-146.5 112zM96.5 420q14 1 38 2.5t46 1.5h53h94.5h118.5h126h117.5h92.5h50q11 0 23.5 -0.5t24.5 -1t23 -1.5v45q-14 -2 -33 -2.5t-37 -0.5h-50h-92.5h-117.5h-126h-118.5h-94h-52.5q-25 0 -47 0.5t-39 2.5v-46z" />
</svg>
