<svg xmlns="http://www.w3.org/2000/svg" xmlns:xlink="http://www.w3.org/1999/xlink" version="1.1" viewBox="0 0 1000 1000">
   <path 
d="M556.5 158q12 16 29 42t33.5 54.5t28.5 53.5l-34 17q-10 -23 -25.5 -50.5t-32 -54.5t-32.5 -47zM668.5 111q13 16 30 42t34.5 54.5t29.5 52.5l-33 17q-11 -22 -27 -49.5t-33 -54.5t-32 -46zM243.5 788v-51v-100.5v-126v-129.5v-111v-69q0 -17 -1.5 -44t-4.5 -47h52
q-2 19 -4 47t-2 44v108v123.5t0.5 124t0.5 110v82v39.5q0 16 0.5 35t1.5 36t2 31h-49q2 -20 3 -48t1 -54zM275.5 375q49 15 107 35.5t118.5 44t116.5 47.5t101 47l-18 42q-43 -24 -99 -49t-115.5 -49t-114.5 -42.5t-96 -31.5v-44z" />
</svg>
