<svg xmlns="http://www.w3.org/2000/svg" xmlns:xlink="http://www.w3.org/1999/xlink" version="1.1" viewBox="0 0 1000 1000">
   <path 
d="M183.5 187.5q19 1 36.5 2.5t40.5 1.5h52.5h82.5h92h82h52q18 0 40.5 -1t41.5 -3v47q-19 -2 -41.5 -3t-40.5 -1h-52h-82h-91.5h-82h-51.5q-24 0 -43 1t-36 3v-47zM61.5 435.5q20 1 38.5 2t41.5 1h50.5h94h120h129h120h93h47.5q16 0 34 -1t34 -2v45q-14 -1 -32.5 -1.5
t-35.5 -0.5h-47.5h-93h-120h-129h-120h-94h-50.5h-41t-39 2v-45zM500.5 452.5q0 91 -11 170.5t-45 142.5q-19 32 -49 64t-67 60.5t-78 49.5l-39 -30q62 -27 113.5 -69t80.5 -92q38 -62 46 -136.5t9 -159.5h40zM749.5 96.5q13 17 28 41t30 49t25 47l-33 16q-14 -30 -38 -70
t-44 -68zM852.5 60.5q14 18 29.5 42.5l31 49t25.5 44.5l-33 16q-17 -34 -40 -71.5t-45 -65.5z" />
</svg>
