<svg xmlns="http://www.w3.org/2000/svg" xmlns:xlink="http://www.w3.org/1999/xlink" version="1.1" viewBox="0 0 1000 1000">
   <path 
d="M752 216.5q0 31 21 52t51 21t51.5 -21t21.5 -52q0 -30 -21.5 -51.5t-51.5 -21.5t-51 21.5t-21 51.5zM719 216.5q0 -29 14 -53.5t38 -38.5t53 -14q30 0 54 14t38.5 38.5t14.5 53.5q0 30 -14.5 54t-38.5 38t-54 14q-29 0 -53 -14t-38 -38t-14 -54zM222 604.5q16 -37 32 -83
t29.5 -96t24 -97.5t15.5 -87.5l45 8q-3 9 -5 17t-4.5 16.5t-5.5 18.5q-5 21 -13.5 58.5t-20.5 83t-27.5 92.5t-32.5 89q-19 43 -42.5 88.5t-50 90t-55.5 87.5l-42 -18q48 -64 88 -136t65 -131zM714 551.5q-16 -38 -34 -79.5t-37.5 -83.5t-38 -79t-35.5 -64l40 -14
q14 25 31.5 60.5t37 76t38.5 84.5t37 86q17 39 34 85l34 92t31 87.5t24 72.5l-42 13q-11 -44 -31.5 -102.5t-43.5 -120t-45 -114.5z" />
</svg>
