<svg xmlns="http://www.w3.org/2000/svg" xmlns:xlink="http://www.w3.org/1999/xlink" version="1.1" viewBox="0 0 1000 1000">
   <path 
d="M813 167q-6 9 -11 20.5t-10 25.5q-16 62 -44.5 128.5t-62.5 125t-69 101.5q-54 68 -121 123.5t-139 97t-144 67.5l-37 -36q78 -22 152.5 -64t140 -97t115.5 -115q40 -50 74 -109t59.5 -122.5t38.5 -123.5h-49.5h-81.5h-97h-96h-79.5h-45.5q-17 0 -32 0.5t-29.5 1
t-27.5 1.5v-47q20 1 42 3t47 2h45.5h79.5h96.5h95.5h78h43q13 0 22.5 -1.5t17.5 -4.5zM301 356q70 37 143.5 84t143 97.5t131 99.5t106.5 89l-30 35q-37 -34 -82.5 -73t-98 -79.5t-109 -80.5t-115 -76t-115.5 -66z" />
</svg>
