<svg xmlns="http://www.w3.org/2000/svg" xmlns:xlink="http://www.w3.org/1999/xlink" version="1.1" viewBox="0 0 1000 1000">
   <path 
d="M680.5 207.5q0 31 21 52t51 21q31 0 52.5 -21t21.5 -52q0 -30 -21.5 -51.5t-52.5 -21.5q-30 0 -51 21.5t-21 51.5zM647.5 207.5q0 -29 14 -53.5t38 -38.5t53 -14q30 0 54 14t38.5 38.5t14.5 53.5q0 30 -14.5 54t-38.5 38t-54 14q-29 0 -53 -14t-38 -38t-14 -54z
M191.5 158.5q-2 14 -3.5 28t-1.5 34v51.5v95.5v118.5v120v100.5v61q0 43 18 59t56 24q25 4 66 7t80 3q40 0 85.5 -1.5t91.5 -5t87.5 -10t72.5 -14.5v49q-40 6 -99 10.5t-122 7t-117 2.5q-41 0 -82 -1.5t-72 -6.5q-51 -9 -78 -33t-27 -82v-65.5v-103.5v-121.5v-118v-95v-51.5
t-0.5 -22.5t-1.5 -21t-4 -18.5h51zM167.5 480.5q42 -9 96.5 -23.5t113 -32t115 -38t102.5 -40.5q20 -9 38.5 -19t32.5 -20l21 44q-15 6 -36 15t-41 17q-49 21 -107.5 41.5t-119.5 39t-116.5 34.5t-98.5 27v-45z" />
</svg>
