<svg xmlns="http://www.w3.org/2000/svg" xmlns:xlink="http://www.w3.org/1999/xlink" version="1.1" viewBox="0 0 1000 1000">
   <path 
d="M741.5 172q0 30 20.5 50.5t50.5 20.5t51 -20.5t21 -50.5t-21 -51t-51 -21t-50.5 21t-20.5 51zM708.5 172q0 -30 14 -53.5t38 -37.5t52 -14q30 0 53.5 14t38 37.5t14.5 53.5q0 28 -14.5 52t-38 38t-53.5 14q-28 0 -52 -14t-38 -38t-14 -52zM517.5 146q-1 7 -1.5 17.5
t-1.5 21t-1 20.5v56v64v52v59.5v89.5v102.5v100.5v84v52q0 36 -15.5 52t-54.5 16q-17 0 -40.5 -1t-46.5 -2.5t-40 -2.5l-3 -44q34 6 66.5 9t53.5 3q20 0 30 -10.5t10 -30.5v-55v-87.5v-103v-102v-83v-46.5v-49v-66.5v-57.5q0 -14 -2 -31t-4 -27h50zM100.5 321q20 2 35.5 3.5
t39.5 1.5h49.5h91h115h122.5h114h89h47q15 0 33 -1t35 -4v45q-16 -1 -33.5 -1h-33.5h-47h-89h-114h-122h-115h-91.5h-49.5q-23 0 -40 0.5t-36 2.5v-47zM310.5 529q-15 31 -38.5 68t-51 75t-54 71t-48.5 57l-37 -26q25 -22 52.5 -55t54.5 -70t49.5 -73t36.5 -65zM718.5 514
q21 24 45 57t48.5 70t45.5 71.5t36 61.5l-39 22q-13 -27 -33.5 -62.5t-44.5 -72.5t-48 -71t-45 -57z" />
</svg>
