<svg xmlns="http://www.w3.org/2000/svg" xmlns:xlink="http://www.w3.org/1999/xlink" version="1.1" viewBox="0 0 1000 1000">
   <path 
d="M531 106.5q-1 7 -2 17.5t-1.5 21t-0.5 20.5v56v64v52v59.5v89.5v102.5v101v84.5v51q0 36 -15.5 52t-55.5 16q-16 0 -39.5 -1t-46.5 -2.5t-40 -2.5l-3 -44q34 6 66 9t53 3t30.5 -10.5t9.5 -30.5q0 -17 0.5 -55t0.5 -87.5v-103v-102v-83v-46.5v-49v-66v-57
q0 -14 -2.5 -31.5t-4.5 -27.5h51zM113 282.5q20 2 36 3t40 1h49h91h115h122.5h114.5h89h46q15 0 33.5 -1t35.5 -3v45q-17 -1 -34 -1.5t-34 -0.5h-46h-89h-114.5h-122.5h-114.5h-91h-49.5q-23 0 -40.5 0.5t-36.5 2.5v-46zM323 489.5q-15 31 -38 68.5t-50.5 75t-54.5 70.5
t-49 57l-37 -26q25 -22 53 -54.5t54.5 -70t49 -73.5t36.5 -65zM732 474.5q21 24 44.5 57t48 70t45.5 72t36 62l-39 21q-13 -27 -33.5 -62.5t-44.5 -72.5t-48 -70.5t-45 -57.5z" />
</svg>
