<svg xmlns="http://www.w3.org/2000/svg" xmlns:xlink="http://www.w3.org/1999/xlink" version="1.1" viewBox="0 0 1000 1000">
   <path 
d="M734.5 110.5q19 26 43 65t40 72l-33 16q-15 -30 -39 -70t-44 -68zM842.5 82.5q14 18 30 42.5t31 49t25 44.5l-33 16q-17 -34 -39.5 -71.5t-44.5 -65.5zM507.5 130.5q-1 7 -1.5 17.5t-1.5 21t-1 20.5v56v64v52v59.5v89.5v102.5v100.5v84v52q0 36 -15.5 52t-54.5 16
q-17 0 -40.5 -1t-46.5 -2.5t-40 -2.5l-3 -44q34 6 66.5 9t53.5 3q20 0 30 -10.5t10 -30.5v-55v-87.5v-103v-102v-83v-46.5v-49v-66.5v-57.5q0 -14 -2 -31t-4 -27h50zM90.5 305.5q20 2 35.5 3.5t39.5 1.5h49.5h91h115h122.5h114h89h47q15 0 33 -1t35 -4v45q-16 -1 -33.5 -1
h-33.5h-47h-89h-114h-122h-115h-91.5h-49.5q-23 0 -40 0.5t-36 2.5v-47zM300.5 513.5q-15 31 -38.5 68t-51 75t-54 71t-48.5 57l-37 -26q25 -22 52.5 -55t54.5 -70t49.5 -73t36.5 -65zM708.5 498.5q21 24 45 57t48.5 70t45.5 71.5t36 61.5l-39 22q-13 -27 -33.5 -62.5
t-44.5 -72.5t-48 -71t-45 -57z" />
</svg>
