<svg xmlns="http://www.w3.org/2000/svg" xmlns:xlink="http://www.w3.org/1999/xlink" version="1.1" viewBox="0 0 1000 1000">
   <path 
d="M71 573.556q18 -15 31.5 -28t29.5 -30q19 -19 44.5 -49t53.5 -64.5t55.5 -68t48.5 -58.5q36 -43 69 -48.5t78 38.5q28 25 65 63.5t75 77.5t66 69q34 35 75.5 80.5t85 92.5t81.5 89l-35 36q-37 -45 -78.5 -91.5t-81.5 -91.5t-75 -83q-21 -23 -48 -52t-55.5 -58.5
t-53.5 -55t-43 -42.5q-33 -31 -51.5 -28.5t-48.5 37.5q-20 24 -46 56t-54 66t-53.5 65t-43.5 51q-14 16 -28 34.5t-25 30.5z" />
</svg>
