<svg xmlns="http://www.w3.org/2000/svg" xmlns:xlink="http://www.w3.org/1999/xlink" version="1.1" viewBox="0 0 1000 1000">
   <path 
d="M699 92q11 15 26.5 39t30 48.5t25.5 44.5l-34 16q-10 -20 -24 -45t-29.5 -49t-27.5 -40zM819 67q12 15 27 38t30.5 47.5t26.5 45.5l-34 15q-17 -31 -40 -69.5t-43 -62.5zM778 265q-3 8 -5 14.5t-4 20.5q-7 42 -20.5 91.5t-32.5 100.5t-43 98t-52 82q-46 58 -100 106.5
t-123.5 87t-163.5 67.5l-35 -39q95 -26 165.5 -62t125 -82t97.5 -102q38 -48 66.5 -112.5t48 -130t26.5 -117.5h-56h-100h-121.5h-121h-97.5h-51q-26 0 -45.5 0.5t-38.5 1.5v-46q13 1 26 2.5t28 2t31 0.5h39.5h77h98.5h105.5h97.5h75.5h38.5t16 -0.5t18 -3.5z" />
</svg>
