<svg xmlns="http://www.w3.org/2000/svg" xmlns:xlink="http://www.w3.org/1999/xlink" version="1.1" viewBox="0 0 1000 1000">
   <path 
d="M680.5 214q11 15 29 43.5t36 58.5t30 55l-35 17q-10 -22 -26.5 -51.5t-34 -58.5t-32.5 -49zM804.5 166q12 16 30 43.5t37 58t31 54.5l-34 17q-11 -22 -28 -51.5t-35 -58t-33 -47.5zM70.5 634q18 -15 31.5 -28.5t30.5 -29.5q19 -19 44 -49t53 -64.5t55.5 -68t49.5 -59.5
q36 -42 68.5 -47.5t77.5 37.5q28 26 65.5 64.5t75 77.5t65.5 69q34 35 75.5 80t85.5 92t82 89l-36 37q-37 -45 -78.5 -92t-81.5 -91.5t-74 -82.5q-21 -23 -48.5 -52t-56 -58.5t-53.5 -55.5t-42 -42q-33 -32 -52 -29t-48 37q-21 25 -47 56.5t-54 66t-53 65t-44 51.5
q-13 16 -27.5 34.5t-24.5 29.5z" />
</svg>
