<svg xmlns="http://www.w3.org/2000/svg" xmlns:xlink="http://www.w3.org/1999/xlink" version="1.1" viewBox="0 0 1000 1000">
   <path 
d="M364 163q2 9 5.5 23t7.5 33q3 13 14 54.5t27 98.5t33.5 119.5t33.5 120t28 99t17 56.5q3 9 6 19.5t6 19.5t6 17l-46 14q-1 -15 -3.5 -30t-8.5 -31q-4 -15 -16 -57.5t-28 -100.5t-33.5 -120.5t-33 -119.5t-27 -98t-15.5 -53q-5 -18 -10 -31t-10 -20zM844 287
q-15 31 -41 69t-56.5 77t-61 72.5t-55.5 57.5l-38 -20q36 -30 72 -70t68 -81.5t51 -75.5q-8 1 -42.5 8t-85.5 17t-111 22t-120.5 23.5t-114 22t-91 18t-51.5 10.5l-11 -42q20 -2 38 -4.5t38 -6.5q10 -2 42.5 -7.5t80 -14.5t102 -19t109 -20.5t102 -20l80 -16t41.5 -8.5
q7 -2 15 -4t14 -6z" />
</svg>
