<svg xmlns="http://www.w3.org/2000/svg" xmlns:xlink="http://www.w3.org/1999/xlink" version="1.1" viewBox="0 0 1000 1000">
   <path 
d="M335 98q1 13 5 29t10 38q11 39 27.5 98.5t35 127.5t38 137.5t36.5 130.5t29 104.5t18 60.5q3 10 6 21.5t7.5 22.5t7.5 22l-49 12q-2 -15 -5.5 -33t-8.5 -34q-5 -15 -15.5 -55.5t-26 -98t-33.5 -122.5t-35.5 -128.5t-32.5 -118t-25.5 -91.5t-13.5 -46q-7 -23 -13 -38.5
t-11 -25.5zM910 246q-18 37 -48 81.5t-66.5 90t-73 85.5t-66.5 68l-43 -21q33 -26 68 -62t68 -75.5t59 -76t42 -62.5q-11 2 -52 10t-103.5 20t-135 26.5t-146.5 29t-138.5 27t-110 22t-62.5 13.5l-12 -46q23 -2 44 -4.5t45 -6.5q12 -2 51.5 -9.5t96.5 -18.5t123.5 -23
t132 -24.5t122.5 -23.5t96 -19t49 -10q7 -2 16 -4.5t16 -5.5z" />
</svg>
