<svg xmlns="http://www.w3.org/2000/svg" xmlns:xlink="http://www.w3.org/1999/xlink" version="1.1" viewBox="0 0 1000 1000">
   <path 
d="M763 226.5q-3 4 -4 10l-2 12q-3 30 -10 82.5t-16 115t-18.5 124.5t-17.5 111.5t-12 75.5h-43q4 -21 10.5 -61t14.5 -90t16 -103.5t14.5 -103t10.5 -87.5t5 -57h-78h-105.5h-110h-91.5h-48q-25 0 -42.5 0.5t-38.5 2.5v-48q20 2 38 3.5t42 1.5h37h68h85h88.5h78.5h55
q7 0 14.5 -1t13 -2t9.5 -2zM82 741.5q21 2 40.5 3.5t39.5 1.5h681q20 0 38 -2t37 -3v48q-19 -2 -40.5 -2.5t-34.5 -0.5h-681q-20 0 -39 0.5t-41 2.5v-48z" />
</svg>
