<svg xmlns="http://www.w3.org/2000/svg" xmlns:xlink="http://www.w3.org/1999/xlink" version="1.1" viewBox="0 0 1000 1000">
   <path 
d="M716.5 284.5q-1 4 -2.5 10.5t-1.5 11.5q-2 24 -7.5 65t-12.5 90t-14 97t-13 87.5t-10 59.5h-42q3 -14 9 -52t14 -88t14.5 -101t11.5 -92.5t5 -60.5h-61.5h-86.5h-91h-75.5h-39.5q-20 0 -34.5 1t-30.5 2v-46q11 1 21 2t20.5 1.5t22.5 0.5h40h74.5h88.5h82.5h55.5
q7 0 13 -0.5t10.5 -1.5t6.5 -2zM151.5 686.5q18 1 35 2.5t37 1.5h53.5h100.5h124h124.5h102.5h56q15 0 33 -1t31 -2v43q-8 -1 -19 -1h-21.5h-20.5h-58h-104h-125h-123.5h-100h-53.5q-20 0 -36.5 0.5t-35.5 1.5v-45z" />
</svg>
