<svg xmlns="http://www.w3.org/2000/svg" xmlns:xlink="http://www.w3.org/1999/xlink" version="1.1" viewBox="0 0 1000 1000">
   <path 
d="M160 168q29 1 45 1.5t31 0.5h39h76.5h98h105h97h74h36.5q15 0 37.5 -0.5t41.5 -1.5q-1 15 -1.5 31t-0.5 31v37.5v72.5v93.5v100v91.5v69v31v25.5t0.5 32t1 30t0.5 19.5h-44q1 -8 1 -23v-33v-33v-35v-79v-104.5v-111.5v-101v-74v-28h-596v27.5v73.5v100.5v110.5v104v79.5
v37.5v20t0.5 25t1 25t0.5 19h-45q0 -7 0.5 -21t1 -30t0.5 -31v-24v-34v-71v-93.5v-100.5v-93v-71v-33v-30t-1 -32zM817 734v39h-632v-39h632z" />
</svg>
