<svg xmlns="http://www.w3.org/2000/svg" xmlns:xlink="http://www.w3.org/1999/xlink" version="1.1" viewBox="0 0 1000 1000">
   <path 
d="M877.5 212q-6 8 -11 14t-10 14q-18 30 -41.5 62t-52 64.5t-60.5 63.5t-65 57l-38 -27q43 -28 83.5 -66t74 -79.5t54.5 -78.5h-66.5h-105h-123h-121h-99.5h-58q-18 0 -41 1t-40 1.5l-17 0.5v-47q22 1 47 2.5t50 1.5h58h98.5h118.5h120h103.5h67.5q12 0 24.5 -1.5
t20.5 -4.5zM499.5 375v40.5v72.5v88v88.5v75v46.5h-41v-46.5v-75v-88.5v-88v-72.5v-40.5q0 -13 -0.5 -25.5t-2.5 -25.5h47q-1 13 -2 24.5t-1 26.5zM83.5 761q22 2 42.5 3.5t40.5 1.5h673q20 0 39 -2t38 -3v49q-20 -3 -42 -3.5t-35 -0.5h-673q-20 0 -40 0.5t-43 3.5v-49z" />
</svg>
