<svg xmlns="http://www.w3.org/2000/svg" xmlns:xlink="http://www.w3.org/1999/xlink" version="1.1" viewBox="0 0 1000 1000">
   <path 
d="M852.5 168q-1 3 -3 9.5t-3.5 12t-2.5 9.5q-9 64 -20.5 130.5t-31 128.5t-53.5 116q-60 95 -158.5 168t-218.5 110l-34 -33q78 -22 147.5 -59.5t127.5 -89.5t100 -116q31 -48 51 -108t31 -125.5t16 -128.5h-45.5h-84.5h-108.5h-117h-110.5h-90h-53v31v53.5v60v52v30.5
q0 10 0.5 22.5t1.5 27.5h-46q2 -15 2.5 -28t0.5 -22v-38.5v-64v-67v-46.5q0 -14 -0.5 -26.5t-2.5 -26.5q17 1 40 1.5t54 0.5h36h75.5h99h107.5h101.5h80h41.5t20 -1t18 -3z" />
</svg>
