<svg xmlns="http://www.w3.org/2000/svg" xmlns:xlink="http://www.w3.org/1999/xlink" version="1.1" viewBox="0 0 1000 1000">
   <path 
d="M411 176.5q-4 13 -8.5 24t-7.5 23q-6 21 -15.5 44.5t-20 47t-21.5 42.5q-18 33 -44.5 68.5t-53.5 66.5t-51 50l-39 -23q32 -21 60 -53t52 -65.5t39 -59.5q20 -32 33 -65.5t20 -61.5q2 -11 4.5 -23.5t4.5 -25.5zM331 330.5h45h83.5h101.5h100.5h79.5h39q16 0 35 -0.5
t35 -3.5v44q-17 -1 -36 -1.5t-34 -0.5h-39h-80h-101.5h-102.5h-85h-48zM615 349.5q-5 129 -38 221.5t-88 156.5t-127 107l-43 -29q12 -4 35 -17.5t34 -22.5q29 -22 61 -56t59.5 -83t46 -117.5t20.5 -159.5h40z" />
</svg>
