<svg xmlns="http://www.w3.org/2000/svg" xmlns:xlink="http://www.w3.org/1999/xlink" version="1.1" viewBox="0 0 1000 1000">
   <path 
d="M767 111.5q9 16 20.5 41.5t23.5 51.5t19 47l-34 12q-7 -21 -18 -47t-22 -51.5t-21 -43.5zM864 82.5q10 17 21.5 41.5t23.5 50t19 47.5l-34 12q-13 -34 -30.5 -74.5t-32.5 -66.5zM662 146.5q-1 19 -2 37.5t-1 26.5v39v87v114.5v124v116v88.5v43t0.5 35t2.5 60h-48
q3 -34 3.5 -60t0.5 -33v-43.5v-89.5v-116v-124.5v-115v-86.5v-39q0 -11 -1 -29t-3 -35h48zM295 683.5v-356h40v356h-40zM72 661.5q22 2 41.5 3t38.5 1h661q19 0 37 -1.5t37 -2.5v46q-19 -2 -40.5 -2.5t-33.5 -0.5h-661q-19 0 -38 0.5t-42 2.5v-46zM109 299.5q21 2 41 3t39 1
h597q21 0 38.5 -1t36.5 -3v45q-19 -2 -40.5 -2h-34.5h-597q-19 0 -38.5 0.5t-41.5 1.5v-45z" />
</svg>
