<svg xmlns="http://www.w3.org/2000/svg" xmlns:xlink="http://www.w3.org/1999/xlink" version="1.1" viewBox="0 0 1000 1000">
   <path 
d="M496.5 175.5q-1 14 -1 25.5t-1 26.5q-4 126 -22 219.5t-49.5 163t-78 121t-108.5 93.5l-37 -31q16 -7 34 -19.5t32 -22.5q60 -46 102.5 -118t64.5 -172.5t22 -230.5q0 -10 -0.5 -19l-1 -18t-2.5 -18h46zM800.5 340.5l-2 20t-2 19q-1 20 -3 59.5t-5.5 87t-9.5 95.5
t-14.5 87.5t-19.5 62.5q-11 21 -29 31.5t-46 10.5q-16 0 -40.5 -1t-51 -2.5t-45.5 -2.5l-4 -41q34 5 73.5 7t61.5 2q15 0 28 -5.5t20 -19.5q10 -21 18 -58.5t13.5 -83t8.5 -91.5t4.5 -86t1.5 -66h-476q-26 0 -44 0.5t-36 2.5v-45q18 1 37.5 2.5t42.5 1.5h449q17 0 26 -1
t17 -2z" />
</svg>
