<svg xmlns="http://www.w3.org/2000/svg" xmlns:xlink="http://www.w3.org/1999/xlink" version="1.1" viewBox="0 0 1000 1000">
   <path 
d="M730.5 122q17 24 38 60t36 64l-36 14q-14 -30 -35 -65.5t-38 -60.5zM847.5 96q17 24 38.5 58t37.5 66l-37 13q-15 -32 -35.5 -66.5t-38.5 -59.5zM869.5 306q-5 8 -10 14t-10 14q-18 30 -42 62t-52.5 64.5t-60 63.5t-65.5 57l-38 -27q43 -28 83.5 -66t74 -79.5t55.5 -78.5
h-67.5h-105h-122.5h-121h-100h-58q-17 0 -40 1t-40 1.5l-17 0.5v-47q22 1 46.5 2.5t49.5 1.5h59h98.5h118h120h103.5h67q12 0 25 -1.5t20 -4.5zM491.5 469v40.5v72.5v88v88.5v75v46.5h-41v-46.5v-75v-88.5v-88v-72.5v-40.5q0 -13 -0.5 -25.5t-1.5 -25.5h47q-2 13 -3 24.5
t-1 26.5zM76.5 855q21 2 42 3.5t40 1.5h673q21 0 39.5 -2t37.5 -3v49q-19 -3 -41 -3.5t-36 -0.5h-673q-19 0 -39.5 0.5t-42.5 3.5v-49z" />
</svg>
