<svg xmlns="http://www.w3.org/2000/svg" xmlns:xlink="http://www.w3.org/1999/xlink" version="1.1" viewBox="0 0 1000 1000">
   <path 
d="M709.5 79q17 24 38 59.5t36 64.5l-37 14q-14 -30 -34.5 -65.5t-37.5 -60.5zM827.5 53q17 24 38.5 58.5t36.5 65.5l-37 14q-15 -32 -35.5 -66.5t-38.5 -59.5zM803.5 263q-1 3 -3.5 9t-3.5 12t-2 10q-9 64 -20.5 130t-31 128.5t-54.5 116.5q-59 94 -157.5 167.5
t-219.5 110.5l-34 -33q79 -23 148.5 -60t127.5 -89t99 -116q32 -48 51.5 -108t30.5 -125.5t16 -128.5h-45h-84.5h-109h-116.5h-110h-90.5h-53.5v31v53.5v60v52v30.5q0 10 0.5 22.5t1.5 26.5h-45q2 -14 2 -27v-22v-38.5v-64v-67v-46.5q0 -14 -0.5 -26.5t-2.5 -26.5
q18 1 41 1.5t53 0.5h36.5h75.5h99h108h101.5h79.5h42q9 0 19.5 -1t17.5 -3z" />
</svg>
