<svg xmlns="http://www.w3.org/2000/svg" xmlns:xlink="http://www.w3.org/1999/xlink" version="1.1" viewBox="0 0 1000 1000">
   <path 
d="M503.5 877q-56 0 -97.5 -15t-72 -38t-53.5 -46l28 -33q32 34 77.5 62t117.5 28q49 0 86.5 -20t59 -56.5t21.5 -85.5q0 -50 -25 -88.5t-79.5 -59.5t-142.5 -21v-43q82 0 130 -21.5t69 -58.5t21 -82q0 -60 -38.5 -97t-104.5 -37q-48 0 -90 22t-71 54l-29 -33
q37 -35 83.5 -60t107.5 -25q54 0 97.5 21t69 59.5t25.5 92.5q0 73 -38.5 118t-96.5 65v4q44 9 80.5 34t58.5 64t22 91q0 63 -28.5 109t-77.5 71t-110 25z" />
</svg>
