<svg xmlns="http://www.w3.org/2000/svg" xmlns:xlink="http://www.w3.org/1999/xlink" version="1.1" viewBox="0 0 1000 1000">
   <path 
d="M518 877q-53 0 -95 -23.5t-72 -69t-46 -111t-16 -150.5q0 -111 20.5 -188t57 -123.5t83 -67.5t97.5 -21q49 0 85 19t64 49l-30 32q-22 -29 -53 -43.5t-66 -14.5q-57 0 -105 33.5t-77 112t-29 212.5q0 92 19.5 162.5t60.5 110.5t103 40q42 0 74 -25.5t51 -68.5t19 -96
q0 -55 -16 -97.5t-49.5 -67.5t-88.5 -25q-39 0 -86.5 26.5t-91.5 88.5v-51q25 -32 54 -55t62.5 -35t66.5 -12q62 0 106 26t67.5 76.5t23.5 125.5q0 67 -27 119t-70.5 82t-95.5 30z" />
</svg>
