<svg xmlns="http://www.w3.org/2000/svg" xmlns:xlink="http://www.w3.org/1999/xlink" version="1.1" viewBox="0 0 1000 1000">
   <path 
d="M505 875q-65 0 -115.5 -25.5t-79.5 -69t-29 -98.5q0 -51 21.5 -92t54.5 -70.5t66 -47.5v-5q-39 -25 -70 -66t-31 -98q0 -53 24.5 -93t66 -62.5t93.5 -22.5q60 0 102 25t64.5 67.5t22.5 97.5q0 40 -16.5 75.5t-39.5 62.5t-43 44v5q30 18 58.5 43.5t46.5 60.5t18 85
q0 51 -27 93t-75 66.5t-112 24.5zM557 484q45 -37 69.5 -79t24.5 -89q0 -41 -17 -75t-50 -55.5t-79 -21.5q-60 0 -98.5 39.5t-38.5 99.5q0 51 28 84.5t71.5 55.5t89.5 41zM505 835q51 0 88 -19t57.5 -52t20.5 -73q0 -43 -18.5 -74t-49 -53t-69.5 -39.5t-80 -33.5
q-55 32 -90.5 79.5t-35.5 109.5q0 43 22.5 78t63 56t91.5 21z" />
</svg>
