<svg xmlns="http://www.w3.org/2000/svg" xmlns:xlink="http://www.w3.org/1999/xlink" version="1.1" viewBox="0 0 1000 1000">
   <path 
d="M478 929q-80 0 -147.5 -25.5t-117.5 -75t-77.5 -120.5t-27.5 -162q0 -108 35.5 -195.5t97 -150t140 -96t165.5 -33.5q107 0 184 43.5t119.5 122t42.5 183.5q0 70 -18.5 123.5t-49 90t-66 55t-69.5 18.5q-43 0 -73 -20.5t-33 -63.5h-2q-30 32 -64 54.5t-71 22.5
q-51 0 -89 -37.5t-38 -112.5q0 -40 14 -83t40.5 -81t65 -61t87.5 -23q29 0 52 13.5t39 40.5h2l10 -45h36l-39 207q-37 151 66 151q36 0 72.5 -29t61.5 -84t25 -133q0 -72 -21.5 -129.5t-61.5 -99t-97 -63.5t-129 -22q-76 0 -146 31t-126 87.5t-88.5 137t-32.5 179.5
q0 80 23.5 144t68 109t105.5 69t135 24q55 0 101 -14.5t85 -38.5l18 34q-47 29 -99 43.5t-108 14.5zM452 662q27 0 57 -18t63 -57l35 -191q-20 -31 -38.5 -42.5t-45.5 -11.5q-37 0 -67 18.5t-50.5 49t-32 67t-11.5 71.5q0 62 26.5 88t63.5 26z" />
</svg>
