<svg xmlns="http://www.w3.org/2000/svg" xmlns:xlink="http://www.w3.org/1999/xlink" version="1.1" viewBox="0 0 1000 1000">
   <path 
d="M500 290q-31 0 -53 -22t-22 -53t22 -53t53 -22t53 22t22 53t-22 53t-53 22zM500 471l330 -330l29 29l-330 330l330 330l-29 29l-330 -330l-331 331l-29 -29l331 -331l-330 -330l29 -29zM290 500q0 31 -22 53t-53 22t-53 -22t-22 -53t22 -53t53 -22t53 22t22 53zM710 500
q0 -31 22 -53t53 -22t53 22t22 53t-22 53t-53 22t-53 -22t-22 -53zM500 710q31 0 53 22t22 53t-22 53t-53 22t-53 -22t-22 -53t22 -53t53 -22z" />
</svg>
