<svg xmlns="http://www.w3.org/2000/svg" xmlns:xlink="http://www.w3.org/1999/xlink" version="1.1" viewBox="0 0 1000 1000">
   <path 
d="M714 525.5q0 -49 -23.5 -79t-59.5 -43.5t-74 -13.5q-46 0 -90 7t-81.5 17t-65.5 18q-19 5 -34 11l-25 10l-15 -48q14 -1 31.5 -3.5t32.5 -6.5q29 -7 70 -17t88 -18t90 -8q57 0 101 20t69.5 59t25.5 96q0 85 -46 147.5t-128 102.5t-193 58l-20 -36q98 -13 176 -47.5
t124.5 -91t46.5 -134.5zM350 165.5q32 6 77 12.5t94 12.5t94 9.5t76 4.5l-6 39q-28 -1 -72 -5.5t-94 -10.5t-97 -12.5t-79 -12.5z" />
</svg>
