<svg xmlns="http://www.w3.org/2000/svg" xmlns:xlink="http://www.w3.org/1999/xlink" version="1.1" viewBox="0 0 1000 1000">
   <path 
d="M334.5 170.5q31 9 76 17t93.5 14.5t89 10.5t62.5 5l-6 40q-26 -2 -67 -7t-88 -12t-91.5 -15t-76.5 -15zM662.5 387.5q-7 6 -14.5 12t-12.5 9q-7 6 -29.5 26t-51 47.5t-55 54l-43.5 43.5q4 -1 10.5 -1h11.5q36 1 54 21t26 50q4 13 9.5 31.5t11 36.5t8.5 29q9 24 29 35
t50 11q22 0 50.5 -2.5t55.5 -7t44 -9.5l-3 43q-12 2 -29 4t-37.5 4t-42 3.5t-42.5 1.5q-43 0 -71 -15.5t-40 -55.5q-4 -13 -9 -32.5t-10 -38t-9 -28.5q-7 -23 -19 -37t-38 -14q-17 0 -33.5 7t-30.5 20q-11 11 -35 35.5t-52 54.5t-53 58t-40 46l-39 -29q6 -6 12 -10.5
t14 -12.5q27 -27 65 -64.5t80.5 -79.5t85.5 -84t80.5 -79t64.5 -65q-16 2 -45.5 4.5t-64 5t-69.5 5.5t-63.5 5.5t-44.5 3.5q-18 1 -33 3t-28 5l-4 -46q13 1 29 1t33 -1q14 0 45 -2t69.5 -5t77.5 -6t70.5 -6t47.5 -6q10 -1 17 -3t12 -4z" />
</svg>
