<svg xmlns="http://www.w3.org/2000/svg" xmlns:xlink="http://www.w3.org/1999/xlink" version="1.1" viewBox="0 0 1000 1000">
   <path 
d="M714.5 104.5q17 23 42 64t42 77l-32 17q-16 -33 -39 -73.5t-45 -69.5zM815.5 68.5q12 15 28 39t32 50.5t28 50.5l-33 16q-17 -33 -40 -72.5t-46 -68.5zM116.5 235.5q101 12 199 13.5t173 -6.5q56 -7 113 -19t102 -28l7 40q-43 12 -99.5 24t-112.5 18q-76 8 -176 7.5
t-202 -9.5zM96.5 436.5q82 9 164.5 11.5t157.5 -0.5t132 -11q64 -8 123.5 -21.5t96.5 -25.5l7 40q-38 11 -94 22.5t-121 19.5q-60 7 -136.5 11t-160.5 2.5t-167 -7.5zM444.5 189.5q-4 -18 -10 -36.5t-12 -33.5l47 -8q4 38 15.5 83.5t26 90.5t25.5 77q16 43 34.5 86.5
t41.5 87t51 85.5q7 9 15 18t17 18l-27 36q-28 -9 -63 -14.5t-71 -9.5t-69 -7l4 -33q47 4 95.5 10t73.5 10q-43 -63 -77.5 -136.5t-58.5 -138.5q-12 -34 -22.5 -66.5t-19.5 -63t-16 -55.5zM204.5 638.5q-18 27 -28.5 54t-10.5 61q0 67 60 103.5t192 36.5q69 0 121.5 -5
t107.5 -16l-1 42q-52 9 -106 13t-120 4q-97 0 -161.5 -19t-97.5 -58t-33 -98q0 -38 10 -67.5t26 -61.5z" />
</svg>
