<svg xmlns="http://www.w3.org/2000/svg" xmlns:xlink="http://www.w3.org/1999/xlink" version="1.1" viewBox="0 0 1000 1000">
   <path 
d="M299 99.5q39 9 91.5 18.5t107.5 17.5t104 13t83 7l-7 39q-37 -3 -84 -9t-99 -13.5t-104.5 -16.5t-98.5 -18zM692 360.5q-9 7 -25 20.5t-22 18.5q-13 13 -39.5 38t-59 56t-62 59.5t-47.5 47.5q9 -2 20.5 -3t19.5 0q35 0 56 21t31 53q5 16 12 39t14 47t12 43q11 33 32.5 47
t67.5 14q29 0 63 -3t66 -8.5t54 -11.5l-2 46q-21 4 -53 7.5t-66 6t-62 2.5q-52 0 -87 -17t-50 -68q-4 -15 -11 -39.5t-13.5 -49.5t-12.5 -41q-9 -26 -25.5 -41.5t-41.5 -15.5t-44.5 9t-36.5 24q-12 11 -34 32.5t-48.5 49t-53 57t-50 55t-36.5 43.5l-43 -30q6 -4 15.5 -12
t19.5 -18q7 -8 37 -38l73 -73l93 -93t100 -99t91.5 -90.5t67.5 -66.5q-26 2 -64 5.5t-81 6.5t-84 7t-75 6.5t-54 4.5q-23 1 -40.5 3t-34.5 4l-4 -47q17 1 36 1.5t40 -0.5q20 -1 57 -3.5t82.5 -5.5t91 -7.5t83 -8t58.5 -6.5q12 -2 23 -4.5t18 -5.5z" />
</svg>
