<svg xmlns="http://www.w3.org/2000/svg" xmlns:xlink="http://www.w3.org/1999/xlink" version="1.1" viewBox="0 0 1000 1000">
   <path 
d="M377.5 133.5q-1 9 -3 19t-4 22q-2 14 -7 47.5t-12 73.5t-16 76q-11 42 -25 93t-32.5 107.5t-42 115.5t-53 119.5t-66.5 118.5l-42 -17q34 -44 63.5 -100t54.5 -117t45.5 -120.5t34.5 -111t22 -87.5q14 -53 24 -119t11 -124zM720.5 261.5q24 28 51 72.5t54 94.5t49 96.5
t35 80.5l-38 20q-12 -36 -32.5 -83.5t-46.5 -96.5t-53.5 -93t-53.5 -73zM53.5 364.5q21 1 38 1t38 -1t56.5 -3.5t77.5 -6t83.5 -7t76 -6t52.5 -2.5q39 0 72.5 11t54.5 44t21 97q0 59 -6 127t-19 128.5t-34 101.5q-22 48 -55.5 62t-75.5 14q-29 0 -61.5 -4.5t-54.5 -10.5
l-7 -44q23 6 45.5 10.5t42.5 7t35 2.5q30 0 54.5 -10t43.5 -49q17 -38 29 -93t17.5 -117t5.5 -120q0 -50 -14.5 -76t-40 -35.5t-58.5 -9.5q-27 0 -73.5 3.5t-98.5 8.5t-96.5 9.5t-69.5 6.5q-14 1 -35.5 4t-37.5 5zM755.5 110.5q13 17 28 41t30.5 49.5t26.5 47.5l-35 16
q-9 -20 -23 -45.5t-30 -50.5t-30 -43zM859.5 74.5q14 18 30.5 42.5t31.5 49.5t25 45l-34 16q-17 -34 -40 -72t-45 -66z" />
</svg>
