<svg xmlns="http://www.w3.org/2000/svg" xmlns:xlink="http://www.w3.org/1999/xlink" version="1.1" viewBox="0 0 1000 1000">
   <path 
d="M180.5 213q100 12 198.5 14t172.5 -6q57 -7 115 -19.5t105 -28.5l7 39q-45 14 -103 25.5t-114 18.5q-75 8 -175 7.5t-203 -9.5zM159.5 415q82 9 164.5 11.5t158 -1t131.5 -10.5q64 -8 124 -21.5t97 -25.5l6 40q-38 11 -93.5 22t-120.5 19q-60 8 -137 12t-160.5 2.5
t-166.5 -7.5zM508.5 168q-5 -18 -10.5 -36.5t-11.5 -33.5l46 -8q4 37 16 83t26 90.5t26 77.5q15 42 33.5 86t41.5 87.5t52 84.5q6 10 14.5 19t16.5 17l-27 37q-28 -9 -62.5 -14.5t-70.5 -9.5t-70 -7l4 -34q47 5 95.5 11t73.5 9q-43 -62 -77 -135.5t-59 -139.5
q-12 -33 -22.5 -65.5t-19 -63t-15.5 -55.5zM268.5 617q-18 27 -29 53.5t-11 61.5q0 67 60 103.5t193 36.5q69 0 121 -5t107 -16l-1 42q-52 9 -105.5 13t-120.5 4q-96 0 -161 -19t-97.5 -58.5t-33.5 -97.5q0 -38 10 -67.5t26 -61.5z" />
</svg>
