<svg xmlns="http://www.w3.org/2000/svg" xmlns:xlink="http://www.w3.org/1999/xlink" version="1.1" viewBox="0 0 1000 1000">
   <path 
d="M360 98q-1 8 -1.5 16.5t-1 18t-1.5 20.5q0 16 -1.5 55.5t-3 91t-2.5 103.5t-1 95q0 37 0.5 80.5t1.5 86.5t1.5 80t0.5 62q0 34 -8.5 55t-24 30.5t-38.5 9.5q-24 0 -55.5 -12.5t-61.5 -33t-50 -47t-20 -54.5q0 -41 33 -81t85 -74.5t107 -56.5q68 -28 139 -43t132 -15
q71 0 122.5 24t80.5 65.5t29 94.5q0 61 -27 104.5t-73.5 71.5t-107.5 41q-32 7 -63 9.5t-54 2.5l-15 -41q24 1 54 0.5t60 -7.5q47 -10 89 -31.5t69 -58t27 -90.5q0 -49 -26.5 -82t-70.5 -49.5t-94 -16.5q-69 0 -131 14t-131 43q-51 19 -95 49.5t-70.5 63t-26.5 62.5
q0 21 14.5 40t36 33.5t45.5 23t42 8.5q20 0 30 -15t10 -38q0 -32 -1 -84t-2 -111t-1 -110q0 -44 1 -97.5t2 -105.5t1.5 -91t0.5 -52q0 -10 -0.5 -20l-1 -20t-2.5 -17h49zM691 211q34 19 75.5 46t79.5 55t60 49l-25 33q-18 -19 -44.5 -40t-55.5 -41.5t-58 -39t-54 -32.5z
M102 290q39 5 65 7t54 2q36 0 81.5 -4t94 -11t94.5 -17t83 -21l1 42q-36 9 -83 17.5t-96.5 15t-94.5 11t-79 4.5q-37 0 -65.5 -1.5t-53.5 -3.5z" />
</svg>
