<svg xmlns="http://www.w3.org/2000/svg" xmlns:xlink="http://www.w3.org/1999/xlink" version="1.1" viewBox="0 0 1000 1000">
   <path 
d="M603.112 307q12 18 28.5 44.5t33 54t27.5 45.5l-34 16q-10 -20 -25.5 -46.5t-31.5 -53t-29 -45.5zM717.112 264q13 16 30 40.5t33.5 51.5t27.5 48l-33 16q-12 -21 -28 -47t-32 -50.5t-30 -42.5zM646.112 117q-10 8 -27.5 24t-26.5 24q-27 24 -66.5 58t-83 69.5
t-84.5 68.5t-71 58q-32 28 -43.5 47t0.5 38t48 49q31 26 68.5 56.5t78 65t82 70.5t80 72t71.5 70l-36 32q-11 -14 -25 -28.5t-28 -28.5q-30 -30 -71 -68t-87.5 -78t-90.5 -77.5t-80 -66.5q-46 -37 -57.5 -64t5 -53.5t57.5 -61.5q28 -23 69 -56t86 -70.5t85 -72t65 -61.5
q9 -10 22 -25.5t19 -26.5z" />
</svg>
