<svg xmlns="http://www.w3.org/2000/svg" xmlns:xlink="http://www.w3.org/1999/xlink" version="1.1" viewBox="0 0 1000 1000">
   <path 
d="M717 93.5q-2 9 -2.5 21.5t-0.5 29.5q0 9 0.5 31t1.5 50t1.5 58t1 55.5t0.5 41.5q0 85 -2 160t-18.5 141t-60.5 122.5t-127 102.5l-39 -30q19 -7 41.5 -20.5t39.5 -27.5q50 -39 76.5 -84t37 -99.5t12.5 -120t2 -144.5q0 -21 -1 -55.5t-2.5 -71.5t-2.5 -67t-2 -41
q-1 -17 -3.5 -29t-4.5 -23h52zM375 308.5q19 3 48 6t61.5 4.5t59.5 1.5q59 0 119.5 -3t118.5 -10t109 -21v43q-49 10 -106.5 16.5t-119 9.5t-122.5 3q-26 0 -58 -1t-61.5 -2.5t-48.5 -3.5v-43zM204 106.5q-2 10 -5.5 24t-6.5 28q-15 64 -26.5 137t-17 150.5t-1.5 155
t22 151.5q11 -40 26.5 -89t31.5 -94l27 15q-10 28 -22.5 67.5t-24 77t-16.5 59.5q-2 10 -3 21.5t0 19.5t2 15t2 13l-34 6q-9 -31 -21 -80t-20 -109t-8 -123q0 -81 8 -156t18.5 -138t15.5 -105q2 -15 3 -29t1 -23z" />
</svg>
