<svg xmlns="http://www.w3.org/2000/svg" xmlns:xlink="http://www.w3.org/1999/xlink" version="1.1" viewBox="0 0 1000 1000">
   <path 
d="M678 118q-1 9 -1.5 21.5t-0.5 29.5q0 9 0.5 31t1.5 50.5t1.5 58t1 55t0.5 42.5q0 84 -2 159t-19 141t-60.5 122.5t-127.5 102.5l-38 -29q19 -8 41.5 -21.5t39.5 -27.5q49 -39 75.5 -84t37.5 -99.5t13 -119.5t2 -145q0 -20 -1 -55t-2.5 -72t-2.5 -67t-2 -41
q-1 -16 -3.5 -28.5t-4.5 -23.5h51zM346 334q20 3 49 6t61 4.5t59 1.5q60 0 120.5 -3t118.5 -10.5t109 -21.5v43q-49 10 -106.5 16.5t-119 9.5t-122.5 3q-26 0 -58.5 -1t-61.5 -2.5t-49 -3.5v-42zM176 131q-2 10 -5.5 24.5t-6.5 27.5q-15 64 -26.5 137.5t-17.5 150.5
t-2 154.5t23 151.5q10 -39 26 -88.5t31 -94.5l27 15q-9 28 -21.5 67.5t-24 77t-16.5 59.5q-2 10 -3 21.5t0 20.5q0 7 1 14.5t2 12.5l-34 6q-9 -31 -20.5 -80t-19.5 -109t-8 -123q0 -81 8 -156t18 -138t15 -105q3 -14 4 -28t1 -24zM759 98q14 26 31.5 66t29.5 72l-35 13
q-11 -32 -28 -72t-31 -68zM857 69q14 25 31.5 64.5t30.5 70.5l-35 13q-13 -33 -29 -71.5t-31 -65.5z" />
</svg>
