<svg xmlns="http://www.w3.org/2000/svg" xmlns:xlink="http://www.w3.org/1999/xlink" version="1.1" viewBox="0 0 1000 1000">
   <path 
d="M538.5 179.5q11 15 29 43.5t36.5 59.5t30.5 56l-35 16q-10 -23 -26.5 -52t-34.5 -58t-33 -50zM663.5 131.5q12 15 30.5 43t37.5 59t31 55l-34 17q-11 -22 -28 -51.5t-35.5 -58.5t-33.5 -48zM246.5 96.5q-3 19 -4.5 36.5t-2.5 38.5q-1 43 -3.5 108t-4 139t-3 148.5
t-1.5 137.5q0 58 23.5 93t65.5 51t96 16q73 0 131 -18.5t102 -48.5t77.5 -67t60.5 -75l29 34q-26 35 -63 73t-85.5 69.5t-111.5 51.5t-143 20q-64 0 -114 -19.5t-79 -64.5t-29 -123q0 -48 1 -104.5t2.5 -115t3 -115t2.5 -106t1 -84.5q0 -22 -1 -41t-4 -34h54z" />
</svg>
