<svg xmlns="http://www.w3.org/2000/svg" xmlns:xlink="http://www.w3.org/1999/xlink" version="1.1" viewBox="0 0 1000 1000">
   <path 
d="M584.5 109.5q0 3 -1 12t-1.5 18t-0.5 14q-1 20 -1 51.5v69.5t0.5 76t1 72.5t0.5 58.5l-38 -36v-35.5t-0.5 -63t-1 -74.5t-1 -70t-1.5 -48q0 -13 -2 -27.5t-3 -17.5h49zM80.5 260.5q38 -1 87.5 -3t106 -4t117 -3.5t119.5 -2.5t112 -1q51 0 95.5 0.5t80 0.5t62 0.5
t41.5 0.5v39q-38 -2 -103.5 -3t-175.5 -1q-61 0 -131.5 1t-143.5 3.5t-141 6.5t-125 9zM592.5 546.5q0 55 -19 92t-50 55.5t-68 18.5q-33 0 -62 -10.5t-50.5 -30.5t-33 -48.5t-11.5 -65.5q0 -45 21.5 -81.5t57.5 -59t78 -22.5q53 0 87 23.5t51.5 65.5t17.5 97
q0 52 -13 102.5t-44 96.5t-85.5 84t-138.5 64l-36 -33q72 -18 124.5 -46.5t86 -68t50 -88.5t16.5 -108q0 -83 -33.5 -118t-80.5 -35q-32 0 -59 16t-44 44.5t-17 65.5q0 58 35.5 88.5t85.5 30.5q37 0 62 -19.5t37 -55t11 -84.5zM729.5 96.5q17 23 40 58.5t38 64.5l-34 17
q-16 -30 -38 -65.5t-40 -59.5zM840.5 72.5q17 24 39.5 58t39.5 65l-35 17q-16 -32 -37.5 -66t-40.5 -59z" />
</svg>
