<svg xmlns="http://www.w3.org/2000/svg" xmlns:xlink="http://www.w3.org/1999/xlink" version="1.1" viewBox="0 0 1000 1000">
   <path 
d="M706 137q-1 8 -1.5 19l-1 22t-0.5 20v63.5t-0.5 67.5t-1.5 59q-1 33 -2.5 76.5t-4 84t-8.5 67.5q-6 28 -22 39.5t-47 11.5q-18 0 -42 -2.5t-44 -5.5t-31 -5l1 -38q28 7 57.5 10.5t47.5 3.5q23 0 32.5 -6t12.5 -24q4 -20 6.5 -55.5t4.5 -77.5t2 -78q1 -29 1 -63.5v-68
v-58.5q0 -10 -0.5 -21.5t-1 -22t-2.5 -18.5h45zM310 169q-2 12 -2.5 29.5t-0.5 33.5q0 36 -0.5 88.5t-1 110.5t-0.5 112v95t1 59q2 43 5.5 74t20 51.5t55.5 30.5t111 10q58 0 115 -3t104.5 -8.5t76.5 -10.5l-1 43q-34 3 -82.5 7t-104 7t-108.5 3q-79 0 -124 -10.5t-67 -34
t-29 -62t-9 -93.5q0 -21 -0.5 -61t-0.5 -90v-102t0.5 -97.5t0.5 -77.5v-40q0 -16 -0.5 -30t-3.5 -34h45zM38 419q26 0 47.5 -1.5t40.5 -2.5q34 -3 96.5 -9t142 -14t164.5 -15.5t165.5 -14t145.5 -9.5q19 -1 34 -1.5t29 -1.5v44q-6 -1 -16.5 -1h-22.5h-24q-41 0 -100 3.5
t-127 9t-139 12t-136.5 13.5t-119.5 13t-89 10q-15 2 -29.5 3.5t-28.5 4t-28 4.5zM799 129q10 17 21.5 42.5t23.5 51.5t20 48l-35 12q-7 -22 -18 -48t-22.5 -52t-21.5 -44zM897 99q10 17 22 42t23.5 51t19.5 48l-35 13q-13 -35 -30 -76t-33 -67z" />
</svg>
