<svg xmlns="http://www.w3.org/2000/svg" xmlns:xlink="http://www.w3.org/1999/xlink" version="1.1" viewBox="0 0 1000 1000">
   <path 
d="M424 102.315q-4 14 -8 34t-6 36q-4 24 -11.5 63t-17.5 86t-22 94.5t-24 88.5t-24 69q70 -56 145.5 -80t162.5 -24q79 0 132 24t79.5 65.5t26.5 96.5q0 73 -37 124t-104 80.5t-158 37.5t-200 -3l-9 -40q91 11 174.5 6t150 -28t105 -66.5t38.5 -109.5t-51 -108.5
t-150 -42.5q-91 0 -174 30.5t-137 92.5q-10 12 -17.5 23t-15.5 25l-40 -15q29 -57 53 -127.5t42 -142t29.5 -130.5t15.5 -94q2 -18 3.5 -34.5t0.5 -33.5zM143 238.315q33 5 82.5 9.5t93.5 4.5q48 0 107.5 -3t124.5 -9t129 -15.5t121 -22.5v43q-57 10 -121 18.5t-128 14
t-124 8.5t-108 3q-46 0 -90 -3t-86 -7z" />
</svg>
