<svg xmlns="http://www.w3.org/2000/svg" xmlns:xlink="http://www.w3.org/1999/xlink" version="1.1" viewBox="0 0 1000 1000">
   <path 
d="M253.5 128.099q14 1 30 2t37 1q14 0 45 -1t71 -2.5t81 -3.5t74 -4t49 -4q13 -1 24 -3t19 -4l27 29q-5 4 -15.5 11t-17.5 12q-23 20 -56.5 48.5t-72.5 61t-79 66t-76 62.5t-63 51q83 -10 172 -17.5t177.5 -12t169.5 -4.5v39q-75 -3 -141 -2t-110 8q-39 6 -76 25.5t-68 49
t-49.5 65.5t-18.5 75q0 59 28 93.5t71.5 51.5t89.5 24t78 6t58 -3l-9 42q-175 7 -264.5 -47t-89.5 -162q0 -53 24.5 -96t59.5 -73t67 -45q-89 8 -197 20t-209 28l-4 -38q41 -5 88 -10.5t84 -9.5q46 -34 100 -77t106.5 -87.5t95.5 -81.5t67 -58q-14 1 -45.5 2.5t-70.5 3
t-78.5 3.5t-69.5 3.5t-44 2.5q-20 1 -38 3t-29 3zM724.5 216.099q17 24 40.5 60.5t41.5 74.5l-33 16q-16 -33 -37.5 -70t-43.5 -66zM825.5 180.099q17 22 41.5 59.5t43.5 73.5l-33 17q-16 -32 -38 -69t-45 -66z" />
</svg>
