<svg xmlns="http://www.w3.org/2000/svg" xmlns:xlink="http://www.w3.org/1999/xlink" version="1.1" viewBox="0 0 1000 1000">
   <path 
d="M82.5 199q28 -1 48 -2.5t35 -2.5l63 -7t107 -11t133 -12.5t140 -12.5q57 -5 103.5 -8.5t85 -5.5t69.5 -3v41q-29 -1 -66 0t-72 5t-59 12q-60 21 -106 61t-76.5 89t-46 100.5t-15.5 95.5q0 66 22 114.5t60 81t85 53t97.5 29.5t97.5 11l-14 39q-50 -1 -103.5 -12.5
t-104.5 -35t-91 -60.5t-64 -89t-24 -121q0 -83 31 -154t81 -124.5t105 -82.5q-35 4 -88.5 9.5t-114 11.5t-121 13t-111 13.5t-80.5 13.5zM721.5 317q11 15 26.5 39.5t31 51.5t27.5 51l-33 16q-15 -33 -38.5 -73.5t-45.5 -69.5zM828.5 278q12 15 28 39.5t32.5 51.5t28.5 51
l-33 16q-17 -33 -40 -72.5t-47 -70.5z" />
</svg>
