<svg xmlns="http://www.w3.org/2000/svg" xmlns:xlink="http://www.w3.org/1999/xlink" version="1.1" viewBox="0 0 1000 1000">
   <path 
d="M446 204q37 7 89.5 10.5t110 3.5t110 -4t86.5 -10v43q-35 4 -87.5 6.5t-109.5 2.5t-109.5 -2.5t-89.5 -6.5v-43zM453 596q-8 29 -12.5 53t-4.5 45q0 17 7 35.5t27.5 34.5t58 25.5t98.5 9.5q68 0 129 -6.5t117 -19.5l1 43q-45 10 -107.5 16t-135.5 6q-122 0 -177 -37
t-55 -102q0 -21 4 -47t11 -61zM227 119q-2 7 -4.5 15t-4.5 16.5t-4 17.5q-7 34 -14.5 73t-14 80.5t-11.5 83.5t-8 82.5t-3 77.5q0 54 3 99t10 100q10 -27 22 -60t24 -65.5t20 -55.5l26 19q-11 31 -26 71t-27.5 77.5t-16.5 59.5q-2 10 -3.5 21.5t-0.5 21.5q1 7 2 15.5t2 13.5
l-37 4q-15 -56 -25 -136.5t-10 -181.5q0 -54 5 -111t13.5 -112t16.5 -102t13 -79q2 -15 3 -27t1 -23z" />
</svg>
