<svg xmlns="http://www.w3.org/2000/svg" xmlns:xlink="http://www.w3.org/1999/xlink" version="1.1" viewBox="0 0 1000 1000">
   <path 
d="M672 299.5q-12 8 -26.5 15.5t-32.5 17.5q-35 18 -86 44t-107 57t-107 65q-75 49 -116 103.5t-41 115.5q0 68 65 111t195 43q58 0 117 -4t111.5 -11.5t86.5 -16.5v47q-33 6 -83.5 11.5t-109 9t-119.5 3.5q-67 0 -122.5 -11t-95.5 -33.5t-62 -58.5t-22 -86q0 -47 19 -90
t58 -83.5t97 -79.5q54 -36 111 -67.5t108 -57t85 -44.5q16 -10 29 -18t26 -19zM187 131.5q22 62 48.5 123.5t53 115t49.5 92.5l-32 21q-24 -38 -51 -92.5t-55 -117.5t-54 -123zM693 125.5q13 18 28 42.5t29.5 49.5t25.5 47l-33 16q-14 -31 -38.5 -71t-45.5 -69zM796 89.5
q14 18 30 43t31.5 50t25.5 44l-34 16q-16 -33 -39 -71.5t-46 -66.5z" />
</svg>
