<svg xmlns="http://www.w3.org/2000/svg" xmlns:xlink="http://www.w3.org/1999/xlink" version="1.1" viewBox="0 0 1000 1000">
   <path 
d="M94.5 263.5q24 3 51 4.5t63 1.5q49 0 103.5 -4t115 -15t126.5 -32l1 41q-54 15 -111.5 25.5t-117 16.5t-118.5 6q-25 0 -55 -0.5t-55 -1.5zM421.5 90.5q-6 22 -14 57t-18 72.5t-20 67.5q-25 72 -62.5 151t-79.5 152t-83 126l-42 -22q33 -38 66.5 -87.5t63.5 -105
t55.5 -110.5t40.5 -102q15 -42 29 -99t16 -105zM658.5 396.5q-1 30 -2 49.5t0 41.5q1 27 2.5 65.5t3.5 81.5t3.5 83t1.5 69q0 34 -17.5 63.5t-53 47t-90.5 17.5q-49 0 -90 -13t-66 -41t-25 -73q0 -44 26.5 -73t68 -43.5t87.5 -14.5q82 0 149 22.5t121.5 57t95.5 67.5l-24 37
q-31 -27 -67 -54t-79 -48.5t-92 -35t-103 -13.5q-64 0 -104.5 27.5t-40.5 68.5t33.5 66t106.5 25q47 0 75 -14t40 -38t12 -50q0 -34 -1.5 -80.5t-4 -98.5t-4.5 -104t-3 -95h41zM880.5 402.5q-25 -23 -64.5 -48.5t-81 -48t-73.5 -37.5l21 -31q27 12 58.5 28.5t63 35t58 36
t43.5 30.5z" />
</svg>
