<svg xmlns="http://www.w3.org/2000/svg" xmlns:xlink="http://www.w3.org/1999/xlink" version="1.1" viewBox="0 0 1000 1000">
   <path 
d="M548 116q-2 13 -4.5 34t-4.5 37q-7 54 -14.5 109.5t-19.5 112t-32 113.5q-25 68 -57 129t-68.5 107t-79 72.5t-89.5 26.5q-31 0 -55.5 -17.5t-39 -48.5t-14.5 -73q0 -71 22 -131t57 -110q25 -38 64 -77t91 -72t117 -53.5t143 -20.5q56 0 107 18.5t91 53.5t63.5 87
t23.5 120q0 81 -14 146t-42.5 111.5t-71.5 71t-101 24.5q-66 0 -104 -31.5t-38 -84.5q0 -33 19 -59.5t52 -41.5t75 -15q55 0 102 17t85.5 43.5t68 55.5t50.5 53l-28 35q-19 -24 -47 -53.5t-63 -56t-77 -43.5t-91 -17q-55 0 -82.5 25.5t-27.5 54.5q0 36 28 59.5t77 23.5
q55 0 91.5 -26.5t58.5 -71t32 -101.5t10 -118q0 -45 -15.5 -89t-46.5 -79t-77.5 -56t-108.5 -21q-83 0 -155.5 26.5t-130.5 73.5t-99 111q-24 37 -39.5 72t-23.5 70t-8 73q0 47 23.5 74.5t48.5 27.5q37 0 73.5 -23.5t70 -66t64 -99t54.5 -122.5q17 -48 28.5 -104
t18.5 -111.5t11 -99.5q2 -20 2 -38t-2 -39zM169 209q10 43 25.5 91.5t33.5 94.5t33.5 85t27.5 63q16 36 40 77.5t49 72.5l-22 30q-17 -19 -35 -46t-34 -55.5t-28 -53.5q-14 -31 -32.5 -76.5t-36 -93t-28.5 -81.5q-5 -18 -10.5 -34.5t-11 -31t-11.5 -27.5z" />
</svg>
