<svg xmlns="http://www.w3.org/2000/svg" xmlns:xlink="http://www.w3.org/1999/xlink" version="1.1" viewBox="0 0 1000 1000">
   <path 
d="M65.5 577.527q16 -12 30.5 -25.5t32.5 -30.5q22 -23 48 -54.5t54.5 -67.5t54.5 -69.5t48 -59.5q36 -45 71 -50.5t80 43.5q27 28 59.5 67t68 80t68.5 78q21 24 51.5 56.5t65 67.5t70 69.5t67.5 63.5l-32 35q-40 -37 -83.5 -82.5t-85 -92.5t-78.5 -86q-34 -37 -69 -79
t-67 -79.5t-55 -62.5q-24 -27 -41 -33.5t-31.5 3t-33.5 33.5q-20 24 -46 56.5t-53.5 67t-54 67.5t-47.5 58q-14 17 -29.5 34t-25.5 30z" />
</svg>
