<svg xmlns="http://www.w3.org/2000/svg" xmlns:xlink="http://www.w3.org/1999/xlink" version="1.1" viewBox="0 0 1000 1000">
   <path 
d="M530 333q21 -14 42 -29.5t33 -25.5q-22 -20 -60 -44.5t-82 -47.5t-83 -40l24 -30q36 16 81.5 40.5t88 50.5t68.5 49l10 30q-8 7 -19 16t-24 18.5t-26.5 19.5t-26.5 19zM318 824q36 10 74 16t94 6q21 0 47.5 -8t46 -29.5t19.5 -60.5q0 -28 -12.5 -58t-33 -60.5t-45 -61
t-48.5 -58.5q-15 -17 -34 -36t-37 -36l29 -27q15 16 32.5 36t34.5 38q41 45 76.5 89.5t56.5 89t21 88.5q0 43 -16.5 69t-41 39.5t-50 18.5t-42.5 5q-53 0 -93 -5t-72 -11zM914 830q-12 -35 -30.5 -76t-42 -83.5t-49.5 -80.5t-52 -65l31 -20q28 31 54.5 70.5t50.5 81t43 81
t31 71.5zM331 631q-30 30 -72.5 66.5t-90.5 72t-93 61.5l-25 -34q31 -16 66.5 -40t71.5 -51.5t67.5 -55t51.5 -49.5z" />
</svg>
