<svg xmlns="http://www.w3.org/2000/svg" xmlns:xlink="http://www.w3.org/1999/xlink" version="1.1" viewBox="0 0 1000 1000">
   <path 
d="M668.5 169q8 44 22 98t37.5 110.5t60 111.5t90.5 103l-30 35q-55 -58 -95.5 -123.5t-70.5 -145t-56 -177.5zM69.5 225q21 2 52 0q31 -1 75 -6t90 -12.5t84 -15.5t58 -16l12 38q-9 3 -27 7t-29 8q-17 14 -45.5 43t-59.5 72t-58.5 96.5t-45 114t-17.5 125.5q0 60 18 100.5
t48.5 64t69 34t78.5 10.5q124 0 195.5 -82t91.5 -231t-14 -349l38 91q15 90 15 178t-17.5 166t-56.5 138t-101.5 94.5t-151.5 34.5q-58 0 -104.5 -16t-79.5 -47t-50 -76t-17 -102q0 -78 20 -145.5t51.5 -125t67 -103t67.5 -77.5q-30 6 -69 11.5t-74 10t-57 7.5q-13 1 -26 3
t-27 5zM753.5 112q11 17 25 41.5t28.5 49.5t23.5 46l-34 15q-10 -21 -23 -47t-26.5 -50.5t-24.5 -42.5zM851.5 72q16 25 39 64.5t40 71.5l-35 15q-16 -33 -36.5 -72t-37.5 -65z" />
</svg>
