<svg xmlns="http://www.w3.org/2000/svg" xmlns:xlink="http://www.w3.org/1999/xlink" version="1.1" viewBox="0 0 1000 1000">
   <path 
d="M345 331.5q42 4 81.5 6.5t83.5 2.5q89 0 177 -7t161 -21v40q-81 13 -168 19.5t-173 6.5q-42 0 -80 -2t-82 -5v-40zM670 144.5q-2 15 -3.5 28.5t-2.5 27.5q-1 20 -1.5 48.5t-0.5 59v54.5q0 48 2 103.5t5 112t5 108t2 92.5q0 24 -6.5 49.5t-23.5 47.5t-47 35.5t-78 13.5
q-98 0 -145.5 -35t-47.5 -94q0 -35 21.5 -65t64 -49t106.5 -19q57 0 107 13t94 35.5t82.5 50.5t72.5 58l-24 36q-49 -46 -100 -82t-109 -57t-127 -21q-67 0 -109.5 27.5t-42.5 69.5q0 44 39.5 69.5t104.5 25.5q52 0 79.5 -16t39 -43.5t11.5 -63.5q0 -28 -2 -76.5t-5 -106
t-5 -114.5t-2 -103v-90v-72v-30t-2 -28h48zM172 147.5q-2 7 -4.5 15t-4 17t-3.5 18q-7 34 -14.5 75t-14.5 85.5t-12 89.5t-8 87t-3 79q0 53 3.5 98.5t11.5 99.5q9 -27 21 -60.5t24.5 -66t21.5 -55.5l25 18q-11 29 -26 69.5t-28 77.5t-18 60q-2 10 -3 22t0 22q1 7 2 15.5
t2 13.5l-37 4q-14 -56 -25 -135t-11 -180q0 -54 6 -114t14 -118.5t16 -108t13 -82.5q2 -15 3 -27.5t2 -22.5zM758 171.5q0 28 19.5 47.5t48.5 19.5q28 0 48.5 -19.5t20.5 -47.5q0 -29 -20.5 -49.5t-48.5 -20.5q-29 0 -48.5 20.5t-19.5 49.5zM725 171.5q0 -44 29 -73.5
t72 -29.5t73 29.5t30 73.5q0 42 -30 71.5t-73 29.5t-72 -29.5t-29 -71.5z" />
</svg>
