<svg xmlns="http://www.w3.org/2000/svg" xmlns:xlink="http://www.w3.org/1999/xlink" version="1.1" viewBox="0 0 1000 1000">
   <path 
d="M694.5 120.5q8 44 21.5 98t37 110.5t60.5 111.5t91 103l-30 35q-56 -58 -96 -123.5t-70 -145t-56 -177.5zM95.5 176.5q21 2 51 0q32 -1 76 -6t90 -12.5t84 -15.5t58 -16l12 38q-10 3 -27.5 7t-28.5 8q-17 13 -45.5 42.5t-59.5 72.5t-58.5 96.5t-45 114t-17.5 125.5
q0 60 18 100.5t48.5 64t69 34t78.5 10.5q124 0 195.5 -82t91.5 -231t-14 -349l38 91q15 90 15 177.5t-18 166t-56.5 138.5t-101 94.5t-151.5 34.5q-58 0 -104.5 -16t-79.5 -47t-50 -76t-17 -102q0 -78 20 -146t51 -125.5t67 -103t67 -76.5q-29 5 -68 11t-74.5 10.5
t-56.5 7.5q-13 1 -26 3t-28 5z" />
</svg>
