<svg xmlns="http://www.w3.org/2000/svg" xmlns:xlink="http://www.w3.org/1999/xlink" version="1.1" viewBox="0 0 1000 1000">
   <path 
d="M666 169.5q8 44 22 98t37.5 110.5t60 111.5t90.5 103l-30 35q-55 -58 -95.5 -123.5t-70.5 -145t-56 -177.5zM67 225.5q21 2 52 0q31 -1 75 -6t90 -12.5t84 -15.5t58 -16l12 38q-9 3 -27 7t-29 8q-17 14 -45.5 43t-59.5 72t-58.5 96.5t-45 114t-17.5 125.5q0 60 18 100.5
t48.5 64t69 34t78.5 10.5q124 0 195.5 -82t91.5 -231t-14 -349l38 91q15 90 15 178t-17.5 166t-56.5 138t-101.5 94.5t-151.5 34.5q-58 0 -104.5 -16t-79.5 -47t-50 -76t-17 -102q0 -78 20 -145.5t51.5 -125t67 -103t67.5 -77.5q-30 6 -69 11.5t-74 10t-57 7.5q-13 1 -26 3
t-27 5zM755 177.5q0 30 21 51t51 21t51 -21t21 -51q0 -31 -21 -52t-51 -21t-51 21t-21 52zM722 177.5q0 -29 14 -53.5t38 -38.5t53 -14q30 0 53.5 14t38 38.5t14.5 53.5q0 28 -14.5 52.5t-38 38.5t-53.5 14q-29 0 -53 -14t-38 -38.5t-14 -52.5z" />
</svg>
