<svg xmlns="http://www.w3.org/2000/svg" xmlns:xlink="http://www.w3.org/1999/xlink" version="1.1" viewBox="0 0 1000 1000">
   <path 
d="M216.5 125q18 1 36 1.5t33 0.5q18 0 51.5 -1t71 -3t69.5 -4t46 -3q11 -1 19.5 -3t15.5 -4l27 23q-4 5 -9 11.5t-11 15.5q-15 24 -37.5 70t-47 101t-48.5 107q-15 32 -33.5 73t-37.5 84t-38 79.5t-35 59.5q-24 32 -49 43.5t-54 11.5q-48 0 -79 -33t-31 -84
q0 -54 23.5 -99.5t67 -80t103.5 -53.5t133 -19q82 0 158.5 19t143.5 49t123 64t97 65l-20 43q-42 -36 -97.5 -72t-121 -66t-138.5 -48t-150 -18q-90 0 -154 30.5t-97.5 79t-33.5 102.5q0 40 23 61t51 21q19 0 35 -7.5t32 -28.5q19 -22 37 -55.5t36 -73.5t35 -79.5t32 -72.5
q22 -47 44.5 -96.5t44.5 -96.5t41 -86q-15 1 -47 2.5t-69 3.5t-70 3t-50 2t-34 2.5t-35 3.5zM815.5 331q-5 107 -21 192.5t-49 153t-89.5 120.5t-141.5 94l-34 -29q85 -36 140 -86.5t86.5 -112t46 -127.5t19.5 -131q1 -17 1.5 -38t-0.5 -40z" />
</svg>
