<svg xmlns="http://www.w3.org/2000/svg" xmlns:xlink="http://www.w3.org/1999/xlink" version="1.1" viewBox="0 0 1000 1000">
   <path 
d="M649.5 102.5l-4 22t-4 21t-4 18q-12 58 -31 123.5t-42 130t-48.5 119.5t-51.5 94q-31 48 -68.5 92t-78.5 71.5t-87 27.5q-35 0 -63.5 -19t-44.5 -55.5t-16 -90.5q0 -59 23 -118.5t62.5 -110t87.5 -83.5q69 -49 142 -70.5t146 -21.5q94 0 168 39.5t116 109t42 162.5
q0 94 -43.5 165t-123 115t-189.5 58l-23 -35q75 -7 137.5 -30t107.5 -62t69.5 -92t24.5 -120q0 -79 -36 -140.5t-101.5 -98t-153.5 -36.5q-68 0 -136 22t-132 70q-44 32 -78.5 79t-53.5 98t-19 99q0 60 25 94t64 34q28 0 57 -17t56.5 -44.5t51.5 -60t42 -62.5
q22 -36 45 -85.5t45 -109t41 -122t29 -123.5q2 -10 4 -27.5t1 -33.5zM250.5 157.5q4 17 9.5 40t10.5 43q8 32 22.5 74.5t31 87t34.5 83t32 64.5q26 46 59 94t70 83l-32 28q-31 -34 -62.5 -78t-62.5 -100q-15 -26 -32.5 -64.5t-35 -83.5t-33.5 -90.5t-28 -85.5
q-6 -22 -14 -44.5t-13 -36.5z" />
</svg>
