<svg xmlns="http://www.w3.org/2000/svg" xmlns:xlink="http://www.w3.org/1999/xlink" version="1.1" viewBox="0 0 1000 1000">
   <path 
d="M349 94.5q-2 11 -3.5 33.5t-1.5 36.5v59.5v88v91.5v70l-36 -34v-54.5v-81t-0.5 -82t-0.5 -57.5q0 -16 -1.5 -37.5t-3.5 -32.5h47zM710 202.5q21 15 46.5 36t52 46t50 49.5t40.5 46.5l-29 30q-21 -31 -55 -65.5t-69 -65.5t-62 -50zM101 236.5q47 8 81.5 11t74.5 3
q69 0 145 -12t145 -29v42q-45 10 -95 18t-99 13t-94 5q-34 0 -76 -2.5t-81 -8.5zM317 676.5q-1 10 -3 29t-3 40t-1 36q0 24 6 41t24 26.5t55 14t99 4.5q30 0 66.5 -2.5t67.5 -6.5t49 -8q39 -11 65 -36t26 -84q0 -29 -1 -54t-5 -51l44 15q1 16 1 31t0.5 31.5t-0.5 37.5
q-1 49 -15.5 78t-39.5 44.5t-61 23.5q-21 5 -55.5 9.5t-73 7t-70.5 2.5q-52 0 -90 -3.5t-63 -11t-39 -19.5t-20.5 -29.5t-6.5 -41.5q0 -27 1.5 -53t4.5 -53zM367 530.5q0 26 -5.5 60.5t-19.5 67.5t-41 55t-71 22q-22 0 -49 -13t-46 -44t-19 -84q0 -45 17.5 -87.5t51 -71
t78.5 -28.5q47 0 75.5 35t28.5 88zM234 697.5q36 0 56.5 -25t29 -63.5t8.5 -75.5q0 -42 -18.5 -66t-48.5 -24q-29 0 -53.5 19.5t-39.5 54t-15 78.5q0 49 24.5 75.5t56.5 26.5z" />
</svg>
