<svg xmlns="http://www.w3.org/2000/svg" xmlns:xlink="http://www.w3.org/1999/xlink" version="1.1" viewBox="0 0 1000 1000">
   <path 
d="M673.5 185.5v76.5v81v70.5q0 43 2 92t4.5 97.5t4.5 89.5t2 68q0 56 -39.5 84.5t-107.5 28.5q-52 0 -92.5 -14t-63 -42t-22.5 -69q0 -29 17.5 -57t57 -46t104.5 -18q60 0 112 12t96 33.5t82 48.5t71 56l-24 39q-47 -49 -101.5 -84t-114 -53.5t-121.5 -18.5q-63 0 -103 24
t-40 63q0 45 38.5 67.5t103.5 22.5q47 0 70.5 -14.5t32 -38.5t8.5 -53q0 -20 -2 -57t-5 -82t-5 -91t-2 -85v-74v-84.5v-72.5h37zM383.5 394.5q87 7 175 6t169 -7t146 -13v39q-62 6 -144.5 11.5t-171 7t-174.5 -3.5v-40zM399.5 164.5q54 4 115 4.5t122 -2t116 -7t97 -10.5v39
q-40 4 -95 8t-116.5 6.5t-123 2.5t-115.5 -3v-38zM199.5 115.5q-2 6 -4 14.5l-4 17t-4 17.5q-7 34 -14 74t-13.5 83t-11.5 86.5t-8 85t-3 78.5q0 53 3.5 98.5t10.5 100.5q8 -27 20 -61.5t24.5 -67t22.5 -56.5l24 21q-11 28 -25.5 68.5t-27 78t-17.5 59.5q-2 10 -3.5 22
t-0.5 22q1 7 2 15.5t2 13.5l-37 4q-15 -56 -26 -135t-11 -180q0 -54 6 -113t14.5 -115.5t16 -105t12.5 -80.5q2 -15 3.5 -27.5t1.5 -22.5z" />
</svg>
