<svg xmlns="http://www.w3.org/2000/svg" xmlns:xlink="http://www.w3.org/1999/xlink" version="1.1" viewBox="0 0 1000 1000">
   <path 
d="M65.5 629.5q16 -12 30.5 -25.5t32.5 -31.5q22 -22 48.5 -53.5t54.5 -67.5t54.5 -69.5t47.5 -59.5q37 -45 71.5 -50.5t79.5 43.5q27 28 59.5 67t68 80t68.5 78q22 24 52 56t64.5 67t70 70t67.5 63l-32 36q-39 -38 -82.5 -83.5t-85.5 -92t-79 -86.5q-33 -37 -68.5 -79
t-67.5 -79.5t-55 -62.5q-24 -27 -40.5 -33.5t-31.5 3.5t-34 33q-20 24 -45.5 56.5t-53.5 67.5t-54.5 67.5t-47.5 57.5q-13 17 -29 34.5t-26 30.5zM692.5 283.5q0 33 23.5 57.5t58.5 24.5q34 0 57.5 -24.5t23.5 -57.5q0 -34 -23.5 -58t-57.5 -24q-35 0 -58.5 24t-23.5 58z
M658.5 283.5q0 -33 15.5 -59t42 -41.5t58.5 -15.5q31 0 57.5 15.5t42 41.5t15.5 59q0 31 -15.5 57.5t-42 42t-57.5 15.5q-32 0 -58.5 -15.5t-42 -42t-15.5 -57.5z" />
</svg>
