<svg xmlns="http://www.w3.org/2000/svg" xmlns:xlink="http://www.w3.org/1999/xlink" version="1.1" viewBox="0 0 1000 1000">
   <path 
d="M528.5 92q-1 11 -2 25t-2 39v39t-0.5 62.5t-0.5 72.5v69q0 56 2.5 114t5 110t4.5 92t2 62q0 28 -13 58.5t-47.5 51.5t-99.5 21q-99 0 -152.5 -32.5t-53.5 -99.5q0 -42 26.5 -72.5t75.5 -47.5t117 -17q77 0 145 19t125 48t101 59t71 51l-25 39q-33 -30 -77 -61t-97 -58
t-115.5 -44t-131.5 -17q-87 0 -132 29t-45 70q0 27 16 49t52.5 35t97.5 13q30 0 58 -8t45 -29.5t17 -60.5q0 -33 -1.5 -84t-3 -106.5t-3 -104.5t-1.5 -79v-65v-63.5v-63v-61.5q0 -13 -0.5 -30t-1.5 -24h44zM171.5 213q23 4 56.5 8t71 7.5t73 5t62.5 1.5q90 0 188 -8t185 -22
v40q-60 6 -123 12t-126 10t-123 4q-37 0 -87.5 -3t-98 -7t-77.5 -7zM167.5 423q29 4 62 7.5t68 5.5t68 3.5t62 1.5q57 0 120 -3.5t130.5 -10t134.5 -17.5v41q-50 7 -100 12t-98 8t-95 4.5t-92 1.5q-38 0 -83.5 -2t-91.5 -5t-85 -7v-40z" />
</svg>
