<svg xmlns="http://www.w3.org/2000/svg" xmlns:xlink="http://www.w3.org/1999/xlink" version="1.1" viewBox="0 0 1000 1000">
   <path 
d="M202 163q-1 6 -3.5 14.5t-4.5 20.5q-5 29 -11.5 76t-11 101t-6.5 103t0 83q20 -72 61 -133.5t98 -107t124.5 -70.5t138.5 -25q92 0 155 33.5t96 90.5t33 126q0 78 -32 142t-97 101t-166 37q-57 0 -107 -20.5t-90 -59t-68 -93.5l29 -29q23 53 58 90t81 55.5t102 18.5
q74 0 131 -28t89.5 -81.5t32.5 -129.5q0 -59 -27.5 -108.5t-82 -79.5t-136.5 -30q-78 0 -144 27.5t-117.5 74.5t-86.5 104.5t-52 116.5q-3 13 -6 33t-2 39q1 13 3.5 29.5t5.5 33t6 28.5l-35 7q-12 -43 -21.5 -109t-9.5 -136q0 -42 3.5 -89.5t8.5 -91t9.5 -78.5t6.5 -55
q1 -11 1 -19t-1 -16zM551 82q8 34 16.5 90.5t14 124.5t5.5 140q0 85 -10.5 158t-33.5 133t-62.5 107.5t-97.5 82.5l-36 -24q57 -29 95.5 -72.5t62.5 -100t34.5 -127.5t10.5 -156q0 -70 -5 -130t-11 -104.5t-12 -65.5q-3 -14 -7 -29t-8 -25z" />
</svg>
