<svg xmlns="http://www.w3.org/2000/svg" xmlns:xlink="http://www.w3.org/1999/xlink" version="1.1" viewBox="0 0 1000 1000">
   <path 
d="M590.5 239q-20 -21 -46 -44.5t-53 -46.5t-50 -40l29 -22q16 11 43 33t56 47t49 46zM236.5 168l9 18t11 21t11 20q28 49 63.5 120t68.5 144q23 51 44 106t39.5 109t35 103.5t29.5 90.5l-45 14q-15 -57 -35.5 -124.5t-45.5 -139.5t-57 -142q-26 -57 -51 -108.5t-45 -91
t-35 -62.5q-8 -12 -19.5 -29.5t-20.5 -29.5zM90.5 460q15 -5 34.5 -11t33.5 -12q31 -12 80.5 -34.5t108.5 -49.5t122.5 -51.5t124.5 -40t112 -15.5q64 0 109 21t69.5 59t24.5 90q0 47 -20.5 88.5t-67 67.5t-126.5 26q-43 0 -80.5 -9t-65.5 -19l2 -42q25 12 62 22t83 10
q68 0 106 -22t53.5 -56t15.5 -69q0 -33 -17.5 -63t-54 -48.5t-94.5 -18.5q-52 0 -115 17.5t-130.5 44.5t-132.5 58t-120.5 58t-93.5 44z" />
</svg>
