<svg xmlns="http://www.w3.org/2000/svg" xmlns:xlink="http://www.w3.org/1999/xlink" version="1.1" viewBox="0 0 1000 1000">
   <path 
d="M265 137.105q14 1 28.5 1.5t31.5 0.5q16 0 50 -1t77 -2t86.5 -2.5t79 -3t53.5 -2.5q9 -1 21.5 -3t21.5 -5l32 35q-6 4 -17.5 11.5t-16.5 12.5q-33 29 -73 64t-82.5 70.5t-81.5 68.5t-69 59q54 -22 98.5 -29.5t83.5 -7.5q79 0 139 27t93.5 75.5t33.5 114.5q0 93 -62.5 154
t-175.5 87t-264 14l-12 -42q104 12 191 2.5t150.5 -37.5t98 -74t34.5 -105q0 -83 -63 -132t-168 -49q-69 0 -121.5 14t-96.5 41t-87.5 65t-96.5 87l-35 -33q47 -37 105.5 -85t120.5 -100.5t120 -102.5t104.5 -92.5t74.5 -69.5q-21 1 -56.5 2.5t-79 3.5t-85.5 3.5t-75 3
t-48 2.5t-31 2t-30 3z" />
</svg>
