<svg xmlns="http://www.w3.org/2000/svg" xmlns:xlink="http://www.w3.org/1999/xlink" version="1.1" viewBox="0 0 1000 1000">
   <path 
d="M267.5 135q14 1 29.5 1.5t25.5 0.5q15 0 51.5 -1t82.5 -2.5t92 -3.5t81.5 -4t50.5 -3q16 -2 23 -3.5t14 -3.5l32 34q-11 7 -23 16t-24 20q-17 14 -52.5 44.5t-79.5 68t-87 74.5t-76 66q42 -16 87 -22t87 -6q81 0 142.5 29t96 78.5t34.5 113.5q0 82 -43.5 138t-118 85
t-168.5 29q-67 0 -111 -17t-66 -45.5t-22 -62.5q0 -30 16 -55t46.5 -40.5t70.5 -15.5q65 0 107.5 27.5t64.5 71t27 91.5l-36 9q-7 -72 -49 -119t-115 -47q-39 0 -67 22t-28 53q0 44 44.5 67.5t113.5 23.5q86 0 152.5 -24.5t104.5 -73t38 -117.5q0 -52 -30 -94.5t-84 -68
t-125 -25.5q-66 0 -117 12t-95.5 36t-89 61.5t-98.5 87.5l-31 -30q35 -29 75.5 -63t80.5 -67t73.5 -62t54.5 -47q21 -17 55 -45.5t71.5 -61t71 -61t52.5 -45.5q-16 1 -52 2.5t-81.5 3.5t-90.5 4t-80.5 3.5t-50.5 2.5q-14 1 -27 2t-28 3z" />
</svg>
