<svg xmlns="http://www.w3.org/2000/svg" xmlns:xlink="http://www.w3.org/1999/xlink" version="1.1" viewBox="0 0 1000 1000">
   <path 
d="M522.5 169.5q-2 8 -3.5 30.5t-1.5 38.5v46v64.5v64.5q0 33 1.5 75t3.5 85.5t4 82.5t2 66q0 28 -14.5 53t-43 40t-73.5 15q-58 0 -100 -13.5t-64 -39.5t-22 -62q0 -55 51.5 -88t149.5 -33q61 0 115.5 14t102.5 36t88 49t70 54l-23 39q-29 -31 -69.5 -59t-86.5 -50.5
t-96.5 -35.5t-102.5 -13q-70 0 -117 21.5t-47 64.5q0 34 38.5 57.5t108.5 23.5q47 0 71.5 -24t24.5 -61q0 -23 -1.5 -59.5t-3 -79.5t-3 -84.5t-1.5 -74.5v-56.5v-67.5v-50t-1.5 -39t-4.5 -30h48zM496.5 329.5q23 0 57.5 -1.5t75.5 -3.5t81 -5.5t71 -7.5l1 37q-31 4 -70.5 7
t-80.5 5.5t-76 3.5t-59 1v-36z" />
</svg>
