<svg xmlns="http://www.w3.org/2000/svg" xmlns:xlink="http://www.w3.org/1999/xlink" version="1.1" viewBox="0 0 1000 1000">
   <path 
d="M449.5 94.5q-6 30 -15 69t-28 87q-21 52 -52.5 106.5t-67.5 100.5q23 -17 50.5 -28t55.5 -17t53 -6q55 0 93 30t38 85v48t0.5 63t1 64.5t0.5 54.5h-42q1 -21 1.5 -52t1 -63.5t0 -61.5t-0.5 -47q-1 -41 -29 -63t-73 -22q-53 0 -100 21t-86 55q-21 19 -42.5 45t-46.5 55
l-38 -27q79 -78 127 -143t75.5 -115.5t41.5 -83.5q17 -41 27.5 -83.5t12.5 -75.5zM134.5 213.5q42 6 87 8.5t77 2.5q68 0 144 -3.5t152.5 -11t145.5 -19.5v40q-53 9 -110 15t-115.5 9.5t-114 5t-105.5 1.5q-22 0 -48.5 -0.5t-55.5 -2t-57 -2.5v-43zM876.5 421.5q-10 3 -21 7
t-21.5 8.5t-21.5 8.5q-56 22 -128 52t-145 70q-54 27 -97.5 58t-69.5 65t-26 75q0 36 17 57t46.5 32t67 14t77.5 3q54 0 126.5 -5.5t138.5 -15.5l-2 42q-41 5 -87.5 9t-92 6t-86.5 2q-65 0 -121 -11t-90 -41.5t-34 -87.5q0 -41 18.5 -75t51 -62.5t73.5 -53.5t85 -48
q49 -26 96 -47t89.5 -39t78.5 -35q17 -8 30.5 -14.5t28.5 -13.5z" />
</svg>
