<svg xmlns="http://www.w3.org/2000/svg" xmlns:xlink="http://www.w3.org/1999/xlink" version="1.1" viewBox="0 0 1000 1000">
   <path 
d="M551.982 821.5q61 -9 121 -29.5t108.5 -55.5t77.5 -86.5t28 -120.5q0 -29 -12 -63.5t-37.5 -66t-67.5 -51.5t-101 -20q-96 0 -185 46.5t-162 121.5v-47q91 -86 182.5 -122t169.5 -36q63 0 120.5 28t94 81.5t36.5 129.5q1 75 -27 131t-77 95.5t-113.5 64.5t-137.5 39z
M326.982 301.5q-8 1 -32.5 4.5t-57.5 8t-67.5 9.5t-65.5 10l-5 -47q13 1 25 0.5t24 -1.5q17 -1 45.5 -4t60.5 -6.5t61 -8.5t47 -11l21 20q-9 14 -19 30.5t-20 33.5t-18 32l-9 96q-18 29 -44 67.5t-55 80.5t-59 84t-56 79l-28 -35q18 -23 45 -59t56.5 -77t57.5 -81t49 -72
t30 -49l5 -71zM318.982 157.5q0 -14 -0.5 -31t-2.5 -31l53 2q-3 16 -8 58.5t-11 101.5t-10.5 125t-7.5 130t-3 117v83.5t0.5 67t2.5 75.5q1 13 1.5 25t1.5 24h-46q1 -7 2 -21.5t1 -26.5v-81.5v-67v-81.5q0 -22 2 -62.5t5 -90.5t6.5 -101.5t6.5 -97t5 -77t2 -40.5z" />
</svg>
