<svg xmlns="http://www.w3.org/2000/svg" xmlns:xlink="http://www.w3.org/1999/xlink" version="1.1" viewBox="0 0 1000 1000">
   <path 
d="M260 118.5q9 0 17.5 1t17.5 1.5t17 0.5q7 0 35.5 -0.5t67.5 -2t80 -2.5t73.5 -2t47.5 -2q21 -1 38.5 -4t24.5 -6l28 34q-17 6 -48 22.5t-69 38t-76.5 44.5t-68.5 40q33 -7 67 -11.5t65 -4.5q57 1 108.5 18t83.5 52.5t32 91.5q0 43 -22 77t-61.5 56t-90 34t-106.5 12
q-71 0 -116.5 -14t-67.5 -38.5t-22 -55.5t21 -52t52.5 -32t62.5 -11q55 0 91 23t36 66q0 30 -26 54t-65 41q-5 1 -16 -0.5t-14 -0.5q-21 13 -50.5 34t-57 43.5t-46.5 38.5q50 -9 87 5t63 44t40 70q18 -39 47.5 -71t68 -51.5t80.5 -19.5q52 0 95.5 26t78.5 70.5t60 102.5
l-40 19q-36 -92 -86.5 -138t-110.5 -46q-33 0 -66 17.5t-59 48t-40 69.5q-4 10 -6 21t-3 20h-40l-2.5 -20t-4.5 -20q-19 -59 -53.5 -89.5t-83.5 -30.5q-39 0 -75.5 24.5t-71.5 62t-67 77.5l-37 -23q38 -42 82 -85t89.5 -83.5t87.5 -73.5t75 -55q3 -1 10 -1t14 -0.5t10 -0.5
q24 -8 45.5 -20t35 -27.5t13.5 -31.5q0 -28 -27 -42t-64 -14q-21 0 -43.5 6.5t-38 19.5t-15.5 34t17 38t54.5 26.5t99.5 9.5q61 0 116 -17t89.5 -49t34.5 -76q0 -43 -26.5 -72t-71 -44t-94.5 -15q-41 0 -92 7.5t-91 24.5q-43 18 -93.5 50.5t-114.5 79.5l-28 -32
q40 -29 99 -66.5t124.5 -76.5t127.5 -75t107 -61q-11 0 -43.5 1t-75 2.5t-87.5 3t-83 3t-57 3.5z" />
</svg>
