<svg xmlns="http://www.w3.org/2000/svg" xmlns:xlink="http://www.w3.org/1999/xlink" version="1.1" viewBox="0 0 1000 1000">
   <path 
d="M508.5 125.5q-5 8 -14 21.5t-18 29.5q-15 25 -40.5 70t-56 99t-58.5 106.5t-48 90.5q42 -45 88.5 -65.5t87.5 -20.5q45 0 78 28.5t34 85.5q1 35 1.5 70.5t0.5 68.5t2 60q2 44 28.5 64.5t64.5 20.5q49 0 88 -25.5t67.5 -65.5t47 -82.5t27.5 -77.5l33 27q-26 76 -62.5 135
t-87 93.5t-119.5 34.5q-51 0 -78.5 -19t-37.5 -46t-11 -52q-1 -31 -1 -65v-69t-2 -68q-1 -38 -23.5 -59.5t-61.5 -21.5q-45 0 -88.5 26t-78.5 65t-55 78q-13 22 -27.5 54t-28 66t-24 63.5t-15.5 46.5l-42 -15q18 -51 47.5 -116.5t65.5 -137.5t73 -143t71 -134t60.5 -110.5
t40.5 -71.5q8 -16 14.5 -29.5t11.5 -28.5z" />
</svg>
