<svg xmlns="http://www.w3.org/2000/svg" xmlns:xlink="http://www.w3.org/1999/xlink" version="1.1" viewBox="0 0 1000 1000">
   <path 
d="M534.5 769.5q79 -11 142 -40t100 -79.5t37 -123.5q0 -24 -9.5 -52t-31 -53.5t-56.5 -41.5t-84 -16q-51 0 -101 19t-96 51.5t-84 71.5v-40q48 -47 98 -77t98 -45t88 -15q58 0 106.5 24t78.5 68.5t30 106.5q0 81 -37.5 138t-103.5 91.5t-155 49.5zM354.5 218.5
q1 -11 0.5 -27.5t-0.5 -22.5l49 2q-4 15 -10.5 58.5t-13.5 102t-11.5 120.5t-4.5 115v76.5t1 74t3 75.5q0 10 0.5 19.5t1.5 19.5h-44q1 -6 1.5 -17.5t0.5 -20.5q0 -39 -0.5 -97t0.5 -120.5t4 -114.5q2 -28 5.5 -63.5t7 -70.5t6.5 -64t4 -45zM360.5 346.5q-9 1 -31 4.5
t-50 8.5t-56.5 9.5t-51.5 8.5l-5 -41q11 0 20.5 -0.5t14.5 -0.5q16 -2 41.5 -4.5t54.5 -6.5t54.5 -8.5t40.5 -9.5l20 19q-10 16 -26.5 44t-27.5 47l-7 56q-15 22 -37 54.5t-46 70t-48 73t-45 66.5l-26 -34q15 -19 36.5 -49.5t46.5 -65.5t48 -68.5t41 -60t26 -40.5l2 -45z
" />
</svg>
