<svg xmlns="http://www.w3.org/2000/svg" xmlns:xlink="http://www.w3.org/1999/xlink" version="1.1" viewBox="0 0 1000 1000">
   <path 
d="M830 224q-3 5 -6.5 9.5t-6.5 9.5q-10 14 -28 42t-45 62.5t-60.5 67.5t-72.5 58l-38 -25q41 -23 79.5 -60t69 -76.5t47.5 -66.5h-57h-97t-115.5 -0.5t-112.5 -0.5h-89h-43q-20 0 -43 1t-42 3v-48q18 2 41.5 4t43.5 2h44h91.5h115h116.5h97.5h54.5q4 0 10 -0.5t12 -1.5
t10 -2zM499 327q0 70 -5 128.5t-19.5 108t-40 91t-65.5 77t-99 68.5l-41 -33q13 -5 29 -12t29 -15q76 -51 112 -109.5t46.5 -122.5t10.5 -131q0 -12 -0.5 -24.5t-2.5 -25.5h46z" />
</svg>
