<svg xmlns="http://www.w3.org/2000/svg" xmlns:xlink="http://www.w3.org/1999/xlink" version="1.1" viewBox="0 0 1000 1000">
   <path 
d="M506.5 96q-2 16 -3 33t-1 28v34v48.5v42.5h-41v-43.5v-48v-33.5t-0.5 -28t-3.5 -33h49zM852.5 276q-3 6 -6 18.5t-5 26.5q-4 25 -12 63t-20.5 82t-30 87.5t-39.5 81.5q-36 58 -90.5 110t-128.5 92.5t-167 66.5l-34 -38q18 -3 36.5 -8t36.5 -11q58 -16 116 -49t108 -79
t83 -98q28 -47 49 -105t34 -115t16 -98h-608v46.5v61.5v58.5v37.5t1 25t2 23h-46q2 -9 2.5 -23.5t0.5 -24.5v-36v-52v-52.5v-36.5q0 -16 -0.5 -35.5t-2.5 -34.5q19 1 40.5 2.5t46.5 1.5h532q26 0 38 -2t19 -5z" />
</svg>
