<svg xmlns="http://www.w3.org/2000/svg" xmlns:xlink="http://www.w3.org/1999/xlink" version="1.1" viewBox="0 0 1000 1000">
   <path 
d="M509 166q-2 13 -3 26.5t-1 22.5v30.5v46v36.5h-40v-37v-46v-30q0 -9 -1 -22.5t-3 -26.5h48zM803 312q-1 5 -4 16t-5 22q-3 26 -12 69t-24.5 91t-38.5 88q-27 47 -72 92t-111 82t-158 62l-35 -36q13 -2 26 -5t25.5 -7t21.5 -6q77 -28 145.5 -71t116.5 -123
q22 -38 38 -82.5t25.5 -87.5t11.5 -77h-513v37.5v49v46v29.5t1 21t2 18h-45q1 -6 2 -18.5t1 -21.5v-27.5v-41v-42v-29.5q0 -12 -1 -31t-3 -31q15 1 35.5 1.5t40.5 0.5h458q20 0 30.5 -1t14.5 -2z" />
</svg>
