<svg xmlns="http://www.w3.org/2000/svg" xmlns:xlink="http://www.w3.org/1999/xlink" version="1.1" viewBox="0 0 1000 1000">
   <path 
d="M683.5 91.5q11 15 26.5 39t30 48.5t25.5 44.5l-34 16q-10 -20 -24 -45t-29.5 -49t-27.5 -40zM802.5 65.5q12 16 27 39t30.5 47.5t26.5 44.5l-34 16q-17 -31 -39.5 -69.5t-42.5 -63.5zM126.5 270.5q23 2 49.5 4t48.5 2h483q16 0 31.5 -0.5t32.5 -1.5q-1 17 -1.5 34.5
t-0.5 30.5v516q0 28 1.5 52.5t1.5 26.5h-46q0 -2 1 -26t1 -50v-542h-503q-25 0 -54.5 1t-44.5 2v-49zM113.5 830.5q14 1 42.5 3t57.5 2h533v41h-532q-31 0 -57.5 0.5t-43.5 1.5v-48z" />
</svg>
