<svg xmlns="http://www.w3.org/2000/svg" xmlns:xlink="http://www.w3.org/1999/xlink" version="1.1" viewBox="0 0 1000 1000">
   <path 
d="M386 109q-4 15 -9 30.5t-10 30.5q-6 21 -14.5 44.5t-19.5 50t-26 56.5q-19 38 -49 82.5t-63.5 84t-63.5 63.5l-42 -25q27 -19 54 -47.5t51.5 -60.5t44 -62t31.5 -52q21 -41 34.5 -77.5t20.5 -65.5q5 -15 7.5 -30t3.5 -31zM287 293h43h78.5h99.5h106h98h75.5h38.5
q18 0 41.5 -0.5t43.5 -3.5v46q-20 -1 -44 -1.5t-41 -0.5h-48.5h-96.5h-121h-123h-102h-58zM635 313q-4 119 -28 211t-63.5 161.5t-92.5 122t-116 92.5l-45 -31q17 -6 35.5 -17t35.5 -23q35 -26 74.5 -67t74.5 -102.5t58 -147t26 -200.5z" />
</svg>
