<svg xmlns="http://www.w3.org/2000/svg" xmlns:xlink="http://www.w3.org/1999/xlink" version="1.1" viewBox="0 0 1000 1000">
   <path 
d="M704 392.5q0 105 -12.5 183.5t-42.5 137t-83 103t-135 82.5l-36 -34q65 -27 115 -60.5t84.5 -83.5t51.5 -127.5t17 -193.5v-224q0 -30 -1.5 -51t-2.5 -23h49q0 2 -2 23t-2 51v217zM345 106.5q-1 1 -2.5 18t-1.5 40v374q0 14 1 32.5t1.5 32t0.5 14.5h-47q0 -1 1 -14
t2 -31.5t1 -33.5v-374q0 -12 -0.5 -29t-2.5 -29h47zM81 311.5q1 0 16.5 1t37.5 2t40 1h667q29 0 52 -2t25 -2v47q-2 0 -25 -1.5t-52 -1.5h-667q-19 0 -40.5 1t-37 1.5t-16.5 0.5v-47z" />
</svg>
