<svg xmlns="http://www.w3.org/2000/svg" xmlns:xlink="http://www.w3.org/1999/xlink" version="1.1" viewBox="0 0 1000 1000">
   <path 
d="M864 253.5q-5 7 -9 19.5t-6 18.5q-13 55 -39 116.5t-61.5 122.5t-79.5 114q-65 80 -159.5 147.5t-234.5 116.5l-36 -34q84 -24 156 -62t133 -86.5t107 -104.5q44 -52 78 -111.5t59 -120t37 -112.5h-397l21 -39h46.5h82h92.5h80.5h43.5q17 0 28.5 -1.5t19.5 -5.5z
M522 107.5q-9 15 -17 31.5t-14 28.5q-26 51 -67.5 113.5t-103 126t-148.5 120.5l-36 -26q64 -38 116 -84t91.5 -94.5t67 -93t42.5 -79.5q4 -9 10.5 -27t8.5 -32z" />
</svg>
