<svg xmlns="http://www.w3.org/2000/svg" xmlns:xlink="http://www.w3.org/1999/xlink" version="1.1" viewBox="0 0 1000 1000">
   <path 
d="M720 120.5q13 17 28 41t30 49t26 47l-34 16q-14 -30 -38 -70t-44 -68zM823 84.5q14 18 30 42.5t31.5 49t24.5 44.5l-33 16q-17 -34 -40 -71.5t-44 -65.5zM448 128.5q-1 16 -2 36t-2 38q-5 157 -29.5 271t-66.5 196t-97.5 141t-121.5 105l-38 -32q18 -9 40 -25t39 -30
q45 -37 86 -89.5t74 -126t52.5 -174.5t20.5 -235q0 -11 -0.5 -24t-1.5 -26.5t-3 -24.5h50zM802 330.5q-2 13 -3 24l-2 22q-1 26 -3 73.5t-6.5 105.5t-11.5 116t-17 106.5t-24 75.5t-35 37.5t-55 10.5q-33 0 -74 -1.5t-82 -3.5l-5 -43q43 4 82.5 6.5t72.5 2.5q20 0 35.5 -6
t24.5 -24q13 -26 23 -72.5t16.5 -102.5t10.5 -113t5.5 -106.5t1.5 -81.5h-558q-33 0 -56 0.5t-46 2.5v-47q22 1 47 3t54 2h519q21 0 33 -1.5l20 -2.5z" />
</svg>
