<svg xmlns="http://www.w3.org/2000/svg" xmlns:xlink="http://www.w3.org/1999/xlink" version="1.1" viewBox="0 0 1000 1000">
   <path 
d="M773 173q-3 5 -8.5 14t-7.5 15q-19 51 -50 111.5t-69 118t-79 101.5q-55 60 -119 117t-136 106t-153 85l-32 -34q81 -33 154.5 -80.5t139 -105.5t120.5 -119q34 -40 70.5 -93.5t66 -110t42.5 -101.5h-40h-79h-97h-97h-77.5h-38.5q-16 0 -36 1t-35.5 1.5t-16.5 0.5v-49
q1 0 16.5 1.5t35.5 3t36 1.5h37.5h74.5h92.5h92.5h75h40q17 0 30 -1.5t22 -3.5zM572 505q43 35 86 76t84 84t77 82t62 72l-34 30q-35 -45 -85 -101t-106 -113t-111 -103z" />
</svg>
