<svg xmlns="http://www.w3.org/2000/svg" xmlns:xlink="http://www.w3.org/1999/xlink" version="1.1" viewBox="0 0 1000 1000">
   <path 
d="M685.5 149.5q11 15 29 43t35.5 58.5t29.5 54.5l-34 17q-10 -22 -26.5 -51.5t-34 -58.5t-32.5 -48zM809.5 101.5q13 16 30.5 43.5t36.5 58t31 54.5l-34 16q-11 -22 -27.5 -51t-34.5 -57.5t-34 -47.5zM262.5 138.5q21 11 50 30.5t60.5 41t58.5 40t41 28.5l-26 35
q-16 -14 -42 -33t-56.5 -39.5t-59.5 -39t-48 -30.5zM140.5 857.5q54 -10 112.5 -27.5t115 -41t104.5 -51.5q82 -48 150.5 -104.5t123.5 -121t96 -133.5l26 40q-62 97 -159.5 191t-215.5 164q-50 30 -108 54t-115 42t-106 29zM115.5 360.5q19 11 49.5 29t62.5 37.5t59 36.5
t41 27l-24 37q-17 -12 -43.5 -30t-57.5 -38t-60 -37t-50 -27z" />
</svg>
