<svg xmlns="http://www.w3.org/2000/svg" xmlns:xlink="http://www.w3.org/1999/xlink" version="1.1" viewBox="0 0 1000 1000">
   <path 
d="M753.5 120.5q13 17 28 41t30 49t26 47l-34 16q-14 -30 -38 -70t-44 -68zM856.5 83.5q14 19 30 43.5t31.5 49t24.5 43.5l-33 17q-17 -34 -40 -72t-44 -66zM312.5 789.5v-68.5v-99.5v-113.5v-113.5v-98.5v-66.5v-25.5t-1 -23t-4 -25.5h51q-3 21 -4.5 38t-1.5 36v65.5v98
v112.5v112.5v97v64.5q0 37 13.5 58t48.5 30t98 9t113.5 -2.5t98 -9t97.5 -15.5l-3 47q-47 6 -93.5 11t-100.5 7t-123 2q-57 0 -94 -8.5t-58 -24.5t-29 -39.5t-8 -54.5zM854.5 337.5q-4 5 -9 13.5t-10 15.5q-17 31 -39 67t-47.5 74.5t-55 76.5t-61.5 72l-37 -23
q41 -38 79 -87.5t68 -97t46 -81.5q-2 1 -36 8t-89.5 18t-125 25t-141.5 28.5t-138.5 28t-117 24t-74.5 15.5l-9 -46q27 -3 75 -11.5t111 -20.5t132 -25.5t136 -27t124.5 -25.5t97 -20t53.5 -11q12 -2 22.5 -6t15.5 -7z" />
</svg>
