<svg xmlns="http://www.w3.org/2000/svg" xmlns:xlink="http://www.w3.org/1999/xlink" version="1.1" viewBox="0 0 1000 1000">
   <path 
d="M356 754v-68.5v-99.5v-114v-113.5v-98v-67.5v-24.5t-1 -23t-4 -25.5h51q-3 21 -4 37.5t-1 35.5v66.5v98v112.5v112.5v97v64.5q0 37 13.5 58t48 30t97.5 9t114 -3t98 -9t97 -15l-2 46q-48 7 -94.5 11.5t-100 6.5t-123.5 2q-57 0 -94 -8t-58 -24t-29 -39.5t-8 -54.5z
M898 302q-4 5 -9 13.5t-9 14.5q-18 31 -40 67t-47 75t-54.5 76.5t-62.5 72.5l-37 -23q41 -38 79 -87.5t68 -98t46 -80.5q-1 0 -35 7t-90 18.5t-125.5 25.5t-141.5 28.5t-138.5 27.5t-116.5 23.5t-75 15.5l-8 -45q26 -3 74.5 -11.5t111 -20.5t131.5 -25.5t136 -27
t124.5 -25.5t97 -20t53.5 -11q12 -2 23 -6t16 -7z" />
</svg>
