<svg xmlns="http://www.w3.org/2000/svg" xmlns:xlink="http://www.w3.org/1999/xlink" version="1.1" viewBox="0 0 1000 1000">
   <path 
d="M400 192q8 17 21 52t28.5 75.5t28 76.5t17.5 54l-40 14q-5 -20 -17 -56t-26.5 -76t-28 -75t-21.5 -52zM826 287q-3 7 -6 19t-6 20q-24 86 -59 168t-97 163q-51 67 -115.5 123t-135 97.5t-141.5 64.5l-33 -35q74 -22 144.5 -62t133.5 -93.5t112 -116.5q41 -53 72 -112.5
t52.5 -122.5t31.5 -127zM121 251q8 18 23 53t31.5 76t31.5 78.5t24 61.5l-41 15q-5 -19 -15.5 -48t-24 -63t-27 -66t-25 -56.5t-17.5 -35.5zM716 84q11 15 26.5 39t30 48.5t25.5 44.5l-34 16q-9 -20 -23.5 -45t-30 -49t-27.5 -40zM835 58q12 15 27 38.5t30.5 48t26.5 44.5
l-34 16q-17 -31 -39.5 -69.5t-42.5 -63.5z" />
</svg>
