<svg xmlns="http://www.w3.org/2000/svg" xmlns:xlink="http://www.w3.org/1999/xlink" version="1.1" viewBox="0 0 1000 1000">
   <path 
d="M442 125q8 17 21 52t28 75.5t27.5 76.5t18.5 54l-40 14q-5 -20 -17.5 -56t-27 -76t-27.5 -75t-21 -51zM877 177q-3 7 -6 19t-6 20q-15 68 -38.5 133.5t-54.5 126t-73 114.5q-50 67 -114.5 123t-135 97.5t-141.5 64.5l-34 -35q74 -22 145 -61.5t133.5 -93.5t112.5 -117
q41 -53 74 -119t56.5 -139t33.5 -148zM163 184q8 18 22.5 53t31 76t31.5 78.5t24 61.5l-41 15q-5 -18 -15.5 -47.5t-24 -63t-27 -66t-24.5 -57t-17 -35.5z" />
</svg>
