<svg xmlns="http://www.w3.org/2000/svg" xmlns:xlink="http://www.w3.org/1999/xlink" version="1.1" viewBox="0 0 1000 1000">
   <path 
d="M744 222q17 23 40 60t41 73l-33 16q-10 -21 -23 -44.5t-27.5 -47t-29.5 -43.5zM844 186q17 22 41.5 59.5t42.5 72.5l-33 16q-10 -21 -23.5 -44.5t-28 -46.5t-30.5 -42zM153 183q37 2 94.5 1t121 -5.5t116.5 -10.5q31 -4 68.5 -10t75 -14t69 -16t49.5 -15l29 37
q-9 2 -19 5t-21 6l-67.5 15t-86 17t-87.5 13q-55 7 -114 11t-115.5 5.5t-102.5 2.5zM219 858q83 -39 139.5 -94.5t85.5 -135t29 -190.5v-33v-88v-122l41 -8v53.5v66v64.5v48.5v18.5q0 111 -26.5 193t-82.5 143.5t-147 112.5zM72 420q14 1 38 2.5t46 1.5h53h94.5h118.5h126.5
h117.5h92h51q11 0 23.5 -0.5t24.5 -1.5t22 -2v46q-14 -2 -33 -2.5t-36 -0.5h-50.5h-93h-117h-126h-119h-94h-52.5q-25 0 -46.5 0.5t-39.5 2.5v-46z" />
</svg>
