<svg xmlns="http://www.w3.org/2000/svg" xmlns:xlink="http://www.w3.org/1999/xlink" version="1.1" viewBox="0 0 1000 1000">
   <path 
d="M743 96q13 17 28 41t30 49t25 47l-33 16q-14 -30 -38 -70t-44 -68zM846 60q14 18 29.5 42.5l31 49t25.5 44.5l-33 16q-17 -34 -40 -71.5t-45 -65.5zM355 463q50 29 101.5 62t101.5 68.5t96.5 70t84.5 67.5l-29 34q-36 -32 -82 -68t-97 -72t-102.5 -70.5t-100.5 -64.5z
M802 271q-4 7 -8 19.5t-7 18.5q-14 55 -40 116.5t-61.5 122.5t-79.5 114q-66 80 -166.5 153.5t-242.5 124.5l-36 -32q85 -25 161 -67t140 -94t111 -108q43 -52 77.5 -111.5t59.5 -120t38 -112.5h-397l21 -39h344q18 0 29.5 -1.5t19.5 -5.5zM460 134q-8 14 -16.5 30.5
t-14.5 28.5q-27 51 -70.5 114.5t-106.5 130t-149 126.5l-35 -27q85 -53 149.5 -119.5t108 -130.5t65.5 -111q4 -9 11.5 -26.5t9.5 -32.5z" />
</svg>
