<svg xmlns="http://www.w3.org/2000/svg" xmlns:xlink="http://www.w3.org/1999/xlink" version="1.1" viewBox="0 0 1000 1000">
   <path 
d="M220.5 123.5q20 2 37 3.5t41 1.5h57h93.5h105.5h94h57q18 0 40.5 -1t41.5 -4v47q-20 -2 -42 -2.5t-40 -0.5h-56.5h-93.5h-105.5h-93.5h-57q-24 0 -43 0.5t-36 2.5v-47zM99.5 371.5q19 2 38 3t42 1h49.5h94.5h120.5h128.5h119.5h93.5h48q16 0 33.5 -1t33.5 -3v45
q-14 -1 -32.5 -1.5t-34.5 -0.5h-48h-93.5h-119.5h-128.5h-120.5h-94.5h-49.5h-41.5t-38.5 2v-45zM537.5 388.5q0 91 -10.5 171t-45.5 143q-19 32 -49 64t-66.5 60t-78.5 50l-39 -31q62 -27 114 -68.5t81 -92.5q38 -61 45.5 -136t8.5 -160h40z" />
</svg>
