<svg xmlns="http://www.w3.org/2000/svg" xmlns:xlink="http://www.w3.org/1999/xlink" version="1.1" viewBox="0 0 1000 1000">
   <path 
d="M248.5 544q16 -36 32 -82t30 -96t24 -98t15 -87l45 8q-2 9 -4.5 16.5t-4.5 16t-5 19.5q-5 20 -13.5 57.5t-21 83t-28 93t-32.5 88.5q-19 44 -42 89t-49.5 90t-56.5 87l-41 -17q48 -64 87.5 -136.5t64.5 -131.5zM740.5 492q-16 -38 -34 -80t-37.5 -84t-38 -78.5
t-35.5 -64.5l40 -14q14 26 32 61.5t37.5 76t38.5 84t36 85.5q17 40 34.5 86t34 91.5t31 87t24.5 73.5l-43 13q-11 -45 -31.5 -103t-43.5 -120t-45 -114z" />
</svg>
