<svg xmlns="http://www.w3.org/2000/svg" xmlns:xlink="http://www.w3.org/1999/xlink" version="1.1" viewBox="0 0 1000 1000">
   <path 
d="M532.5 90.5q-3 15 -4 40t-1 44v29.5v35.5v24h-40v-23.5v-35.5v-30q0 -19 -1.5 -44t-4.5 -40h51zM803.5 271.5q-9 10 -20 20.5t-19 21.5q-24 29 -60.5 66.5t-80.5 76t-94 71.5q-54 37 -113 68t-130.5 58t-163.5 56l-26 -39q141 -36 237 -81t167 -91q49 -32 94.5 -71
t81.5 -76t55 -63h-45h-81.5h-100.5h-101h-83.5h-46.5q-17 0 -38.5 0.5t-42 1t-35.5 1.5v-47q21 2 55.5 3.5t59.5 1.5h46h80h97h98.5h83.5h51q13 0 26 -0.5t21 -4.5zM525.5 513.5v70t-0.5 81.5t-0.5 80v67.5q0 15 0.5 32t1.5 33.5t2 31.5h-50q2 -15 3.5 -31.5t2 -33.5
t0.5 -32v-66t0.5 -77t0.5 -76v-61zM875.5 724.5q-43 -30 -79.5 -54.5t-74.5 -47.5t-88 -48l28 -29q48 24 85.5 46t74.5 45t82 53z" />
</svg>
