<svg xmlns="http://www.w3.org/2000/svg" xmlns:xlink="http://www.w3.org/1999/xlink" version="1.1" viewBox="0 0 1000 1000">
   <path 
d="M195.5 224.5q21 1 40.5 2.5t42.5 1.5h45.5h79h95h95.5h79.5h45.5q25 0 47.5 -1.5t41.5 -2.5v47q-19 -2 -42 -2.5t-47 -0.5h-44.5h-80h-96.5h-96h-78.5h-44.5q-23 0 -42.5 0.5t-40.5 2.5v-47zM108.5 724.5q22 1 42 2.5t46 1.5h47.5h89h112.5h120.5h112.5h89h48
q20 0 38.5 -1t37.5 -3v51q-19 -2 -38.5 -3t-37.5 -1h-48h-89h-112.5h-120.5h-112.5h-89h-47.5q-26 0 -46 1.5t-42 2.5v-51z" />
</svg>
