<svg xmlns="http://www.w3.org/2000/svg" xmlns:xlink="http://www.w3.org/1999/xlink" version="1.1" viewBox="0 0 1000 1000">
   <path 
d="M740 139q13 17 28 41.5t30 49.5t25 46l-33 16q-14 -30 -38 -70t-44 -68zM843 103q14 18 29.5 42.5l31 49t25.5 44.5l-33 16q-17 -33 -40 -71t-45 -66zM224 612q16 -37 32 -83t29.5 -96t24 -97.5t15.5 -87.5l45 8q-3 9 -5 17t-4.5 16.5t-5.5 18.5q-5 21 -13.5 58.5
t-20.5 83t-27.5 92.5t-32.5 89q-19 43 -42.5 88.5t-50 90t-55.5 87.5l-42 -18q48 -64 88 -136t65 -131zM716 559q-16 -38 -34 -79.5t-37.5 -83.5t-38 -79t-35.5 -64l40 -14q14 25 31.5 60.5t37 76t38.5 84.5t37 86q17 39 34 85l34 92t31 87.5t24 72.5l-42 13
q-11 -44 -31.5 -102.5t-43.5 -120t-45 -114.5z" />
</svg>
