<svg xmlns="http://www.w3.org/2000/svg" xmlns:xlink="http://www.w3.org/1999/xlink" version="1.1" viewBox="0 0 1000 1000">
   <path 
d="M249.5 129.5q-2 14 -3.5 28.5t-1.5 34.5v51v96v118v120v101v61q0 43 18 59t56 24q25 4 65.5 6.5t80.5 2.5t85.5 -1.5t91.5 -5t87.5 -9.5t72.5 -14v48q-40 6 -99 10.5t-122 7.5t-117 3q-41 0 -82.5 -1.5t-71.5 -6.5q-51 -10 -78 -33.5t-27 -81.5v-66v-104v-121v-118v-95.5
v-50.5q0 -12 -0.5 -23t-2 -21t-3.5 -19h51zM225.5 451.5q42 -9 99 -24.5t118.5 -34t120.5 -39.5t106 -42q19 -9 37.5 -19t33.5 -20l21 44q-16 6 -36.5 15t-41.5 18q-48 20 -109 41.5t-125.5 41.5t-122.5 36.5t-101 27.5v-45z" />
</svg>
