<svg xmlns="http://www.w3.org/2000/svg" xmlns:xlink="http://www.w3.org/1999/xlink" version="1.1" viewBox="0 0 1000 1000">
   <path 
d="M693.5 285.5q0 33 24 57t57 24q34 0 57.5 -24t23.5 -57q0 -35 -23.5 -58t-57.5 -23q-33 0 -57 23t-24 58zM659.5 285.5q0 -32 15.5 -58t41.5 -41.5t58 -15.5q31 0 57 15.5t42 41.5t16 58q0 31 -16 57t-42 41.5t-57 15.5q-32 0 -58 -15.5t-41.5 -41.5t-15.5 -57z
M70.5 629.5q18 -15 31.5 -28.5t30.5 -29.5q19 -19 44 -49t53 -64.5t55.5 -68t49.5 -59.5q36 -42 68.5 -47.5t77.5 37.5q28 26 65.5 64.5t75 77.5t65.5 69q34 35 75.5 80t85.5 92t82 89l-36 37q-37 -45 -78.5 -92t-81.5 -91.5t-74 -82.5q-21 -23 -48.5 -52t-56 -58.5
t-53.5 -55.5t-42 -42q-33 -32 -52 -29t-48 37q-21 25 -47 56.5t-54 66t-53 65t-44 51.5q-13 16 -27.5 34.5t-24.5 29.5z" />
</svg>
