<svg xmlns="http://www.w3.org/2000/svg" xmlns:xlink="http://www.w3.org/1999/xlink" version="1.1" viewBox="0 0 1000 1000">
   <path 
d="M738.5 191q0 30 21 51t51 21t51.5 -21t21.5 -51t-21.5 -51.5t-51.5 -21.5t-51 21.5t-21 51.5zM704.5 191q0 -30 14.5 -54t38.5 -38.5t53 -14.5t53.5 14.5t39 38.5t14.5 54q0 29 -14.5 53t-39 38t-53.5 14t-53 -14t-38.5 -38t-14.5 -53zM764.5 248q-4 8 -6 14.5t-4 20.5
q-7 42 -20.5 91.5t-32.5 100.5t-43 98t-52 82q-46 58 -99.5 106.5t-123.5 87t-164 67.5l-35 -39q95 -26 166 -62t125 -82t97 -102q38 -48 66.5 -112.5t48 -130t26.5 -117.5h-56h-100h-121.5h-121h-97.5h-51q-26 0 -45.5 0.5t-38.5 1.5v-46q13 1 26 2.5t28 2t31 0.5h39.5
h77.5h98.5h105h97.5h75.5h38.5t16.5 -0.5t17.5 -3.5z" />
</svg>
