<svg xmlns="http://www.w3.org/2000/svg" xmlns:xlink="http://www.w3.org/1999/xlink" version="1.1" viewBox="0 0 1000 1000">
   <path 
d="M242 211q7 1 24 1.5t34.5 1t26.5 0.5h46h84h100.5h95h67.5q17 0 29 -0.5t21 -0.5q-1 6 -1 15v22v41v81.5v103.5v108.5v96v65.5q0 12 0.5 22.5t1.5 20.5h-43q1 -7 1 -17v-26v-71.5v-97.5v-107.5v-101v-77.5v-39h-36.5h-72.5h-90h-90h-73.5h-39.5t-26.5 0.5t-34.5 1
t-24 1.5v-44zM261 451q11 1 30.5 2.5t42.5 1.5h46.5h78.5h93h91h72.5h37.5v39h-37.5h-72.5h-91h-93h-78h-46h-43t-31 2v-45zM229 703q12 1 33 2.5t46 1.5h47.5h81h97h96.5h79h44v40h-44h-79h-96h-96.5h-81h-47.5q-25 0 -46.5 1t-33.5 1v-46z" />
</svg>
