<svg xmlns="http://www.w3.org/2000/svg" xmlns:xlink="http://www.w3.org/1999/xlink" version="1.1" viewBox="0 0 1000 1000">
   <path 
d="M305 128.5q39 5 90 14t108 20.5t114 25t107.5 27.5t88.5 27l-17 40q-38 -14 -87.5 -28t-105.5 -27.5t-112.5 -25.5t-108 -21t-92.5 -14zM260 388.5q49 9 113.5 21.5t133.5 28t132.5 33t109.5 35.5l-17 39q-44 -18 -106.5 -35.5t-131 -34t-134 -29.5t-117.5 -20z
M203 682.5q49 8 109.5 20.5t125.5 27.5t128 32t118.5 35t96.5 36l-19 38q-39 -17 -94 -35.5t-118 -36t-128 -32.5t-125.5 -27t-109.5 -20z" />
</svg>
