<svg xmlns="http://www.w3.org/2000/svg" xmlns:xlink="http://www.w3.org/1999/xlink" version="1.1" viewBox="0 0 1000 1000">
   <path 
d="M795.5 140q-6 10 -13 27.5t-12 31.5q-18 50 -44 107t-59 114t-75 108q-48 62 -110.5 125t-139 120.5t-168.5 103.5l-35 -31q142 -68 243.5 -157.5t176.5 -183.5q64 -81 105.5 -165.5t66.5 -156.5q5 -12 10 -29t8 -31zM283.5 273q38 24 80.5 54.5t86 61.5t80.5 60t63 50
q72 60 140 122t127 127l-31 32q-61 -69 -126 -128.5t-137 -120.5q-27 -23 -64 -52.5t-80 -61t-85.5 -60.5t-78.5 -52z" />
</svg>
