<svg xmlns="http://www.w3.org/2000/svg" xmlns:xlink="http://www.w3.org/1999/xlink" version="1.1" viewBox="0 0 1000 1000">
   <path 
d="M898 181q-5 5 -10 11t-8 11q-27 44 -65.5 97t-88 109.5t-110.5 113.5t-134 109l-32 -26q69 -48 129 -103t109 -111.5t85 -106t56 -86.5h-61h-97h-117h-121.5h-111.5h-85h-43q-19 0 -36 0.5t-31.5 1t-23.5 1.5v-48q14 1 28.5 2.5t30 2t32.5 0.5h42.5h83.5h109h120h116
h96.5h61.5q30 0 41 -5zM471 652q-23 -23 -55.5 -52.5t-67 -58.5t-64 -53.5t-48.5 -36.5l32 -26q15 10 44 33t64 52.5t69 60t60 55.5q30 30 63.5 65.5t63.5 68t50 57.5l-38 29q-16 -23 -45 -56.5t-62.5 -69.5t-65.5 -68z" />
</svg>
