<svg xmlns="http://www.w3.org/2000/svg" xmlns:xlink="http://www.w3.org/1999/xlink" version="1.1" viewBox="0 0 1000 1000">
   <path 
d="M176.5 155.5q18 1 39 2t45 1h51h83.5h100h101h84.5h51q24 0 42 -1t34 -2v44q-16 -1 -33 -1.5t-43 -0.5h-51.5h-85h-101h-100.5h-83.5h-49.5q-24 0 -45 0.5t-39 1.5v-44zM452.5 451.5v78v79v67v43q0 35 30.5 60.5t106.5 25.5q74 0 136.5 -3t129.5 -11l-2 43q-43 2 -86 5
t-87 4.5t-93 1.5q-63 0 -102 -14t-56.5 -39.5t-17.5 -58.5v-63v-71.5v-75v-72.5v-40v-60.5v-67v-61.5v-42l41 1v41.5v62v68v60v39.5zM110.5 436.5q20 2 42 3.5t40 1.5h48.5h89h113h121h113.5h89.5h50.5q11 0 23.5 -0.5t25.5 -1.5t22 -2l1 45q-15 -1 -35 -1.5t-37 -0.5h-50
h-90h-113.5h-121h-113h-89h-48.5q-17 0 -40 0.5t-42 2.5v-47z" />
</svg>
