<svg xmlns="http://www.w3.org/2000/svg" xmlns:xlink="http://www.w3.org/1999/xlink" version="1.1" viewBox="0 0 1000 1000">
   <path 
d="M496 123.5q-6 15 -13 31.5t-16 46.5q-7 24 -21 69t-32.5 102t-39 118.5t-40.5 119.5t-36 103t-27 70l-46 1q12 -26 29.5 -72.5t38 -105t40.5 -121t39 -120t33 -103t21 -69.5q8 -33 11.5 -49t5.5 -32zM694 468.5q26 36 58.5 89t65 111t59 110.5t40.5 89.5l-43 19
q-13 -37 -38 -90.5t-56 -111.5t-63.5 -110.5t-59.5 -87.5zM163 777.5q37 -3 90.5 -7t117 -10.5t128.5 -14t126 -14.5t110.5 -13.5t79.5 -10.5l16 38q-32 4 -84 10t-114.5 13t-128.5 15t-130 15t-118 12.5t-91 8.5q-19 1 -36 3.5t-38 5.5l-8 -49q20 1 40 0z" />
</svg>
