<svg xmlns="http://www.w3.org/2000/svg" xmlns:xlink="http://www.w3.org/1999/xlink" version="1.1" viewBox="0 0 1000 1000">
   <path 
d="M528 845q2 -10 3.5 -21t1.5 -22v-43v-87v-112v-121v-113v-88.5v-46.5q0 -25 -1.5 -40.5t-1.5 -24.5h47q-1 9 -1.5 24.5t-0.5 40.5v48v94v120v126.5v114v83.5v33q50 -24 110.5 -64t117.5 -93.5t98 -115.5l25 34q-44 62 -101 115t-119.5 95t-121.5 71q-10 4 -17 9t-11 8z
M74 848q60 -44 106 -108t71 -143q11 -36 17.5 -89t9 -112t3 -113.5t0.5 -93.5q0 -16 -1.5 -30t-3.5 -27h48q0 8 -1 17.5t-1.5 19t-0.5 19.5q0 40 -1 96t-4.5 117t-9.5 116t-17 92q-22 77 -68.5 146.5t-108.5 118.5z" />
</svg>
