<svg xmlns="http://www.w3.org/2000/svg" xmlns:xlink="http://www.w3.org/1999/xlink" version="1.1" viewBox="0 0 1000 1000">
   <path 
d="M187.5 151.5q8 1 29 2t43.5 1.5t32.5 0.5h43.5h77.5h96h101.5h92h66.5q20 0 33.5 -0.5t23.5 -1.5q-1 8 -1 17v26v50v98.5v126v132v116.5v81q0 16 0.5 26.5t1.5 21.5h-44q1 -5 1 -11v-15v-22v-88.5v-120v-131.5v-123.5v-95.5v-47h-44.5h-88.5h-109.5h-110.5h-90.5h-48.5
q-10 0 -32.5 0.5t-43.5 1.5t-29 2v-47zM211.5 444.5q14 1 38.5 3t52.5 2h58h95h112h110h88h45v39h-45h-87.5h-110h-112.5h-94.5h-57.5q-28 0 -52 0.5t-40 1.5v-46zM172.5 753.5q14 1 40 2.5t58 1.5h58h98.5h117h116.5h96.5h54.5v40h-54.5h-96h-116.5h-117h-98h-59
q-31 0 -57.5 1t-40.5 2v-47z" />
</svg>
