<svg xmlns="http://www.w3.org/2000/svg" xmlns:xlink="http://www.w3.org/1999/xlink" version="1.1" viewBox="0 0 1000 1000">
   <path 
d="M756.5 113q-1 17 -2.5 36t-1.5 40v41.5v52v40.5q0 97 -4.5 162.5t-16 109.5t-30 78t-44.5 66q-31 41 -72 69.5t-83 47t-79 31.5l-34 -35q64 -18 127.5 -51t109.5 -89q28 -33 45 -68t25.5 -79t11.5 -103t3 -139v-42v-52v-40q0 -21 -1 -40t-3 -36h49zM291.5 121
q-1 11 -2 32.5t-1 35.5v28v58.5v74v75v61.5v33q0 19 1 38.5t2 29.5h-48q1 -10 2.5 -28.5t1.5 -39.5v-33v-61.5v-75v-74v-58.5v-28q0 -14 -1 -35.5t-3 -32.5h48z" />
</svg>
