<svg xmlns="http://www.w3.org/2000/svg" xmlns:xlink="http://www.w3.org/1999/xlink" version="1.1" viewBox="0 0 1000 1000">
   <path 
d="M682.5 114.5q-2 19 -2.5 37.5t-0.5 26.5v39v87v114.5v124v116v88.5v43t0.5 35t2.5 60h-48q3 -34 3.5 -60t0.5 -33v-43.5v-89.5v-116v-124.5v-115v-86.5v-39q0 -11 -1 -29t-3 -35h48zM315.5 651.5v-356h40v356h-40zM92.5 629.5q22 2 41.5 3t38.5 1h661q19 0 37 -1.5
t37 -2.5v46q-19 -2 -40.5 -2.5t-33.5 -0.5h-661q-19 0 -38 0.5t-42 2.5v-46zM129.5 267.5q21 2 41 3t39 1h597q21 0 38.5 -1t36.5 -3v45q-19 -2 -40.5 -2h-34.5h-597q-19 0 -38.5 0.5t-41.5 1.5v-45z" />
</svg>
