<svg xmlns="http://www.w3.org/2000/svg" xmlns:xlink="http://www.w3.org/1999/xlink" version="1.1" viewBox="0 0 1000 1000">
   <path 
d="M800.5 226q-1 2 -2.5 7t-2.5 10t-2 8q-7 58 -19 116.5t-32 112t-52 96.5q-52 73 -128 129t-177 89l-35 -36q91 -22 168.5 -73.5t132.5 -124.5q39 -52 63.5 -129t35.5 -183h-48h-89.5h-110.5h-112.5h-94h-54.5v34.5v56v55.5v33q0 7 0.5 18.5t0.5 23.5h-43q2 -12 2 -23.5
v-18.5v-31v-51.5v-53.5v-36q0 -12 -0.5 -24t-1.5 -23q14 1 34.5 1.5t44.5 0.5h39.5h82.5h104h105.5h86h44.5q6 0 15.5 -1t15.5 -3z" />
</svg>
