<svg xmlns="http://www.w3.org/2000/svg" xmlns:xlink="http://www.w3.org/1999/xlink" version="1.1" viewBox="0 0 1000 1000">
   <path 
d="M233.5 122.5q20 2 38 3.5t40 1.5h53.5h91h103.5h94h59q24 0 42.5 -1.5t34.5 -3.5v46q-16 -2 -35 -2h-43h-57.5h-92h-103.5h-91.5h-55.5q-21 0 -39.5 0.5t-38.5 1.5v-46zM853.5 364.5q-2 5 -5 10.5t-4 9.5q-16 75 -52 152t-92 138q-81 88 -172 132t-186 71l-32 -38
q101 -21 194 -68t162 -122q50 -53 84 -124t48 -136h-44.5h-83h-105h-112.5h-104h-80h-40q-17 0 -38 1t-45 3v-48q24 2 44.5 3.5t38.5 1.5h38.5h79h102h110h103h79.5h40q12 0 23 -1t18 -4z" />
</svg>
