<svg xmlns="http://www.w3.org/2000/svg" xmlns:xlink="http://www.w3.org/1999/xlink" version="1.1" viewBox="0 0 1000 1000">
   <path 
d="M157.5 136q13 1 39 3.5t55 2.5h59h96h114h111.5h89.5h49t21 -1t16 -2l35 22q-1 5 -4.5 12t-5.5 18q-9 62 -24.5 132.5t-37.5 135t-52 109.5q-49 74 -109 129.5t-133 96t-164 70.5l-34 -38q88 -21 161 -58t134.5 -91.5t109.5 -126.5q21 -33 39 -79t31.5 -97.5t22.5 -101
t14 -90.5h-55.5h-95.5h-115h-115.5h-97.5h-60q-22 0 -44 0.5t-50 2.5v-49zM762.5 435h-53.5h-89.5h-107h-107h-88h-51q-24 0 -43.5 1t-39.5 2v-46q19 1 38.5 2.5t43.5 1.5h52h90h108.5h108.5h90.5h54.5z" />
</svg>
