<svg xmlns="http://www.w3.org/2000/svg" xmlns:xlink="http://www.w3.org/1999/xlink" version="1.1" viewBox="0 0 1000 1000">
   <path 
d="M459.5 877q-52 0 -89.5 -18.5t-65.5 -49.5l28 -32q26 29 59 43.5t70 14.5q40 0 76.5 -19.5t65 -63.5t45 -116.5t16.5 -178.5q0 -87 -20 -153t-60.5 -103t-104.5 -37q-40 0 -72.5 25t-51.5 68t-19 97t15.5 97t49.5 68t87 25q42 0 88 -27t91 -88l1 51q-24 30 -53.5 53
t-62.5 36.5t-70 13.5q-60 0 -103.5 -26.5t-67 -77.5t-23.5 -125q0 -67 26.5 -119t70.5 -82t96 -30q53 0 95.5 22t72.5 65t46 104.5t16 142.5q0 117 -21 197.5t-56.5 129.5t-80.5 71t-94 22z" />
</svg>
