<svg xmlns="http://www.w3.org/2000/svg" xmlns:xlink="http://www.w3.org/1999/xlink" version="1.1" viewBox="0 0 1000 1000">
   <path 
d="M468 651.5q-10 -44 1.5 -78.5t36.5 -63t55.5 -53.5t58 -49t45.5 -51t18 -58q0 -38 -17.5 -70t-55 -50.5t-98.5 -18.5q-56 0 -110 24t-103 76l-31 -30q51 -50 108.5 -80.5t139.5 -30.5q69 0 117 23.5t73.5 63t25.5 90.5q0 39 -18.5 69.5t-46.5 56.5t-58.5 50.5t-56 51
t-37.5 57t-4 71.5h-43zM492 881.5q-17 0 -31 -12t-14 -35t14 -36.5t31 -13.5q18 0 31.5 13.5t13.5 36.5t-13.5 35t-31.5 12z" />
</svg>
