<svg xmlns="http://www.w3.org/2000/svg" xmlns:xlink="http://www.w3.org/1999/xlink" version="1.1" viewBox="0 0 1000 1000">
   <path 
d="M703.5 305q0 48 -20.5 85t-54.5 60.5t-78 31.5v2q83 11 129 54.5t46 123.5q0 59 -28.5 105.5t-84 73t-137.5 26.5q-60 0 -111 -12t-90 -30v-39q39 19 92 32t107 13q104 0 156.5 -46t52.5 -124q0 -57 -27.5 -91.5t-76.5 -50t-115 -15.5h-80v-36h80q53 0 98 -16.5t73 -52
t28 -90.5q0 -71 -44.5 -105.5t-117.5 -34.5q-37 0 -71 8t-65.5 23t-62.5 37l-20 -30q44 -34 98.5 -54t122.5 -20q90 0 145.5 45t55.5 127z" />
</svg>
