<svg xmlns="http://www.w3.org/2000/svg" xmlns:xlink="http://www.w3.org/1999/xlink" version="1.1" viewBox="0 0 1000 1000">
   <path 
d="M500 133q91 0 145.5 43t54.5 121q0 44 -20 76.5t-56 57.5t-86 45q57 19 99 46t64 64.5t22 88.5q0 61 -29.5 103.5t-80.5 65.5t-117 23q-65 0 -114.5 -23.5t-77 -65.5t-27.5 -97t22.5 -93.5t64 -65t95.5 -45.5q-43 -18 -79 -40.5t-58 -56t-22 -81.5q0 -51 25.5 -88
t71 -57.5t103.5 -20.5zM317 680q0 70 49.5 111t129.5 41q82 0 134.5 -40t52.5 -117q0 -42 -18.5 -73t-53.5 -54.5t-86 -41.5l-27 -10q-50 16 -91 39.5t-65.5 58.5t-24.5 86zM500 168q-69 0 -114 34t-45 98q0 61 44 96t118 61q51 -21 86 -43t52.5 -50t17.5 -66
q0 -65 -42 -97.5t-117 -32.5z" />
</svg>
