<svg xmlns="http://www.w3.org/2000/svg" xmlns:xlink="http://www.w3.org/1999/xlink" version="1.1" viewBox="0 0 1000 1000">
   <path 
d="M889 451.5q0 51 -10 95.5t-29.5 78.5t-49 52.5t-70.5 18.5q-44 0 -73 -26t-32 -74h-2q-22 53 -63 76.5t-88 23.5q-75 0 -115.5 -46t-40.5 -132q0 -65 27 -115t75.5 -79t112.5 -29q37 0 70.5 5t61.5 16l-7 150q-1 17 -2.5 41.5t-1.5 49.5q0 51 17.5 79t60.5 28t70 -27
t40 -75.5t13 -110.5q0 -97 -37 -169.5t-109.5 -112.5t-178.5 -40q-112 0 -198 45.5t-134.5 132.5t-48.5 212q0 108 39 186.5t113 121t177 42.5q51 0 104 -10.5t102 -30.5v35q-43 18 -95 28.5t-110 10.5q-114 0 -195.5 -47t-126 -133t-44.5 -203q0 -101 30 -179.5t85.5 -133
t132 -82t169.5 -27.5q112 0 192.5 43t124.5 122.5t44 188.5zM353 517.5q0 70 29.5 108.5t90.5 38.5q68 0 105 -43.5t42 -136.5l7 -143q-21 -8 -44 -11t-52 -3q-80 0 -129 51.5t-49 138.5z" />
</svg>
